<?xml version="1.0" encoding="UTF-8"?>
<svg id="_图层_2" data-name="图层 2" xmlns="http://www.w3.org/2000/svg" viewBox="0 0 517.06 64.89">
  <defs>
    <style>
      .cls-1 {
        fill: #314158;
      }

      .cls-2 {
        fill: none;
        stroke: #314158;
        stroke-miterlimit: 10;
        stroke-width: 3px;
      }
    </style>
  </defs>
  <g id="_图层_1-2" data-name="图层 1">
    <g>
      <path class="cls-1" d="M34.23,40.32v-6.1M34.23,50.02v-6.08M34.23,20.95v-6.1M34.23,30.63v-6.08M26.18,0c-3.7,0-6.83,2.52-7.77,5.94-.97-.07-1.96.01-2.93.28-3.56.95-6.12,3.96-6.53,7.54-2.34,1.46-3.8,4.04-3.8,6.86,0,.49.05.98.13,1.45-3.29,2.41-5.29,6.27-5.29,10.38s2,7.98,5.29,10.39c-.08.47-.13.96-.13,1.45,0,2.82,1.46,5.4,3.8,6.86.41,3.58,2.97,6.6,6.53,7.54.75.2,1.52.3,2.27.3.22,0,.44-.03.66-.04.93,3.43,4.05,5.96,7.77,5.96,4.44,0,8.05-3.61,8.05-8.05V8.05c0-4.44-3.61-8.05-8.05-8.05ZM30.65,13.56h-.01c0,2.42-2.04,4.46-4.46,4.46-.99,0-1.8.8-1.8,1.8s.8,1.8,1.8,1.8c1.64,0,3.18-.5,4.46-1.35v24.35c-1.28-.86-2.8-1.35-4.46-1.35-.99,0-1.8.8-1.8,1.8s.8,1.8,1.8,1.8c2.46,0,4.46,2,4.46,4.46v5.49c0,2.46-2,4.46-4.46,4.46-2.07,0-3.82-1.43-4.32-3.36,1.49-.79,2.77-1.98,3.63-3.53.48-.87.17-1.96-.7-2.45-.87-.48-1.96-.17-2.45.7-1.17,2.11-3.62,3.15-5.95,2.54-2.34-.62-3.95-2.73-3.92-5.15.01-.72-.42-1.38-1.07-1.67-1.62-.71-2.67-2.33-2.67-4.1s1.05-3.39,2.67-4.1c.91-.4,1.33-1.46.93-2.37-.4-.91-1.46-1.33-2.37-.93-1.29.56-2.38,1.44-3.18,2.52-1.99-1.75-3.18-4.28-3.18-6.96s1.2-5.2,3.17-6.96c.82,1.08,1.91,1.97,3.2,2.54.23.1.48.15.72.15.7,0,1.35-.4,1.64-1.07.4-.91-.01-1.97-.92-2.37-1.62-.71-2.67-2.33-2.67-4.12s1.05-3.39,2.67-4.1c.66-.29,1.08-.95,1.07-1.67-.03-2.42,1.58-4.53,3.92-5.15,2.33-.62,4.78.43,5.95,2.54.48.87,1.58,1.18,2.45.7.87-.48,1.18-1.58.7-2.45-.87-1.55-2.13-2.77-3.62-3.54.5-1.92,2.23-3.34,4.3-3.34,2.46,0,4.46,2,4.46,4.46v5.53ZM18.68,24.11c-.92-.37-1.97.08-2.34,1-.37.92.08,1.97,1,2.34,2.03.8,3.4,2.82,3.4,4.99s-1.37,4.18-3.4,4.99c-.92.37-1.37,1.41-1,2.34.29.7.96,1.13,1.67,1.13.22,0,.45-.04.66-.13,3.44-1.37,5.66-4.64,5.66-8.33,0-3.69-2.23-6.95-5.66-8.32h0ZM70.15,26.51c-3.27,0-5.93,2.65-5.93,5.93s2.65,5.93,5.93,5.93,5.93-2.65,5.93-5.93-2.65-5.93-5.93-5.93ZM70.15,34.77c-1.29,0-2.33-1.04-2.33-2.33s1.04-2.33,2.33-2.33,2.33,1.04,2.33,2.33-1.04,2.33-2.33,2.33ZM58.65,45.79c-3.27,0-5.93,2.65-5.93,5.93s2.65,5.93,5.93,5.93,5.93-2.65,5.93-5.93-2.65-5.93-5.93-5.93ZM58.65,54.05c-1.29,0-2.33-1.04-2.33-2.33s1.04-2.33,2.33-2.33,2.33,1.04,2.33,2.33-1.04,2.33-2.33,2.33ZM58.65,7.79c-3.27,0-5.93,2.65-5.93,5.93s2.65,5.93,5.93,5.93,5.93-2.65,5.93-5.93-2.65-5.93-5.93-5.93ZM58.65,16.05c-1.29,0-2.33-1.04-2.33-2.33s1.04-2.33,2.33-2.33,2.33,1.04,2.33,2.33-1.04,2.33-2.33,2.33ZM41.85,19.52h3.59v-9.92h-3.59v9.92ZM43.65,53.01c-3.27,0-5.93,2.65-5.93,5.93s2.65,5.93,5.93,5.93,5.93-2.65,5.93-5.93-2.65-5.93-5.93-5.93ZM43.65,61.27c-1.29,0-2.33-1.04-2.33-2.33s1.04-2.33,2.33-2.33,2.33,1.04,2.33,2.33-1.04,2.33-2.33,2.33ZM43.65.01c-3.27,0-5.93,2.65-5.93,5.93s2.65,5.93,5.93,5.93,5.93-2.65,5.93-5.93S46.92.01,43.65.01ZM43.65,8.27c-1.29,0-2.33-1.04-2.33-2.33s1.04-2.33,2.33-2.33,2.33,1.04,2.33,2.33-1.04,2.33-2.33,2.33ZM43.65,17.01c-3.27,0-5.93,2.65-5.93,5.93s2.65,5.93,5.93,5.93,5.93-2.65,5.93-5.93-2.65-5.93-5.93-5.93ZM43.65,25.27c-1.29,0-2.33-1.04-2.33-2.33s1.04-2.33,2.33-2.33,2.33,1.04,2.33,2.33-1.04,2.33-2.33,2.33ZM55.65,26.44c-3.27,0-5.93,2.65-5.93,5.93s2.65,5.93,5.93,5.93,5.93-2.65,5.93-5.93-2.65-5.93-5.93-5.93ZM55.65,34.7c-1.29,0-2.33-1.04-2.33-2.33s1.04-2.33,2.33-2.33,2.33,1.04,2.33,2.33-1.04,2.33-2.33,2.33ZM66.34,30.57h-7v3.6h7v-3.6ZM55.24,9.81l-7-4-1.79,3.13,7,4,1.79-3.13ZM55.21,17.79l-1.81-3.11-6.96,4.06,1.81,3.11,6.96-4.06ZM55.21,55.11l-1.81-3.11-6.96,4.06,1.81,3.11,6.96-4.06ZM53.75,29.96l-4.95-4.95-2.54,2.55,4.95,4.95,2.54-2.55ZM41.89,54.52h3.59v-28.16h-3.59v28.16ZM55.65,38.3c-.6,0-1.17-.09-1.72-.25l2.03,11.52,3.54-.62-1.93-10.96c-.6.21-1.25.33-1.93.33ZM66.34,36.98l-6.55,11.35,3.12,1.8,6.8-11.77c-1.28-.1-2.44-.6-3.36-1.37ZM68.76,26.69l-5.86-10.14-3.12,1.8,5.9,10.21c.79-.91,1.86-1.58,3.08-1.87Z"/>
      <g>
        <path class="cls-1" d="M94.24,17.31c.14-1.12.45-1.92.92-2.39.48-.48,1.23-.71,2.27-.71h5.25c2.02,0,3.02,1.01,3.02,3.02,0,.36-.01.64-.04.84l-3.15,27.76c-.2,2.38-1.48,3.44-3.86,3.19-1.68-.17-2.86-.39-3.53-.67l.38-3.65c.98.34,1.83.56,2.56.67.11.03.24.04.38.04.22,0,.37-.06.44-.19.07-.13.13-.36.19-.69l.92-8.48h-4.37c-.45,3.25-.9,5.89-1.37,7.92-.46,2.03-1.1,3.86-1.91,5.48l-3.4-1.26c.78-1.51,1.46-3.43,2.04-5.75.57-2.32,1.01-4.93,1.32-7.81l1.93-17.3ZM100.96,27.05h-4.2l-.67,5.54h4.28l.59-5.54ZM101.97,17.9h-4.03l-.71,5.71h4.12l.63-5.71ZM122.8,22.26c-2.13,4.37-3.72,7.58-4.79,9.62,1.09,2.63,2.17,5.4,3.23,8.32l1.97-15.16h3.61l-2.9,23.6h-16.13c-2.07,0-3.11-.9-3.11-2.69,0-.34.01-.6.04-.8l2.39-19.99h3.61l-1.89,15.2c2.55-3.64,4.45-6.54,5.71-8.69-1.68-4.09-3.02-7.27-4.03-9.53h3.28c.5,1.2.97,2.24,1.39,3.11.42.92.84,1.92,1.26,2.98,1.06-2.04,2.04-4.03,2.94-5.96h3.4ZM119.44,16.72h8.06l-.38,3.7h-20.37l.42-3.7h7.85l-1.22-3.78h4.33l1.3,3.78ZM108.31,44.94h12.35l.5-3.95-2.81.67-.76-2.1-.42-1.13-1.13-2.98c-1.26,2.16-2.6,4.24-4.03,6.26l-3.19-.84-.5,4.07Z"/>
        <path class="cls-1" d="M143.67,41.16c-3.19,1.2-7.21,2.41-12.05,3.61l.55-3.95c.81-.17,1.99-.48,3.53-.92l1.55-13.94h-3.82l.46-3.7h3.78l.97-8.61h3.91l-1.01,8.61h3.19l-.46,3.7h-3.15l-1.43,12.81c1.74-.5,3.18-.97,4.33-1.39l-.34,3.78ZM165.47,40.79h-4.54l-.42,4.07c-.03.08-.04.21-.04.38,0,.34.24.5.71.5h2.02c2.02,0,3.79-.43,5.33-1.3l-.42,3.78c-.56.31-1.32.55-2.29.71-.97.17-1.97.25-3,.25h-3.32c-2.1.03-3.02-1.09-2.77-3.36l.55-5.04h-3.57c-.81,1.99-2.09,3.82-3.82,5.5-1.65,1.65-3.3,2.83-4.96,3.53l-3.19-2.35c1.76-.76,3.35-1.71,4.77-2.88,1.41-1.16,2.48-2.43,3.21-3.8h-4.37l1.26-10.21c.14-.95.46-1.65.97-2.1.5-.45,1.27-.67,2.31-.67h13.73c2.04,0,3.07.9,3.07,2.69,0,.14-.03.41-.08.8l-1.13,9.49ZM168.37,15.96l-.42,3.28h-2.94l-1.51,3.49h5.8l-.38,3.32h-23.23l.38-3.32h5.12l-.97-3.49h-3.07l.38-3.28h8.06l-.92-2.81h4.12l.97,2.81h8.61ZM149.38,37.68h12.68l.21-2.02h-12.64l-.25,2.02ZM162.87,30.92h-12.6l-.25,1.89h12.6l.25-1.89ZM161.27,19.24h-7.52l1.01,3.49h5.04l1.47-3.49Z"/>
        <path class="cls-1" d="M194.79,15.33l-.55,3.11h-4.91l1.22,2.98h-3.91l-1.09-2.98h-2.23c-1.04,1.57-1.96,2.9-2.77,3.99h-4.75c2.77-3.64,4.82-6.69,6.13-9.16h4.49l-.59,1.09-.63.97h9.58ZM191.17,21.34h4.41l.5,1.97h10c1.29,0,2.23.22,2.83.67.6.45.9,1.13.9,2.06,0,.31-.01.55-.04.71l-.46,3.95h-3.99l.42-4.03h-24.86l-.55,4.07h-3.91l.5-4.07c.14-1.2.49-2.06,1.05-2.58.56-.52,1.41-.78,2.56-.78h11.05l-.42-1.97ZM180.88,31.92c.14-1.18.51-2,1.11-2.48.6-.48,1.55-.71,2.84-.71h16.51c1.15,0,1.99.2,2.52.61.53.41.8,1.07.8,2,0,.34-.01.59-.04.76l-.63,5.46h-19.78l-.25,2.14h17.85c1.15,0,2,.21,2.54.63s.82,1.12.82,2.1c0,.34-.01.6-.04.8l-.71,5.88h-25.58l2.06-17.18ZM200.67,45.83l.29-2.94h-17.39l-.38,2.94h17.47ZM200.54,31.92h-15.67l-.29,2.48h15.67l.29-2.48ZM202.47,13.15l-1.18,2.18h10.16l-.34,3.11h-5.17l1.3,3.4h-3.86l-1.22-3.4h-2.69l-1.55,2.44h-4.49c1.4-1.99,2.98-4.56,4.75-7.73h4.28Z"/>
        <path class="cls-1" d="M229.06,43.22c-2.41.67-4.66,1.26-6.76,1.76-1.88.45-4.13.91-6.76,1.39l.5-3.95,2.18-.42,2.1-.38,1.18-10.46h-4.33l.42-3.61h4.33l.97-8.27h-4.75l.42-3.65h12.68l-.42,3.65h-3.99l-.97,8.27h4.07l-.42,3.61h-4.07l-1.13,9.53c1.23-.28,2.95-.73,5.17-1.34l-.42,3.86ZM251.82,45.36l-.42,3.61h-23.86l.42-3.61h9.58l.55-4.62h-7.52l.42-3.53h7.48l.42-3.61h-7.98l1.93-16.04c.17-.92.5-1.65.99-2.18.49-.53,1.17-.8,2.04-.8h13.4c1.06,0,1.89.36,2.48,1.07s.81,1.67.67,2.88l-1.72,15.08h-7.94l-.42,3.61h8.44l-.42,3.53h-8.4l-.55,4.62h10.42ZM239.77,25.75h-4.2l-.5,4.33h4.24l.46-4.33ZM240.65,18.11h-4.2l-.5,4.28h4.2l.5-4.28ZM243.63,25.75l-.46,4.33h4.16l.46-4.33h-4.16ZM248.17,22.39l.5-4.28h-4.16l-.5,4.28h4.16Z"/>
        <path class="cls-1" d="M272.02,26.88c1.37,0,2.31.36,2.81,1.09.25.36.38.81.38,1.34,0,.36-.07.8-.21,1.3l-1.3,5.46h-3.57l1.43-5.5h-2.77l-1.47,16.04c-.11.92-.43,1.62-.97,2.08-.53.46-1.2.69-2.02.69-.36,0-.74-.04-1.13-.13-1.48-.34-2.88-.81-4.2-1.43l.46-3.7c1.15.53,2.27.95,3.36,1.26.06.03.15.04.29.04.28,0,.46-.18.55-.55l1.39-14.32h-5.96l.46-3.7h5.63l-3.32-6.38h3.86l1.72,3.23,3.74-5.38h-10.12l.42-3.57h11.3c.73,0,1.34.13,1.85.38s.85.59,1.05,1.01c.11.22.17.52.17.88,0,.76-.28,1.5-.84,2.23l-5.67,7.6h2.69ZM290.55,49.65c-2.04-2.69-4.33-5.4-6.85-8.15-1.74,3.11-4.4,5.92-7.98,8.44l-3.86-2.06c3.11-1.93,5.54-4.05,7.31-6.34,1.85-2.46,3-5.43,3.44-8.9l.63-5.17h3.7l-.67,5.75c-.2,1.79-.57,3.44-1.13,4.96,2.97,2.77,6.05,6.05,9.24,9.83l-3.82,1.64ZM290.88,22.01c1.01,0,1.74.24,2.21.71.46.48.69,1.22.69,2.23,0,.42-.01.76-.04,1.01l-1.55,14.11h-3.7l1.6-14.53h-9.58l-1.47,14.24h-3.7l1.51-14.28c.14-1.29.46-2.19.97-2.71.5-.52,1.36-.78,2.56-.78h2.44l1.01-3.61h-6.64l.42-3.61h17.93l-.42,3.61h-7.27l-1.01,3.61h4.03Z"/>
        <path class="cls-1" d="M315.03,44.15c-1.85.59-3.88,1.13-6.11,1.62-2.23.49-5.01,1.07-8.34,1.74l.46-4.07c1.65-.31,3.96-.81,6.93-1.51,2.66-.64,5.14-1.3,7.43-1.97l-.38,4.2ZM314.91,36.67c-1.37.25-2.2.39-2.48.42l-2.94.5c-1.68.28-3.56.53-5.63.76-.53.06-.98,0-1.34-.19-.36-.18-.63-.46-.8-.82-.11-.22-.17-.48-.17-.76,0-.53.21-1.05.63-1.55,1.62-1.79,3.39-3.99,5.29-6.59-.73.14-1.41.22-2.06.25-.95.11-1.61.17-1.97.17-.5,0-.92-.08-1.26-.25-.67-.36-1.01-.9-1.01-1.6,0-.53.2-1.04.59-1.51,1.65-2.27,3.05-4.26,4.2-5.96,1.65-2.52,2.88-4.55,3.7-6.09h4.83c-2.21,3.86-4.66,7.57-7.35,11.13,1.51-.17,2.66-.32,3.44-.46.53-.73,1.33-1.92,2.39-3.57h4.24c-1.04,1.82-2.56,4.19-4.58,7.1-1.4,1.99-2.95,4.06-4.66,6.22l3.7-.55c1.65-.25,2.9-.5,3.74-.76l-.5,4.12ZM326.2,13.44c-.7,1.96-1.3,3.51-1.81,4.66h7.31c1.6,0,2.73.34,3.4,1.01s.94,1.76.8,3.28l-.34,2.94-.29,2.73c-.11.95-.23,1.97-.36,3.04s-.26,2.22-.4,3.42l-1.18,9.07c-.03.25-.11.85-.25,1.81-.14.95-.37,1.71-.69,2.27-.32.56-.78.98-1.37,1.26-.59.31-1.33.46-2.23.46-.67,0-1.36-.07-2.06-.21-.7-.14-1.64-.36-2.81-.67-1.15-.31-2.44-.71-3.86-1.22l.42-4.12c3.25,1.04,5.73,1.69,7.43,1.97.11.03.25.04.42.04s.29-.06.36-.17c.07-.11.13-.34.19-.67.25-1.29.57-3.35.97-6.17l1.18-8.95.46-4.12.29-3.11h-9.11c-1.26,2.6-2.34,4.79-3.23,6.55h-4.45c1.37-2.46,2.66-5.01,3.86-7.64,1.09-2.35,2.11-4.84,3.07-7.48h4.28ZM323.89,28.31l2.27,9.45h-3.91l-2.18-9.45h3.82Z"/>
      </g>
      <g>
        <path class="cls-1" d="M372.55,26.41l-1.94,16.2h-4.14l2.45-20.05h9.04c4.97,0,7.45,2.28,7.45,6.84,0,.55-.04,1.15-.11,1.8l-1.4,11.41h-4.14l1.4-11.52c.05-.48.07-.82.07-1.01,0-2.45-1.25-3.67-3.74-3.67h-4.93Z"/>
        <path class="cls-1" d="M391.13,22.56h4.14l-2.59,21.38c-.26,2.14-.97,3.73-2.12,4.79-1.15,1.06-2.86,1.58-5.11,1.58-1.2,0-2.21-.06-3.02-.18l.43-3.89c.84.1,1.79.14,2.84.14.89,0,1.57-.26,2.03-.77.47-.52.76-1.29.88-2.32l2.52-20.74ZM395.85,19.86h-4.72l.54-4.32h4.72l-.54,4.32Z"/>
        <path class="cls-1" d="M398.22,31.23c.62-5.78,3.82-8.68,9.58-8.68h8.6l-2.63,21.46c-.26,1.94-1.06,3.48-2.39,4.61s-3.34,1.69-6.03,1.69c-2.38,0-4.62-.1-6.73-.29l.43-3.74c2.3.22,4.49.32,6.55.32,1.32,0,2.29-.22,2.92-.65.62-.43,1-1.12,1.12-2.05l.14-1.3h-4.5c-4.97,0-7.45-2.32-7.45-6.95,0-.53.04-1.09.11-1.69l.29-2.74ZM410.25,38.83l1.55-12.49h-4.46c-2.95,0-4.6,1.6-4.93,4.79l-.32,2.95c-.05.48-.07.8-.07.97,0,2.52,1.25,3.78,3.74,3.78h4.5Z"/>
        <path class="cls-1" d="M418.45,42.61l3.38-27.76h4.14l-3.38,27.76h-4.14Z"/>
        <path class="cls-1" d="M448.69,22.56l-14.72,27.61h-4.39l4.46-8.39-6.3-19.22h4.5l4.36,14.26h.11l7.6-14.26h4.39Z"/>
        <path class="cls-1" d="M470.37,22.56l-14.72,27.61h-4.39l4.46-8.39-6.3-19.22h4.5l4.36,14.26h.11l7.6-14.26h4.39Z"/>
        <path class="cls-1" d="M470.8,39.62c.1-.62.34-1.11.74-1.46.4-.35.89-.52,1.49-.52h1.04c.6,0,1.07.17,1.42.52.35.35.47.83.38,1.46l-.14,1.08c-.1.65-.35,1.15-.76,1.51-.41.36-.91.54-1.51.54h-1.04c-.6,0-1.07-.18-1.4-.54-.34-.36-.46-.86-.36-1.51l.14-1.08Z"/>
        <path class="cls-1" d="M489.73,26.41c-1.49,0-2.62.4-3.4,1.19-.78.79-1.27,1.97-1.46,3.53l-.36,3.1c-.05.48-.07.83-.07,1.04,0,2.42,1.24,3.64,3.71,3.64h1.4c1.08,0,2.89-.11,5.44-.32l-.4,3.85c-2.11.22-3.92.32-5.44.32h-1.48c-4.97,0-7.45-2.26-7.45-6.77,0-.6.04-1.22.11-1.87l.36-2.88c.36-2.88,1.32-5.05,2.88-6.5,1.56-1.45,3.77-2.18,6.62-2.18h1.33l5.04.07-.47,3.82-6.37-.04Z"/>
        <path class="cls-1" d="M504.2,26.41l-1.94,16.2h-4.14l2.45-20.05h9.04c4.97,0,7.45,2.28,7.45,6.84,0,.55-.04,1.15-.11,1.8l-1.4,11.41h-4.14l1.4-11.52c.05-.48.07-.82.07-1.01,0-2.45-1.25-3.67-3.74-3.67h-4.93Z"/>
      </g>
      <line class="cls-2" x1="351.12" y1="50.38" x2="353.91" y2="18.5"/>
    </g>
  </g>
</svg>