<?xml version="1.0" encoding="UTF-8"?>
<svg id="_图层_2" data-name="图层 2" xmlns="http://www.w3.org/2000/svg" viewBox="0 0 76.08 64.89">
  <defs>
    <style>
      .cls-1 {
        fill: #314158;
      }
    </style>
  </defs>
  <g id="_图层_1-2" data-name="图层 1">
    <path class="cls-1" d="M34.23,40.32v-6.1M34.23,50.02v-6.08M34.23,20.95v-6.1M34.23,30.63v-6.08M26.18,0c-3.7,0-6.83,2.52-7.77,5.94-.97-.07-1.96.01-2.93.28-3.56.95-6.12,3.96-6.53,7.54-2.34,1.46-3.8,4.04-3.8,6.86,0,.49.05.98.13,1.45-3.29,2.41-5.29,6.27-5.29,10.38s2,7.98,5.29,10.39c-.08.47-.13.96-.13,1.45,0,2.82,1.46,5.4,3.8,6.86.41,3.58,2.97,6.6,6.53,7.54.75.2,1.52.3,2.27.3.22,0,.44-.03.66-.04.93,3.43,4.05,5.96,7.77,5.96,4.44,0,8.05-3.61,8.05-8.05V8.05c0-4.44-3.61-8.05-8.05-8.05ZM30.65,13.56h-.01c0,2.42-2.04,4.46-4.46,4.46-.99,0-1.8.8-1.8,1.8s.8,1.8,1.8,1.8c1.64,0,3.18-.5,4.46-1.35v24.35c-1.28-.86-2.8-1.35-4.46-1.35-.99,0-1.8.8-1.8,1.8s.8,1.8,1.8,1.8c2.46,0,4.46,2,4.46,4.46v5.49c0,2.46-2,4.46-4.46,4.46-2.07,0-3.82-1.43-4.32-3.36,1.49-.79,2.77-1.98,3.63-3.53.48-.87.17-1.96-.7-2.45-.87-.48-1.96-.17-2.45.7-1.17,2.11-3.62,3.15-5.95,2.54-2.34-.62-3.95-2.73-3.92-5.15.01-.72-.42-1.38-1.07-1.67-1.62-.71-2.67-2.33-2.67-4.1s1.05-3.39,2.67-4.1c.91-.4,1.33-1.46.93-2.37-.4-.91-1.46-1.33-2.37-.93-1.29.56-2.38,1.44-3.18,2.52-1.99-1.75-3.18-4.28-3.18-6.96s1.2-5.2,3.17-6.96c.82,1.08,1.91,1.97,3.2,2.54.23.1.48.15.72.15.7,0,1.35-.4,1.64-1.07.4-.91-.01-1.97-.92-2.37-1.62-.71-2.67-2.33-2.67-4.12s1.05-3.39,2.67-4.1c.66-.29,1.08-.95,1.07-1.67-.03-2.42,1.58-4.53,3.92-5.15,2.33-.62,4.78.43,5.95,2.54.48.87,1.58,1.18,2.45.7.87-.48,1.18-1.58.7-2.45-.87-1.55-2.13-2.77-3.62-3.54.5-1.92,2.23-3.34,4.3-3.34,2.46,0,4.46,2,4.46,4.46v5.53ZM18.68,24.11c-.92-.37-1.97.08-2.34,1-.37.92.08,1.97,1,2.34,2.03.8,3.4,2.82,3.4,4.99s-1.37,4.18-3.4,4.99c-.92.37-1.37,1.41-1,2.34.29.7.96,1.13,1.67,1.13.22,0,.45-.04.66-.13,3.44-1.37,5.66-4.64,5.66-8.33,0-3.69-2.23-6.95-5.66-8.32h0ZM70.15,26.51c-3.27,0-5.93,2.65-5.93,5.93s2.65,5.93,5.93,5.93,5.93-2.65,5.93-5.93-2.65-5.93-5.93-5.93ZM70.15,34.77c-1.29,0-2.33-1.04-2.33-2.33s1.04-2.33,2.33-2.33,2.33,1.04,2.33,2.33-1.04,2.33-2.33,2.33ZM58.65,45.79c-3.27,0-5.93,2.65-5.93,5.93s2.65,5.93,5.93,5.93,5.93-2.65,5.93-5.93-2.65-5.93-5.93-5.93ZM58.65,54.05c-1.29,0-2.33-1.04-2.33-2.33s1.04-2.33,2.33-2.33,2.33,1.04,2.33,2.33-1.04,2.33-2.33,2.33ZM58.65,7.79c-3.27,0-5.93,2.65-5.93,5.93s2.65,5.93,5.93,5.93,5.93-2.65,5.93-5.93-2.65-5.93-5.93-5.93ZM58.65,16.05c-1.29,0-2.33-1.04-2.33-2.33s1.04-2.33,2.33-2.33,2.33,1.04,2.33,2.33-1.04,2.33-2.33,2.33ZM41.85,19.52h3.59v-9.92h-3.59v9.92ZM43.65,53.01c-3.27,0-5.93,2.65-5.93,5.93s2.65,5.93,5.93,5.93,5.93-2.65,5.93-5.93-2.65-5.93-5.93-5.93ZM43.65,61.27c-1.29,0-2.33-1.04-2.33-2.33s1.04-2.33,2.33-2.33,2.33,1.04,2.33,2.33-1.04,2.33-2.33,2.33ZM43.65.01c-3.27,0-5.93,2.65-5.93,5.93s2.65,5.93,5.93,5.93,5.93-2.65,5.93-5.93S46.92.01,43.65.01ZM43.65,8.27c-1.29,0-2.33-1.04-2.33-2.33s1.04-2.33,2.33-2.33,2.33,1.04,2.33,2.33-1.04,2.33-2.33,2.33ZM43.65,17.01c-3.27,0-5.93,2.65-5.93,5.93s2.65,5.93,5.93,5.93,5.93-2.65,5.93-5.93-2.65-5.93-5.93-5.93ZM43.65,25.27c-1.29,0-2.33-1.04-2.33-2.33s1.04-2.33,2.33-2.33,2.33,1.04,2.33,2.33-1.04,2.33-2.33,2.33ZM55.65,26.44c-3.27,0-5.93,2.65-5.93,5.93s2.65,5.93,5.93,5.93,5.93-2.65,5.93-5.93-2.65-5.93-5.93-5.93ZM55.65,34.7c-1.29,0-2.33-1.04-2.33-2.33s1.04-2.33,2.33-2.33,2.33,1.04,2.33,2.33-1.04,2.33-2.33,2.33ZM66.34,30.57h-7v3.6h7v-3.6ZM55.24,9.81l-7-4-1.79,3.13,7,4,1.79-3.13ZM55.21,17.79l-1.81-3.11-6.96,4.06,1.81,3.11,6.96-4.06ZM55.21,55.11l-1.81-3.11-6.96,4.06,1.81,3.11,6.96-4.06ZM53.75,29.96l-4.95-4.95-2.54,2.55,4.95,4.95,2.54-2.55ZM41.89,54.52h3.59v-28.16h-3.59v28.16ZM55.65,38.3c-.6,0-1.17-.09-1.72-.25l2.03,11.52,3.54-.62-1.93-10.96c-.6.21-1.25.33-1.93.33ZM66.34,36.98l-6.55,11.35,3.12,1.8,6.8-11.77c-1.28-.1-2.44-.6-3.36-1.37ZM68.76,26.69l-5.86-10.14-3.12,1.8,5.9,10.21c.79-.91,1.86-1.58,3.08-1.87Z"/>
  </g>
</svg>