<?xml version="1.0" encoding="UTF-8"?>
<svg id="_图层_2" data-name="图层 2" xmlns="http://www.w3.org/2000/svg" viewBox="0 0 264.81 64.89">
  <defs>
    <style>
      .cls-1 {
        fill: #314158;
      }
    </style>
  </defs>
  <g id="_图层_1-2" data-name="图层 1">
    <g>
      <path class="cls-1" d="M34.23,40.32v-6.1M34.23,50.02v-6.08M34.23,20.95v-6.1M34.23,30.63v-6.08M26.18,0c-3.7,0-6.83,2.52-7.77,5.94-.97-.07-1.96.01-2.93.28-3.56.95-6.12,3.96-6.53,7.54-2.34,1.46-3.8,4.04-3.8,6.86,0,.49.05.98.13,1.45-3.29,2.41-5.29,6.27-5.29,10.38s2,7.98,5.29,10.39c-.08.47-.13.96-.13,1.45,0,2.82,1.46,5.4,3.8,6.86.41,3.58,2.97,6.6,6.53,7.54.75.2,1.52.3,2.27.3.22,0,.44-.03.66-.04.93,3.43,4.05,5.96,7.77,5.96,4.44,0,8.05-3.61,8.05-8.05V8.05c0-4.44-3.61-8.05-8.05-8.05ZM30.65,13.56h-.01c0,2.42-2.04,4.46-4.46,4.46-.99,0-1.8.8-1.8,1.8s.8,1.8,1.8,1.8c1.64,0,3.18-.5,4.46-1.35v24.35c-1.28-.86-2.8-1.35-4.46-1.35-.99,0-1.8.8-1.8,1.8s.8,1.8,1.8,1.8c2.46,0,4.46,2,4.46,4.46v5.49c0,2.46-2,4.46-4.46,4.46-2.07,0-3.82-1.43-4.32-3.36,1.49-.79,2.77-1.98,3.63-3.53.48-.87.17-1.96-.7-2.45-.87-.48-1.96-.17-2.45.7-1.17,2.11-3.62,3.15-5.95,2.54-2.34-.62-3.95-2.73-3.92-5.15.01-.72-.42-1.38-1.07-1.67-1.62-.71-2.67-2.33-2.67-4.1s1.05-3.39,2.67-4.1c.91-.4,1.33-1.46.93-2.37-.4-.91-1.46-1.33-2.37-.93-1.29.56-2.38,1.44-3.18,2.52-1.99-1.75-3.18-4.28-3.18-6.96s1.2-5.2,3.17-6.96c.82,1.08,1.91,1.97,3.2,2.54.23.1.48.15.72.15.7,0,1.35-.4,1.64-1.07.4-.91-.01-1.97-.92-2.37-1.62-.71-2.67-2.33-2.67-4.12s1.05-3.39,2.67-4.1c.66-.29,1.08-.95,1.07-1.67-.03-2.42,1.58-4.53,3.92-5.15,2.33-.62,4.78.43,5.95,2.54.48.87,1.58,1.18,2.45.7.87-.48,1.18-1.58.7-2.45-.87-1.55-2.13-2.77-3.62-3.54.5-1.92,2.23-3.34,4.3-3.34,2.46,0,4.46,2,4.46,4.46v5.53ZM18.68,24.11c-.92-.37-1.97.08-2.34,1-.37.92.08,1.97,1,2.34,2.03.8,3.4,2.82,3.4,4.99s-1.37,4.18-3.4,4.99c-.92.37-1.37,1.41-1,2.34.29.7.96,1.13,1.67,1.13.22,0,.45-.04.66-.13,3.44-1.37,5.66-4.64,5.66-8.33,0-3.69-2.23-6.95-5.66-8.32h0ZM70.15,26.51c-3.27,0-5.93,2.65-5.93,5.93s2.65,5.93,5.93,5.93,5.93-2.65,5.93-5.93-2.65-5.93-5.93-5.93ZM70.15,34.77c-1.29,0-2.33-1.04-2.33-2.33s1.04-2.33,2.33-2.33,2.33,1.04,2.33,2.33-1.04,2.33-2.33,2.33ZM58.65,45.79c-3.27,0-5.93,2.65-5.93,5.93s2.65,5.93,5.93,5.93,5.93-2.65,5.93-5.93-2.65-5.93-5.93-5.93ZM58.65,54.05c-1.29,0-2.33-1.04-2.33-2.33s1.04-2.33,2.33-2.33,2.33,1.04,2.33,2.33-1.04,2.33-2.33,2.33ZM58.65,7.79c-3.27,0-5.93,2.65-5.93,5.93s2.65,5.93,5.93,5.93,5.93-2.65,5.93-5.93-2.65-5.93-5.93-5.93ZM58.65,16.05c-1.29,0-2.33-1.04-2.33-2.33s1.04-2.33,2.33-2.33,2.33,1.04,2.33,2.33-1.04,2.33-2.33,2.33ZM41.85,19.52h3.59v-9.92h-3.59v9.92ZM43.65,53.01c-3.27,0-5.93,2.65-5.93,5.93s2.65,5.93,5.93,5.93,5.93-2.65,5.93-5.93-2.65-5.93-5.93-5.93ZM43.65,61.27c-1.29,0-2.33-1.04-2.33-2.33s1.04-2.33,2.33-2.33,2.33,1.04,2.33,2.33-1.04,2.33-2.33,2.33ZM43.65.01c-3.27,0-5.93,2.65-5.93,5.93s2.65,5.93,5.93,5.93,5.93-2.65,5.93-5.93S46.92.01,43.65.01ZM43.65,8.27c-1.29,0-2.33-1.04-2.33-2.33s1.04-2.33,2.33-2.33,2.33,1.04,2.33,2.33-1.04,2.33-2.33,2.33ZM43.65,17.01c-3.27,0-5.93,2.65-5.93,5.93s2.65,5.93,5.93,5.93,5.93-2.65,5.93-5.93-2.65-5.93-5.93-5.93ZM43.65,25.27c-1.29,0-2.33-1.04-2.33-2.33s1.04-2.33,2.33-2.33,2.33,1.04,2.33,2.33-1.04,2.33-2.33,2.33ZM55.65,26.44c-3.27,0-5.93,2.65-5.93,5.93s2.65,5.93,5.93,5.93,5.93-2.65,5.93-5.93-2.65-5.93-5.93-5.93ZM55.65,34.7c-1.29,0-2.33-1.04-2.33-2.33s1.04-2.33,2.33-2.33,2.33,1.04,2.33,2.33-1.04,2.33-2.33,2.33ZM66.34,30.57h-7v3.6h7v-3.6ZM55.24,9.81l-7-4-1.79,3.13,7,4,1.79-3.13ZM55.21,17.79l-1.81-3.11-6.96,4.06,1.81,3.11,6.96-4.06ZM55.21,55.11l-1.81-3.11-6.96,4.06,1.81,3.11,6.96-4.06ZM53.75,29.96l-4.95-4.95-2.54,2.55,4.95,4.95,2.54-2.55ZM41.89,54.52h3.59v-28.16h-3.59v28.16ZM55.65,38.3c-.6,0-1.17-.09-1.72-.25l2.03,11.52,3.54-.62-1.93-10.96c-.6.21-1.25.33-1.93.33ZM66.34,36.98l-6.55,11.35,3.12,1.8,6.8-11.77c-1.28-.1-2.44-.6-3.36-1.37ZM68.76,26.69l-5.86-10.14-3.12,1.8,5.9,10.21c.79-.91,1.86-1.58,3.08-1.87Z"/>
      <g>
        <path class="cls-1" d="M196.47,55.82c-.07.33-.19.57-.35.71s-.41.21-.76.21h-.42c-.64,0-.9-.31-.78-.92l1.06-6.68c.07-.43,0-.76-.19-.99s-.46-.35-.82-.35h-.4c-.61,0-1.15.26-1.64.79l-1.11,7.23c-.07.33-.19.57-.35.71s-.41.21-.76.21h-.42c-.64,0-.9-.31-.78-.92l1.46-9.35c.04-.27.13-.47.28-.59s.36-.18.64-.18h.08c.49,0,.76.24.82.73l.02.22c.82-.72,1.67-1.08,2.56-1.08h.7c.85,0,1.46.32,1.86.96s.52,1.43.38,2.38l-1.09,6.9Z"/>
        <path class="cls-1" d="M200.29,46.62c.1-.61.46-.92,1.07-.92h.42c.63,0,.9.31.8.92l-1.66,10.56c-.17,1.06-.58,1.9-1.23,2.52s-1.46.99-2.44,1.12c-.29.03-.5-.03-.64-.18s-.19-.36-.15-.64l.04-.15c.08-.41.18-.69.29-.84s.38-.32.78-.51c.6-.27.95-.71,1.04-1.32l1.66-10.56ZM200.91,42.66c.1-.61.46-.92,1.08-.92h.42c.63,0,.9.31.8.92l-.17.94c-.1.62-.46.93-1.07.93h-.42c-.63,0-.9-.31-.8-.93l.16-.94Z"/>
        <path class="cls-1" d="M211.99,45.7c.26,0,.44.06.54.19s.13.33.1.6l-1.78,11.24c-.14.87-.57,1.61-1.3,2.23s-1.62.92-2.69.92h-.71c-.52,0-.99-.08-1.41-.22s-.75-.34-1-.59-.44-.5-.57-.77-.21-.54-.22-.81c-.01-.24.04-.45.15-.62s.26-.26.44-.26h.62c.18,0,.33.02.46.07s.22.09.27.14.13.13.24.27.19.23.23.28c.26.28.61.42,1.05.42h.52c.42,0,.78-.12,1.08-.36s.49-.59.56-1.04l.19-1.18c-.62.42-1.25.63-1.88.63h-1.02c-.55,0-1.02-.16-1.39-.49s-.63-.76-.76-1.29-.14-1.11-.03-1.73l.65-4.26c.14-.96.51-1.78,1.13-2.47s1.35-1.04,2.19-1.04h.92c.87,0,1.59.35,2.17,1.06l.12-.28c.11-.24.24-.41.4-.51s.37-.15.63-.15h.09ZM207.45,54.64c.28,0,.57-.07.88-.21s.58-.33.82-.57l.84-5.32c-.34-.49-.81-.73-1.39-.73h-.52c-.34,0-.65.13-.93.39s-.46.6-.52,1.03l-.64,3.98c-.07.45,0,.8.2,1.05s.47.38.81.38h.46Z"/>
        <path class="cls-1" d="M215.6,42.66c.1-.61.46-.92,1.08-.92h.42c.63,0,.9.31.8.92l-2.08,13.16c-.07.33-.19.57-.35.71s-.41.21-.76.21h-.42c-.64,0-.9-.31-.78-.92l2.08-13.16Z"/>
        <path class="cls-1" d="M221.37,60.02c-.15.31-.33.53-.54.66s-.48.2-.82.2h-.42c-.29,0-.49-.08-.59-.25s-.09-.38.04-.65l1.58-3.3-1.66-10.02c-.05-.31,0-.54.15-.71s.37-.25.67-.25h.44c.34,0,.6.07.76.21s.28.38.35.71l1.04,6.44,3.09-6.49c.15-.31.33-.53.53-.66s.47-.2.81-.2h.32c.31,0,.53.1.65.29s.12.44-.01.75l-6.38,13.28Z"/>
        <path class="cls-1" d="M231.14,60.02c-.15.31-.33.53-.54.66s-.48.2-.82.2h-.42c-.29,0-.49-.08-.59-.25s-.09-.38.04-.65l1.58-3.3-1.66-10.02c-.05-.31,0-.54.15-.71s.37-.25.67-.25h.44c.34,0,.6.07.76.21s.28.38.35.71l1.04,6.44,3.09-6.49c.15-.31.33-.53.53-.66s.47-.2.81-.2h.32c.31,0,.53.1.65.29s.12.44-.01.75l-6.38,13.28Z"/>
        <path class="cls-1" d="M236.66,54.85c.05-.32.15-.55.32-.69s.42-.21.75-.21h.42c.63,0,.9.3.8.9l-.16.97c-.1.61-.46.92-1.08.92h-.44c-.62,0-.88-.31-.78-.92l.17-.97Z"/>
        <path class="cls-1" d="M246.82,45.58c.97,0,1.7.32,2.18.96s.66,1.39.52,2.27c-.04.27-.13.49-.29.66s-.32.26-.51.26h-.96c-.14,0-.29-.06-.43-.18s-.2-.27-.18-.45c.07-.44,0-.77-.22-.97s-.51-.31-.9-.31h-.46c-.36,0-.69.12-.97.37s-.46.59-.52,1.03l-.64,4.04c-.07.44,0,.78.21,1.03s.49.37.85.37h.52c.36,0,.67-.1.94-.31s.43-.49.5-.83l.02-.12c.05-.22.15-.38.31-.49s.34-.16.53-.16h.7c.25,0,.44.08.58.23s.19.35.15.59l-.02.13c-.17.91-.58,1.67-1.24,2.27s-1.46.9-2.42.9h-1.12c-.69,0-1.27-.16-1.73-.47s-.79-.72-.97-1.21-.22-1.04-.13-1.64l.73-4.58c.15-.93.58-1.73,1.29-2.39s1.58-.99,2.61-.99h1.07Z"/>
        <path class="cls-1" d="M258.28,55.82c-.07.33-.19.57-.35.71s-.41.21-.76.21h-.42c-.64,0-.9-.31-.78-.92l1.06-6.68c.07-.43,0-.76-.19-.99s-.46-.35-.82-.35h-.4c-.61,0-1.15.26-1.64.79l-1.11,7.23c-.07.33-.19.57-.35.71s-.41.21-.76.21h-.42c-.64,0-.9-.31-.78-.92l1.46-9.35c.04-.27.13-.47.28-.59s.36-.18.64-.18h.08c.49,0,.76.24.82.73l.02.22c.82-.72,1.67-1.08,2.56-1.08h.7c.85,0,1.46.32,1.86.96s.52,1.43.38,2.38l-1.09,6.9Z"/>
      </g>
      <g>
        <path class="cls-1" d="M92.17,8.95c.1-.8.32-1.37.66-1.71.34-.34.88-.51,1.62-.51h3.75c1.44,0,2.16.72,2.16,2.16,0,.26,0,.46-.03.6l-2.25,19.83c-.14,1.7-1.06,2.46-2.76,2.28-1.2-.12-2.04-.28-2.52-.48l.27-2.61c.7.24,1.31.4,1.83.48.08.02.17.03.27.03.16,0,.26-.04.31-.14.05-.09.09-.25.14-.49l.66-6.06h-3.12c-.32,2.32-.65,4.21-.98,5.66s-.79,2.75-1.37,3.92l-2.43-.9c.56-1.08,1.04-2.45,1.46-4.11.41-1.66.72-3.52.95-5.58l1.38-12.36ZM96.97,15.91h-3l-.48,3.96h3.06l.42-3.96ZM97.69,9.37h-2.88l-.51,4.08h2.94l.45-4.08ZM112.57,12.49c-1.52,3.12-2.66,5.41-3.42,6.87.78,1.88,1.55,3.86,2.31,5.94l1.41-10.83h2.58l-2.07,16.86h-11.52c-1.48,0-2.22-.64-2.22-1.92,0-.24,0-.43.03-.57l1.71-14.28h2.58l-1.35,10.86c1.82-2.6,3.18-4.67,4.08-6.21-1.2-2.92-2.16-5.19-2.88-6.81h2.34c.36.86.69,1.6.99,2.22.3.66.6,1.37.9,2.13.76-1.46,1.46-2.88,2.1-4.26h2.43ZM110.17,8.53h5.76l-.27,2.64h-14.55l.3-2.64h5.61l-.87-2.7h3.09l.93,2.7ZM102.22,28.69h8.82l.36-2.82-2.01.48-.54-1.5-.3-.81-.81-2.13c-.9,1.54-1.86,3.03-2.88,4.47l-2.28-.6-.36,2.91Z"/>
        <path class="cls-1" d="M127.48,25.99c-2.28.86-5.15,1.72-8.61,2.58l.39-2.82c.58-.12,1.42-.34,2.52-.66l1.11-9.96h-2.73l.33-2.64h2.7l.69-6.15h2.79l-.72,6.15h2.28l-.33,2.64h-2.25l-1.02,9.15c1.24-.36,2.27-.69,3.09-.99l-.24,2.7ZM143.05,25.72h-3.24l-.3,2.91c-.02.06-.03.15-.03.27,0,.24.17.36.51.36h1.44c1.44,0,2.71-.31,3.81-.93l-.3,2.7c-.4.22-.94.39-1.63.51s-1.41.18-2.14.18h-2.37c-1.5.02-2.16-.78-1.98-2.4l.39-3.6h-2.55c-.58,1.42-1.49,2.73-2.73,3.93-1.18,1.18-2.36,2.02-3.54,2.52l-2.28-1.68c1.26-.54,2.39-1.22,3.41-2.05,1.01-.83,1.77-1.74,2.29-2.71h-3.12l.9-7.29c.1-.68.33-1.18.69-1.5.36-.32.91-.48,1.65-.48h9.81c1.46,0,2.19.64,2.19,1.92,0,.1-.02.29-.06.57l-.81,6.78ZM145.12,7.99l-.3,2.34h-2.1l-1.08,2.49h4.14l-.27,2.37h-16.59l.27-2.37h3.66l-.69-2.49h-2.19l.27-2.34h5.76l-.66-2.01h2.94l.69,2.01h6.15ZM131.56,23.5h9.06l.15-1.44h-9.03l-.18,1.44ZM141.19,18.67h-9l-.18,1.35h9l.18-1.35ZM140.05,10.33h-5.37l.72,2.49h3.6l1.05-2.49Z"/>
        <path class="cls-1" d="M163.99,7.54l-.39,2.22h-3.51l.87,2.13h-2.79l-.78-2.13h-1.59c-.74,1.12-1.4,2.07-1.98,2.85h-3.39c1.98-2.6,3.44-4.78,4.38-6.54h3.21l-.42.78-.45.69h6.84ZM161.41,11.83h3.15l.36,1.41h7.14c.92,0,1.59.16,2.03.48.43.32.64.81.64,1.47,0,.22,0,.39-.03.51l-.33,2.82h-2.85l.3-2.88h-17.76l-.39,2.91h-2.79l.36-2.91c.1-.86.35-1.47.75-1.85.4-.37,1.01-.55,1.83-.55h7.89l-.3-1.41ZM154.06,19.39c.1-.84.37-1.43.79-1.77.43-.34,1.11-.51,2.03-.51h11.79c.82,0,1.42.15,1.8.43.38.29.57.77.57,1.43,0,.24-.01.42-.03.54l-.45,3.9h-14.13l-.18,1.53h12.75c.82,0,1.42.15,1.81.45.39.3.58.8.58,1.5,0,.24,0,.43-.03.57l-.51,4.2h-18.27l1.47-12.27ZM168.19,29.32l.21-2.1h-12.42l-.27,2.1h12.48ZM168.1,19.39h-11.19l-.21,1.77h11.19l.21-1.77ZM169.48,5.98l-.84,1.56h7.26l-.24,2.22h-3.69l.93,2.43h-2.76l-.87-2.43h-1.92l-1.11,1.74h-3.21c1-1.42,2.13-3.26,3.39-5.52h3.06Z"/>
        <path class="cls-1" d="M188.47,27.46c-1.72.48-3.33.9-4.83,1.26-1.34.32-2.95.65-4.83.99l.36-2.82,1.56-.3,1.5-.27.84-7.47h-3.09l.3-2.58h3.09l.69-5.91h-3.39l.3-2.61h9.06l-.3,2.61h-2.85l-.69,5.91h2.91l-.3,2.58h-2.91l-.81,6.81c.88-.2,2.11-.52,3.69-.96l-.3,2.76ZM204.73,28.99l-.3,2.58h-17.04l.3-2.58h6.84l.39-3.3h-5.37l.3-2.52h5.34l.3-2.58h-5.7l1.38-11.46c.12-.66.35-1.18.71-1.56.35-.38.83-.57,1.46-.57h9.57c.76,0,1.35.25,1.77.77.42.51.58,1.2.48,2.05l-1.23,10.77h-5.67l-.3,2.58h6.03l-.3,2.52h-6l-.39,3.3h7.44ZM196.12,14.98h-3l-.36,3.09h3.03l.33-3.09ZM196.75,9.52h-3l-.36,3.06h3l.36-3.06ZM198.88,14.98l-.33,3.09h2.97l.33-3.09h-2.97ZM202.12,12.58l.36-3.06h-2.97l-.36,3.06h2.97Z"/>
        <path class="cls-1" d="M219.16,15.79c.98,0,1.65.26,2.01.78.18.26.27.58.27.96,0,.26-.05.57-.15.93l-.93,3.9h-2.55l1.02-3.93h-1.98l-1.05,11.46c-.08.66-.31,1.15-.69,1.48s-.86.5-1.44.5c-.26,0-.53-.03-.81-.09-1.06-.24-2.06-.58-3-1.02l.33-2.64c.82.38,1.62.68,2.4.9.04.02.11.03.21.03.2,0,.33-.13.39-.39l.99-10.23h-4.26l.33-2.64h4.02l-2.37-4.56h2.76l1.23,2.31,2.67-3.84h-7.23l.3-2.55h8.07c.52,0,.96.09,1.32.27.36.18.61.42.75.72.08.16.12.37.12.63,0,.54-.2,1.07-.6,1.59l-4.05,5.43h1.92ZM232.39,32.05c-1.46-1.92-3.09-3.86-4.89-5.82-1.24,2.22-3.14,4.23-5.7,6.03l-2.76-1.47c2.22-1.38,3.96-2.89,5.22-4.53,1.32-1.76,2.14-3.88,2.46-6.36l.45-3.69h2.64l-.48,4.11c-.14,1.28-.41,2.46-.81,3.54,2.12,1.98,4.32,4.32,6.6,7.02l-2.73,1.17ZM232.63,12.31c.72,0,1.25.17,1.58.51s.49.87.49,1.59c0,.3,0,.54-.03.72l-1.11,10.08h-2.64l1.14-10.38h-6.84l-1.05,10.17h-2.64l1.08-10.2c.1-.92.33-1.56.69-1.93s.97-.55,1.83-.55h1.74l.72-2.58h-4.74l.3-2.58h12.81l-.3,2.58h-5.19l-.72,2.58h2.88Z"/>
        <path class="cls-1" d="M249.88,28.12c-1.32.42-2.78.81-4.37,1.16s-3.58.76-5.96,1.25l.33-2.91c1.18-.22,2.83-.58,4.95-1.08,1.9-.46,3.67-.93,5.31-1.41l-.27,3ZM249.79,22.78c-.98.18-1.57.28-1.77.3l-2.1.36c-1.2.2-2.54.38-4.02.54-.38.04-.7,0-.96-.13s-.45-.33-.57-.59c-.08-.16-.12-.34-.12-.54,0-.38.15-.75.45-1.11,1.16-1.28,2.42-2.85,3.78-4.71-.52.1-1.01.16-1.47.18-.68.08-1.15.12-1.41.12-.36,0-.66-.06-.9-.18-.48-.26-.72-.64-.72-1.14,0-.38.14-.74.42-1.08,1.18-1.62,2.18-3.04,3-4.26,1.18-1.8,2.06-3.25,2.64-4.35h3.45c-1.58,2.76-3.33,5.41-5.25,7.95,1.08-.12,1.9-.23,2.46-.33.38-.52.95-1.37,1.71-2.55h3.03c-.74,1.3-1.83,2.99-3.27,5.07-1,1.42-2.11,2.9-3.33,4.44l2.64-.39c1.18-.18,2.07-.36,2.67-.54l-.36,2.94ZM257.86,6.19c-.5,1.4-.93,2.51-1.29,3.33h5.22c1.14,0,1.95.24,2.43.72.48.48.67,1.26.57,2.34l-.24,2.1-.21,1.95c-.08.68-.17,1.41-.25,2.18-.09.77-.19,1.58-.29,2.44l-.84,6.48c-.02.18-.08.61-.18,1.29-.1.68-.26,1.22-.49,1.62-.23.4-.56.7-.98.9-.42.22-.95.33-1.59.33-.48,0-.97-.05-1.47-.15-.5-.1-1.17-.26-2.01-.48-.82-.22-1.74-.51-2.76-.87l.3-2.94c2.32.74,4.09,1.21,5.31,1.41.08.02.18.03.3.03s.21-.04.25-.12c.05-.08.09-.24.13-.48.18-.92.41-2.39.69-4.41l.84-6.39.33-2.94.21-2.22h-6.51c-.9,1.86-1.67,3.42-2.31,4.68h-3.18c.98-1.76,1.9-3.58,2.76-5.46.78-1.68,1.51-3.46,2.19-5.34h3.06ZM256.21,16.81l1.62,6.75h-2.79l-1.56-6.75h2.73Z"/>
      </g>
    </g>
  </g>
</svg>