<?xml version="1.0" encoding="UTF-8"?>
<svg id="_图层_1" data-name="图层_1" xmlns="http://www.w3.org/2000/svg" version="1.1" viewBox="0 0 1080 1080">
  <!-- Generator: Adobe Illustrator 29.0.1, SVG Export Plug-In . SVG Version: 2.1.0 Build 192)  -->
  <defs>
    <style>
      .st0 {
        fill: #fff;
      }
    </style>
  </defs>
  <path class="st0" d="M942.7,1015c-.3-.7-.5-1.3-.8-2-1.6,2-3.9,1-5.8,1-197.7,0-395.4,0-593.1,0-1.9,0-3.9,0-5.8-.1,0,.4,0,.7-.1,1.1h605.7Z"/>
  <path class="st0" d="M337.2,1013.9c1.9,0,3.9.1,5.8.1,197.7,0,395.4,0,593.1,0,1.9,0,4.2,1.1,5.8-1-3-7.2-6.4-14.2-12.5-19.5-2-1.7-3.9-3-6.7-2.8-3.9.4-7.8.5-12.1.8-2.1-5.8-3.5-11.8-2.8-18.2.3-.3.5-.7.8-1,.3-2.2.9-4.3,1-6.5,0-2.5-.2-5-.6-7.5-.6-3.1-.1-6.1.6-9.2,0-.7-.2-1.4-.2-2.1,0-5.1,2.5-10,1.3-15.2-.1-.4,0-1,.2-1.4,4.1-8,1.5-16,0-24-.1-.7-.5-1.6-1-2.1-2.8-2.1-3.1-5.2-3.8-8.2-1.1-4.5-2-9.2-4.9-13-1.8-2.3-3.9-4.4-5.7-6.7-4.4-5.8-8.4-11.9-13.1-17.4-2.4-2.8-5.9-4.7-9-7-.7-.6-1.7-.8-2.3-1.5-5.3-6.5-12.9-9.4-20.2-12.9-1.8-.9-3.3-1.5-4.3-3.3-1.3-2.3-3.3-3.9-5.9-4.6-7.3-1.7-14.2-4.9-21.9-4.9-2.3,0-2.9-1.5-3.7-3.1-2-4.2-5.3-6.8-9.8-7.7-2,0-4.1.2-6.1.1-.9,0-1.8-.8-2.6-1.2-1.2-5.8-3.5-10.6-8.8-14-4.2-2.7-8.1-6.2-11.7-9.7-1.5-1.5-2.1-4.1-2.8-6.3-1.5-4.8-2.6-9.7-4.3-14.3-.9-2.5-2.6-4.6-4.1-6.9-2.1-3.1-4.9-5.2-8.5-6.8-3.5-1.5-6.6-4.2-10.1-6.5,5.3-4.7,10.8-9.2,15.9-14.2,5.8-5.7,12.3-10.6,17.5-17.1,3.7-4.7,7.2-9.3,9.5-14.7.2-.5.2-1.2.3-1.8,0-.7,0-1.4-.1-2,0-1.6.1-3.2.2-4.8-.1-.1-.3-.2-.3-.3.1-.2.3-.5.4-.7.1-4.8.3-9.6.4-14.5.2-.4.4-.7.6-1.1.2-3.2.5-6.4.7-9.6,0-.7,0-1.3,0-2,0-3.9,0-7.7-.1-11.6-.2-.4-.3-.8-.5-1.2,0-.3,0-.6.2-.9,0-1.3,0-2.5-.1-3.8,0-.3,0-.7-.1-1-.5-6.4-.9-12.9-1.4-19.3-.2-.4-.4-.8-.6-1.1-1.3-.6-2.5-1.3-3.8-1.9-3.3,0-6.6,0-9.9,0v.2c-2.5,1.4-5.1,1.4-7.7,0v-.2c-3.2,0-6.5,0-9.7,0-.9,0-1.7.1-2.6.2-2.4.2-4.8.5-7.2.7-4,.8-8,1.5-12,2.4-5.4,1.1-10.7,2.4-16.1,3.5-3.7.8-7.4,1.5-11.2,1.8-2.9.2-5.7.6-8.6-1.5-4.2-2.9-8.7-.5-12.4,1.9-4.5,2.9-9.3,3.9-14.4,3.6-4.9-.2-9.8-.9-14.8-1.4-.5-1.6-1.2-3.3-1.6-5.1-.3-1.6-.2-3.3-.3-5-.1-2.1-.1-4.3-.6-6.3-1.2-5.4-3.3-10.7-2.9-16.4.2-3,.2-5.7,3.3-7.8,1.9-1.4,2.5-4.5,3.8-7.1h3.9c-3.3,4.6-.4,8,1.5,11.5,1.3,2.3,5.3,3.5,7.1,2.6,2.5-1.3,1.4-3.6,1.4-5.6-.2-.4-.3-.8-.5-1.2-.3-1.6.5-2.7,1.9-2.6,1,0,2.4,1,2.7,1.9.9,2.2,1.3,4.7,2.1,7,.7,2.1,2.2,2.6,4.9,1.7.2-.4.4-.8.6-1.2,0-1.9,0-3.8,0-5.7,0-.1-.3-.3-.3-.3.1-.2.3-.5.5-.7,1-2.3,1.9-4.7,3.1-6.9,1.2-2.2,2.1-2.3,4.1-.8,2.3,1.7,4.5,3.5,6.8,5.4,2.3-1.1,3-2.7,2-5.3-.8-2-.9-4.2-1.5-6.9,2.7.5,5.2,1,7.8,1.4,1.2.2,3.1.5,3.4,0,.8-1.4,1.4-3.3,1.1-4.8-.5-2.7-1.8-5.2-2.7-7.8-.5-1.5-.7-3-1.3-5.5,3.5,1,6.2,1.7,8.9,2.6,2.3.8,4.9,1.6,6.8,3,3.2,2.4,5.9,1,8.7-.5.4-.2.9-.4,1.1-.8,2.8-6.9,10-9.5,14.6-14.6,3.5-3.8,7.5-7.4,10.7-11.4,3-3.8,2.7-7.3-.3-11.2,4.9-2.6,9.9-5.1,14.6-7.8,5.2-3,10-6.8,12.8-12.3,2-3.9,4.3-7.6,5.2-12.2.6-3,2.8-5.6,4.3-8.4.2-.4.9-.7.9-1,.1-3.7,3.1-5,5.6-6.2,2.9-1.4,3.5-3.4,3.5-6.1,0-3.2,0-6.5,0-9.7,0-.3,0-.7-.1-1-.3-1.8-.6-3.7-1-5.5-.5-2.4-2-4-4.1-5.1-.8-.4-1.7-.7-2.7-1.2,5.8-17.7,10.5-35.5,10-54.1.1-.4.3-.9.4-1.3,0-1.8-.1-3.6-.2-5.4,0-.5,0-.9,0-1.4,0-1.8,0-3.6,0-5.4,0-1-.1-2.1-.2-3.1-.6-2.1-2-3.7-4.2-4.6,0-4.5,1.8-8.6,4-12.5,1.9-3.5,3.8-6.9,5.7-10.4,2.2-4.1,2.2-8.6,2.5-13.1.1-.4.2-.9.3-1.3,0-2.2,0-4.3,0-6.5.1-.3.2-.6.4-.9,2.1-2.9-.3-5.9.3-9,1.2-6.5-1-12.7-1.8-19.1,0-1.4,0-2.8,0-4.2,0-2.1-.1-4.3-.2-6.4v-1.4c1.1-7.6-1.5-14.7-3.7-21.8-.5-1.6-2.9-2.6-5.3-4.5-.6-5.2-4.7-10.3-7.4-16.1-3-6.5-6.1-12.9-8.9-19.4-4.3-10.3-10.4-20.1-19-29.9-1.1-1.3-2.5-3-2.4-4.5.3-5.7-3.8-9.2-6.2-13.4-3.5-6-8.1-11.1-14.3-14.6-.6-.3-1-.8-1.4-1.3-6-5.7-11.9-11.7-18.2-17.2-9-7.8-17.2-16.6-27.5-22.7-9.5-5.6-19.2-11.1-28.5-17-8.8-5.6-18.3-9.8-27.8-14-2.6-1.1-5.2-2.1-7.9-2.9-9.5-2.9-18.9-6-28.6-8.3-8.8-2.1-17.6-4.8-26.9-4.4-3.9-.3-7.8-.6-11.6-.8-3.1-.7-6.2-1.6-9.4-2-2.6-.3-5.4-.1-8.1-.1-2.9-.3-5.9-.6-8.8-.8v-.2c-1.9-.3-4-.5-6-.8-1.5,0-3-.1-4.5-.2-2.7-.3-5.4-.5-8.1-.8-1.7-.6-3.5-1.1-5.2-2-4.2-2.1-8.1-4.7-12.5-6.5-2.5-1-5.5-.9-8.2-1.3-2.3.3-4.7.6-7,.9-7.3,1-14.7,1.7-21.9,3.8-12.7,3.6-25.5,6.6-38.3,9.9-9.7,2.5-19.4,5.1-29.1,7.8-4,1.1-7.9,2.8-11.5,4.2-4.6-1.1-9.3-2.2-14-3.2-2-.4-4.1-.4-6-1-4.3-1.4-8.2-.6-12.3.9-5.6,2-11.7,2.4-16.9,5.3-5.6,3.1-11.1,6.5-16.7,9.8-5.3,3.1-10.6,6-15.8,9.1-2.8,1.7-5.5,3.7-8.3,5.4-1.3.8-2.7,1.3-4.6,2.2-.6,1.4-1.5,3.6-2.6,6.1-2.1-.4-4.2-.8-6.3-1.2-2,0-4,0-6.1,0-6.6,3.1-12.6,7.2-17.6,12.5-.4.5-1.1.8-1.4,1.3-3.5,6-9.3,9.3-15.1,12.5-3.6,2-4.3,5.7-5.6,9.1-.2.4.5,1.1.6,1.6,0,1.9.8,4.4,0,5.4-1.7,2.1.2,2.8.6,4.1.6.9,1.3,1.8,2,2.8.9,2.5,2.2,4.9,2.5,7.5.2,1.8-.5,4.3-1.8,5.5-.9.9-3.4.2-5,.2-2.8,4.5-5.7,9-8.6,13.6,3.3.9,6.3,1.6,9.2,2.4,3.4-3.8,4.3-3.8,6.6-.1.2.4.4.8.5,1.2,1.1,6.5-2.2,11.7-4.9,17.1-2.6,5.1-5.5,9.9-8.9,15.9-1.8-3.7-3.2-6.5-4.6-9.3-.8-1.6-1.2-4-3.9-3.3-1.6.4-2.3,2.6-1.3,5.4,2.1,6,4.5,11.8,6.9,17.7,2.1,5.2,4.1,10.3,6.5,15.4,1.3,2.7,1,4.9-1.2,6.9.4,2,.9,3.9,1.3,5.9-1.1,4.6-1.9,9.2-3.3,13.6-.9,2.8-2.8,5.2-4.4,7.7-.5.7-1.5,1.4-2.3,1.5-4.4.5-8.8,1.1-13.1-.5-1.7-.6-3.6-.9-5.4-1.3-.8,3.5.2,6.4,3.1,8.4-2.7,4.1-.2,8,.5,12.1.2,1,1.1,2.5,1.8,2.6,4.5.4,4.5,4.4,5.2,7,1.2,4.9-.6,11.7-7,13.9-3.2,1.1-6,2.5-9.4.9-1-.5-2.5,0-3.7.4-1.9.6-3.7,1.4-6,2.2.8,1,1.5,1.9,2.3,2.9.8,1,2.1,1.8,2.5,2.9,1.6,4.5,4.9,6.7,9.2,8.1,7.5,2.4,15,5,22.4,7.5,3.6,1.2,3.5,1.2,3.2,4.9-.2,2.2.3,4.5.4,6.8.2.4.3.8.5,1.2.5,2.6,1,5.1,1.6,8.4,3.4-3.8,6.5-2.9,9.7-.8,1.5,1,3.4,1.6,5.2,2,5.8,1.4,9.9,5.2,13.9,9.2,1.1,1.1,1.6,2.5.4,3.2-2.1,1.3-1.5,2.2-.4,3.8.6.9,1.1,2.4.8,3.3-1.6,5.9-4.7,10.9-9.4,15-1.3,1.1-2.2,2.7-3.2,4.1-.3.3-.6.6-.9.9,0,0,0,.1,0,0,.4.4.8.8,1.2,1.2,3.2-2.7,6.5-5.3,9.4-8.3,1.5-1.5,2.8-3.5,3.6-5.5,1.4-3.4,2.9-6.5,6.4-8.5,1.8-1,3.1-2.9,5.4-5-1,4,0,7,2.6,9.1,4-3.1,8.1-6.3,12.4-9.7,3.5,17.2,6.9,33.6,10.2,50,0,.7-.2,1.4-.2,2.1.1,1.1.2,2.2.3,3.4.2,1.8-.2,2.9-2.3,3.4-1.3.3-2.5,1.4-3.4,2.5-3.3,3.5-6.3,7.3-9.8,10.6-4.7,4.4-10.1,7.9-16.6,9.2-1,.2-2,.9-2.7,1.6-1.1,1.3-2,2.8-3.3,4.8,1.3.2,2.1.4,3,.5.7,9.2,4.1,17.7,7.2,26.3,2.9,8.1,5.8,16.3,8.1,24.6,1,3.6,2.6,7,3.3,10.7.5,2.5,2.2,5.1.2,7.7,1.1,4.4,1.4,9.2,3.4,13.2,2.2,4.3,3.7,8.7,5.6,13,2.8,6.4,5.8,12.7,8.5,19.1,1.5,3.5,2.8,7,3.8,10.6,2.3,8.9,5.6,17.3,11.2,24.7,1.6,2.1,3.2,3.8,6.4,4.2,3.6.5,7.1,2.3,10.6,3.7,6.2,2.5,15.8,1.2,21.4-2.6,3.4-2.3,7.3-1.9,10.9-.4,2,.8,5.1.5,5.3,3.9-.1.4-.2.9-.4,1.3,1.4,6.4,2.9,12.7,4.3,19.1,0,.7,0,1.3-.1,2,.2,3.4.4,6.9.5,10.3.1.4.3.9.4,1.3v3.8c-.2.4-.4.7-.6,1.1,0,.2-.1.5-.2.7-.2.4-.4.8-.6,1.2.2,4.6.3,9.1.7,13.7.2,2.3.5,2.2,3.5,2.6,0-5.5.6-11,2.5-16.2,0-.4.2-.9.3-1.3-.1-5.4-.3-10.8-.4-16.2-1.5-2.5-1.4-2.8,1.1-3.8,2.9-1.3,4.4-3.6,3.7-6.2-1-3.3-2.3-6.4-3.5-9.7-.9-2.6-1.8-5.2-2.7-7.9,6.3-1.9,11.9-3.7,17.6-5.4,15.2-4.5,30.4-8.9,45.9-11.7.9-.2,1.8-.6,2.6-1,2.4-.9,4.7-1.9,7.1,0,2.2,3.3,4.5,6.7,6.7,10-4,4.9-9.1,7.4-13.9,10.4-5.6,3.4-10.9,7-15.7,11.5-3.2,3-6.9,5.4-10.5,8.1-3.5,2.6-3.9,4.7-1.5,8.3,2.3,3.6,4.2,7.3,5.5,11.4.7,2.3,2,4.2,4.2,5.6,2.6,1.7,4.8,4.1,7.4,6,3.1,2.2,6.3,4.4,10,3.7,5.3,8.5,10.4,16.7,15.6,24.9,1.6,2.6,2.5,4.9.9,7.9-.9,1.7-.8,4-1,6-.5,3.4-.9,6.9-1.3,10.5-1,.6-2.1,1.8-3.2,1.8-6.9.2-10.8,5.1-15,9.4-4.7,4.8-9.4,9.4-15.1,13.1-3.9,2.6-7.7,5.5-11.8,7.7-5.3,2.9-10.8,5.5-16.5,7.7-6,2.3-12.2,3.8-18.2,6-3.7,1.3-7.2,3.1-10.6,5-8,4.6-16.5,8.2-25.2,11.3-5.3,1.9-8.9,4.9-9.2,11,0,1.9-.5,3.7-.8,5.5,1.1,1.3,1.5,2.6,0,4,0,.6,0,1.2.1,1.8.2.3.5.6.7.9,8.4,8,17,15.7,25,24,6.5,6.7,12.3,14.1,17.6,21.8,4.4,6.4,9.1,12.6,13.5,19,1,1.5,2,3.5,1.8,5.1-.6,6.3,2.3,11.2,5.7,15.8,1.4,1.8,1.6,2.9,0,4.4-6.2,5.8-12.4,11.7-18.6,17.5-.4.4-1,1-1.5,1-4.6-.2-7.5,3.6-11.7,4.5-1.6.4-3.2,1-4.8,1.6-2.3,1.2-4.6,1.5-6.7-.4-3.6-1.2-7.1-2.5-10.7-3.7-2.6,0-5.3,0-7.9,0-1.1.9-2.1,2-3.2,2.8-4.7,3.4-5.7,6.1-3.9,11.7,3.1,9.7,7.8,18.7,12.9,27.5,1.1,2,1,2.8-.1,4.5-3.8,5.6-6.8,11.7-8.4,18.4h0ZM244.7,256.2c0,.7,0,1.4.1,2-.7,1.8-1.3,3.7-2.2,6.2-1.8-5.3-3.1-9.7-4.9-14-1.7-4-2.5-7.7.4-11.4h5.2c.6,1.5,1.1,2.7,1.5,3.9.2.3.5.6.7.9,0,1.2,0,2.4,0,3.6l-.4,1.3c-.2,2.5-.4,5-.6,7.5ZM897.3,911.4c-.1.3-.3.6-.4.9.4,3-.2,5.9,1,8.9.7,1.8.3,4.6-.6,6.3-.7,1.2-1.1,2.1-1.1,3.4.2,2.4-1.1,3.7-2.6,4.7-4.8-5.9-9.3-11.6-14-17.1-3.1-3.7-6.3-7.2-9.7-10.6-4.9-5-9.7-10.2-15-14.7-3-2.6-6.9-4.4-10.7-5.8-3.9-1.5-8-2.3-12.1-3.1-2.8-.6-4.6-2-5.6-4.6-.4-1-.8-2.1-1.1-3.2-.1,0-.4-.2-.4-.2,0-.3.1-.5.2-.8,0-1.6,0-3.2,0-4.8,0-.7,0-1.4.1-2-2.9-5.2-5.9-10.3-8.6-15.6-1.5-2.9-2.1-6-.6-9.3.3-.7.5-1.5.7-2.3,0-.1,0-.2,0-.4,0-.2.2-.4.2-.7,0-1.3,0-2.5.1-3.8.2-.4.3-.8.5-1.2.1-.7-.2-1.7,1.3-1.3,6.1,1.6,12.1,3.8,18,6.1,8.7,3.3,17,6.9,24.9,11.7,6,3.6,12.2,7.2,16.3,12.9,6,8.3,12,16.6,15.3,26.5,1.1,3.2,3.2,6.1,4.8,9.2,1.2,2,1.6,4,0,5.9-.3,1.6-.6,3.3-.9,4.9h0Z"/>
  <path class="st0" d="M381.8,725.2c-1.6-2.7-2.3-5.7-2.3-8.9,0-1.2-1.2-3.2-2.3-3.6-2.1-.7-3.7.9-4.3,2.9-1.1,3.6-2,7.3-2.8,11-1.2,5.1-2.4,10.3-3.6,15.4-.1.5-.3.9-.3,1.4-.5,5.9-.9,11.7-1.3,17.6,0,.4,0,.7,0,1.1,0,.9,0,1.8,0,2.8,0,.1.1.3,0,.4,0,.2-.2.5-.3.7.1,1.3.2,2.5.3,3.8,0,.4,0,.7.1,1.1.6,2.9,1.2,5.7,1.8,8.6,0,.5,0,1,.1,1.4,1.2,4.7,3.7,6.2,8.2,4.4,1.8-.7,3.6-1.6,5-2.8,3.7-3.2,4.1-5.7,1.4-10.1-2.8-4.6-3.7-9-2-14.3,1-3.1.8-6.5,1.1-9.8.2-1.5.5-3,.7-4.5,0-.7,0-1.3-.2-2,.2-5.1.4-10.3.7-15.4,0-.3,0-.7-.1-1h0Z"/>
  <path class="st0" d="M242.1,175.8c-1,.6-2.5.9-3.1,1.8-8.9,12.9-17.5,26-24.3,40.4,2,.7,2.6-.6,3.4-1.8,4.8-6.9,9.5-13.8,14.4-20.6,3.9-5.4,8.1-10.6,10.8-16.8-.4-1-.8-2-1.2-3h0Z"/>
  <path class="st0" d="M180.2,323.2c10.2-14.9,21-29.4,30.4-45.1-3.7-1.3-4.9,1.3-6.3,3-2.4,2.9-4.6,6-6.6,9.3-6.2,10.1-12.4,20.2-18.5,30.3-.2.4-.2.9-.3,1.4.4.4.8.8,1.2,1.2h0Z"/>
  <path class="st0" d="M188,265.9c-3.4,4.8-6.7,9.6-10.1,14.4-1.2,2-2.4,3.9-3.6,5.9-.3.7-.6,1.3-.8,2-.7,1.3-1.4,2.5-2.1,3.8-1,1.7-2,.2-3,0-.3.6-.7,1.1-1,1.7.8.3,1.6.6,2.4.9-.1.7-.2,1.5-.4,2.3l.6.8c5.2-6.5,9.4-13.5,13.3-20.8,1.8-3.3,3.8-6.5,5.6-9.8-.3-.4-.6-.8-.9-1.1h0Z"/>
  <path class="st0" d="M219.4,244.5c.9,9.4,5.6,17.3,10.3,25.1-1.2-9.2-5.4-17.3-10.3-25.1Z"/>
  <path class="st0" d="M165.5,296.8c-.7,1.2-1.3,2.5-2,3.7.1.6.2,1.1.3,1.7.6-.5,1.3-1,2-1.5.2.2.3.3.5.5-1.2,1.5-2.4,2.9-3.7,4.4h0c-1.6,2.9-3.2,5.8-4.9,8.7-.4.9-.7,1.8-1.1,2.8.4.4.8.8,1.2,1.2,4-6.9,8.1-13.8,12.1-20.7-.2-.3-.4-.5-.6-.8-.4.1-1,.1-1.3.4-1.2,1.5-2,1-2.6-.5h0Z"/>
  <path class="st0" d="M154,322.1c-2.6,3.2-5.2,6.4-7.8,9.6.3.9.5,1.8.8,2.6,3.6-3.4,5.9-7.7,7.9-12.2h-.9Z"/>
  <path class="st0" d="M229.5,280.4c2.3-.2,5,2.2,6.9-.9-.3-1.4-.7-2.7-1-4.1-2.9,1.4-5.8,2.7-8.7,4.1,1,.3,1.9.6,2.8.9Z"/>
  <path class="st0" d="M147,334.3c-.3-.9-.5-1.8-.8-2.6-2.2.8-3.3,1.6-3.7,3.6-.3,1.3,0,2.7,0,4.4,3-.9,3.3-3.5,4.6-5.4h0Z"/>
  <path class="st0" d="M215.8,240.7c1.4-2.4,2.7-4.7,4.1-7.1-2-1.6-3.2-.4-3.9,1.2-.7,1.7-3.5,3.4-.1,5.8Z"/>
  <path class="st0" d="M163.8,302.2c-.1-.6-.2-1.1-.3-1.7-2.9,4.6-5.8,9.2-8.6,13.8.3.3.6.6.8.9.4-.6.9-1.2,1.3-1.8,1.9-2.6,3.8-5.3,5.7-7.9h0c.4-1.1.8-2.2,1.2-3.4h0Z"/>
  <path class="st0" d="M171.4,336.3c2.6.3,4.1-.7,4.5-2.9-3.5-.4-3.9-.1-4.5,2.9Z"/>
  <path class="st0" d="M173.4,288.3c.3-.7.6-1.3.8-2,.7-2.3,1.3-4.6,2-6.8-1.6,2.3-3.1,4.6-4.7,6.9l.7.9c.4.4.7.7,1.1,1.1h0Z"/>
  <path class="st0" d="M229.5,280.4c-1-.3-1.9-.6-2.8-.9-1.3.4-2.6.8-3.9,1.1,2.4,1.3,4.6.8,6.8-.2Z"/>
  <path class="st0" d="M165.5,296.8c.6,1.5,1.4,2,2.6.5.2-.3.8-.3,1.3-.4.1-.8.3-1.5.4-2.3-.8-.3-1.6-.6-2.4-.9-.6,1-1.2,2.1-1.8,3.1h0Z"/>
  <path class="st0" d="M253.8,432.7c-.4-.4-.8-.8-1.2-1.2-1.5,1.3-3.1,2.7-4.6,4,.3.4.6.7,1,1.1,1.6-1.3,3.3-2.6,4.9-3.9h0Z"/>
  <path class="st0" d="M235.3,275.4c.3,1.4.7,2.7,1,4.1.7,0,1.4,0,2.1,0-.4-2-.9-3.9-1.3-5.9-.6.6-1.2,1.3-1.9,1.9h0Z"/>
  <path class="st0" d="M569.7,82.8c3.9.3,7.8.6,11.6.8-3.9-.3-7.8-.6-11.6-.8Z"/>
  <path class="st0" d="M188,265.9c.3.4.6.8.9,1.1,1-1.8,2.1-3.7,3.1-5.5-.3-.2-.7-.4-1-.6-1,1.7-2,3.3-3.1,5h0Z"/>
  <path class="st0" d="M180.2,323.2c-.4-.4-.8-.8-1.2-1.2-1.3,2-3.3,3.8-2.5,7.1,1.4-2.2,2.6-4.1,3.8-5.9h0Z"/>
  <path class="st0" d="M172.3,287.2c-.2-.3-.5-.6-.7-.9-1.1,1.9-2.2,3.8-3.2,5.7,1,.2,2,1.7,3,0-.2-.5-.7-1.1-.6-1.5.4-1.2,1-2.2,1.5-3.3h0Z"/>
  <path class="st0" d="M775,625.3c3.3,0,6.6,0,9.9,0-3.3-1.3-6.6-1.3-9.9,0Z"/>
  <path class="st0" d="M155.7,315.2c-.3-.3-.6-.6-.8-.9-.8,1.4-1.7,2.7-3,4.9,2.1-1,3.1-1.5,4.1-2h0c0-.6-.2-1.3-.2-2Z"/>
  <path class="st0" d="M757.5,625.4c3.3,0,6.6,0,9.9,0-3.3-1.5-6.6-1.4-9.9,0Z"/>
  <path class="st0" d="M176.2,279.4c-.7,2.3-1.3,4.6-2,6.8,1.2-2,2.4-3.9,3.6-5.9-.2-.3-.5-.6-.7-.9-.3,0-.7,0-1,0h0s0,0,0,0Z"/>
  <path class="st0" d="M796.6,813.3c.9.4,1.7,1.1,2.6,1.2,2,.1,4.1,0,6.1-.1-1.3-.3-2.6-.8-4-.9-1.6-.2-3.2-.1-4.8-.2h0Z"/>
  <path class="st0" d="M154,322.1h.9c1-1.3,2-2.5,3-3.8l-1.2-1.2-.4.2h-.4,0c-.7,1.5-1.3,3.2-2,4.8Z"/>
  <path class="st0" d="M339.9,949c2.6,0,5.3,0,7.9,0-2.6-1.5-5.3-1.6-7.9,0Z"/>
  <path class="st0" d="M221.4,263.5c.9-3,0-3.7-2.8-3.1,1,1.1,1.8,1.9,2.8,3.1Z"/>
  <path class="st0" d="M385.7,671.1c-2.5,1-2.6,1.3-1.1,3.8.4-1.3.7-2.5,1.1-3.8Z"/>
  <path class="st0" d="M524.9,78c2.7.3,5.4.5,8.1.8-2.7-.3-5.4-.5-8.1-.8Z"/>
  <path class="st0" d="M767.3,625.5c2.6,1.3,5.2,1.4,7.8,0-2.6,0-5.2,0-7.8,0Z"/>
  <path class="st0" d="M456.4,629.3c-2.3-2-4.7-.9-7.1,0,2.4,0,4.7,0,7.1,0Z"/>
  <path class="st0" d="M492,69.1c2.3-.3,4.7-.6,7-.9-2.3.3-4.7.6-7,.9Z"/>
  <path class="st0" d="M358.5,952.8c2.1,1.9,4.4,1.6,6.7.4-2.2-.1-4.5-.2-6.7-.4Z"/>
  <path class="st0" d="M747.8,626.2c2.4-.2,4.8-.5,7.2-.7-2.4.2-4.8.5-7.2.7Z"/>
  <path class="st0" d="M242.1,175.8c.4,1,.8,2,1.2,3,.6-.5,1.2-.9,1.8-1.4-.6-.9-1.3-1.8-2-2.8-.4.4-.7.7-1.1,1.1Z"/>
  <path class="st0" d="M281.7,128.2c2,0,4,0,6.1,0-2-1.3-4.1-1.4-6.1,0Z"/>
  <path class="st0" d="M176.1,279.4c.3,0,.7,0,1,0,.4-.9.7-1.9,1.1-2.8-.2-.1-.3-.3-.5-.4-.6,1-1.1,2.1-1.7,3.2h0Z"/>
  <path class="st0" d="M337.3,835.8c1.4-1.4,1-2.7,0-4,0,1.3,0,2.6,0,4Z"/>
  <path class="st0" d="M178.3,276.7c.7-.3,1.4-.7,2.1-1-.4-.4-.7-.7-1.1-1.1-.5.6-1,1.1-1.4,1.7.2.1.3.3.5.4h0Z"/>
  <path class="st0" d="M808.3,385c0,1,.1,2.1.2,3.1,1-1.1,1-2.1-.2-3.1Z"/>
  <path class="st0" d="M806.2,467.4c0,.3,0,.7.1,1,0-.2.2-.5.2-.8,0,0-.2-.2-.4-.3Z"/>
  <path class="st0" d="M790.7,653.4c.2.4.3.8.5,1.2.2-.3.3-.6.2-.9-.2,0-.5-.2-.7-.3h0Z"/>
  <path class="st0" d="M790.7,647.7c0,.3,0,.7.1,1,0-.3.2-.5.2-.8,0,0-.2-.2-.3-.3Z"/>
  <path class="st0" d="M379.4,685.6c-.1-.4-.3-.9-.4-1.3.1.4.3.9.4,1.3Z"/>
  <path class="st0" d="M378.8,690.4c.2-.4.4-.7.6-1.1-.2.4-.4.7-.6,1.1Z"/>
  <path class="st0" d="M789.6,693.3c-.1.2-.3.5-.4.7,0,0,.2.2.3.3,0-.3,0-.7,0-1Z"/>
  <path class="st0" d="M235,382.3c-.2-.4-.3-.8-.5-1.2.2.4.3.8.5,1.2Z"/>
  <path class="st0" d="M808.8,400.3c-.1.4-.3.9-.4,1.3.1-.4.3-.9.4-1.3Z"/>
  <path class="st0" d="M364.9,762.1c0-.4,0-.7,0-1.1,0,.4,0,.7,0,1.1Z"/>
  <path class="st0" d="M364.6,766c0-.2.2-.5.3-.7,0-.1,0-.3,0-.4,0,.4-.1.7-.2,1.1h0Z"/>
  <path class="st0" d="M365.1,770.8c0-.4,0-.7-.1-1.1,0,.3-.2.5-.2.8,0,0,.2.2.3.3h0Z"/>
  <path class="st0" d="M788.7,627.2c.2.4.4.8.6,1.1-.2-.4-.4-.8-.6-1.1Z"/>
  <path class="st0" d="M685.9,596.4c-.2.2-.3.4-.5.7,0,0,.2.2.3.3,0-.2.2-.4.2-.6,0-.1,0-.2,0-.4h0Z"/>
  <path class="st0" d="M790.7,653.4c.2,0,.5.2.7.3-.2-.4-.4-.8-.5-1.1-.2.3-.3.5-.2.9Z"/>
  <path class="st0" d="M898.3,900.6c0,2,0,3.9,0,5.9,1.6-2,1.3-3.9,0-5.9Z"/>
  <path class="st0" d="M244.7,256.2c0,.7,0,1.4.1,2,0-.7,0-1.4-.1-2Z"/>
  <path class="st0" d="M816.8,841.5c.2-.2.3-.4.4-.7,0,0-.2-.2-.3-.3,0,.2-.2.4-.2.7,0,.1,0,.2,0,.4Z"/>
  <path class="st0" d="M825.4,876.4c0-.3-.1-.7-.2-1,0,.3-.2.5-.2.8,0,0,.2.2.4.2Z"/>
  <path class="st0" d="M245.7,247.4c-.1.4-.3.9-.4,1.3.1-.4.3-.9.4-1.3Z"/>
  <path class="st0" d="M172.3,287.2c-.5,1.1-1.2,2.2-1.5,3.3-.1.4.4,1,.6,1.5.7-1.3,1.4-2.5,2.1-3.8-.4-.4-.7-.7-1.1-1.1h0Z"/>
  <path class="st0" d="M162.7,305.6c-1.9,2.6-3.8,5.3-5.7,7.9.3.3.6.6.8.9,1.6-2.9,3.2-5.9,4.9-8.8Z"/>
  <path class="st0" d="M163.8,302.2c-.4,1.2-.8,2.3-1.2,3.5,1.2-1.5,2.4-2.9,3.7-4.4-.2-.2-.3-.3-.5-.5-.6.5-1.3,1-2,1.5h0Z"/>
  <path d="M688.9,324c-.4,1.1-1,1.8-2.3,2.2-7.3,2.1-14.5,4.3-21.8,6.4-2.3.7-3.3-.2-3.2-2.6,0-.8.5-1.5.6-2.3.4-1.7,0-2.7-1.6-3.9-3.9-2.7-8.1-4.6-12.5-6.3-9.2-3.5-18.5-6.6-28-9.3-3.7-1.1-7.5-1.7-11.5-1.6-11.2.1-19.2,5.8-24.8,15.1-.9,1.5-1.6,1.5-3,1.7-2.2.4-1.5-1.2-1.8-2-.9-2.1-1.5-4.2-2.2-6.3.7-1,1.6-1.3,2.5-1.7,12.1-5.5,15.7-15.8,12.9-28.1-3.4-14.6-13.6-22.5-27.6-26.1-8.9-2.3-17.3-1.4-24.6,4.8-1.2,1-1.9.7-3.3.1-2.7-1.2-4.7-3.2-6.9-5-4-3.2-8.3-5.9-12.6-8.7-24.6-16.2-50.9-29.1-77.7-41.1-4.4-2-8.8-3.8-13.1-5.8.2-1.1,1-1.5,1.6-1.9,12.5-8.3,25-16.6,37.4-25,1.3-.9,2.3-.8,3.6-.4,4.2,1.3,8.3,2.5,12.5,3.7,11.6,3.3,22,2,30.1-8.1,1.7-2.2,3.7-3.5,6.7-4.1,3.7-.6,7.3-2.4,10.8-4.1,3.7-1.8,4.2-7,1-9.8-2.2-1.9-4.8-3.3-7.9-3.3-7.4-.2-14.8-1.5-22,1-1,.3-1.9-.1-2.7-.7-1.3-.9-2.7-1.7-4-2.6,0-.5,0-.9.2-1.1,2.8-4.2,2.2-6.4-2.5-8.5-4.2-1.8-8.6-1.6-12.6.4-2.3,1.1-4.2,1-6.4.3-22.7-7.2-45.9-11.8-69.4-14.9-3.8-.5-7.7-.8-11.5-1.1-1,0-1.9-.1-3-1.3,43.7-26.8,90.7-40.6,142.5-41.8-3.1,3.8-6.6,5.9-8.6,9.3-1.9,3.3-5.2,5.7-6.8,9.6,4.8,1,9.3,2.3,14.2,2.6,17.4.9,34.1,5.1,50.2,11.4,1.6.6,3.2,2.3,4.7,2.2,2.1-.1,3.2-2.5,4.7-4,6.3-6.2,12.6-12.5,18.8-18.8,1.8-1.9,3.5-2,6-1.3,31.3,9,60.3,22.8,86.9,41.5,15.5,10.9,29.7,23.3,42.6,37.2.4.5.8.9,1.6,1.9-3.6,0-6.7-.1-9.8,0-13.3.7-24.4,5.9-32.2,17-6.2,8.9-8,18.8-5.4,29.4.4,1.5,1.4,2.6,2.3,3.7,9,10.8,18,21.5,26.9,32.3,2,2.4,4.5,4.4,7.3,5.5,14.8,5.8,29.5,6.6,43.8-1.7,4.6-2.7,8.7-6.2,11.8-10.6.7-1,1.3-2.3,2.8-2.6,4.4,6.9,5.5,15.5,11.3,22.5,1.5-2.4.8-4,.4-5.6-2.2-8.8-5.7-17.1-9.4-25.4-7.2-16.1-16.4-31.1-26.8-45.3-1.3-1.7-2.1-3.6-2.9-5.5-2.2-5.2-5.5-9.4-10.6-12-1.4-.7-2.1-2-3-3.1-25.1-28.4-54.9-50.7-89.1-67.1-26-12.5-53.5-20.6-82.1-24.7-16.8-2.4-33.7-3-50.7-2.7-1,0-2,0-2.9.2-2.2.5-3.7.1-5.4-1.9-2.7-3.3-6.6-5.1-10.8-6.1-1.2-.3-3.1-.3-3.6-1.1-1.9-3.2-4.5-2-6.8-1.5-32,7.4-64.5,13-96.2,21.9-.5.1-1,.1-1.4.3-9.5,4.3-19.3,4-29.3,2.4-1.3-.2-2.6-.3-3.8-.5-6-.7-11.8-.1-17.6,2-16,5.8-30.9,13.9-45.4,22.7-3.9,2.3-7.7,4.7-11.6,6.9-1.6.9-3.3,1.5-2.9,3.8.2,1-.8,1.3-1.6,1.2-.6,0-1.3-.1-1.9-.3-5.1-1.3-9.4.6-13.8,3-6,3.3-11.4,7.3-16.7,11.6-7.4,6-14.5,12.3-21.5,18.7-1,.9-1.9,1.8-2.7,2.8-1.8,2.4-1.6,4.1.3,6.4,1.2,1.5,3.1,2.9,3.4,4.6.4,1.8-2,3.1-3,4.6-9.7,14.5-18.5,29.5-27.5,44.4-22,36.6-43.9,73.4-65.9,110-.9,1.5-1.7,3.3-3.2,4.2-2.3,1.3-1.7,4-3,5.8-.6.9.8,2.5,2.1,3.4,4.4,3.1,9,3.3,13.2-.2,1.6-1.3,3.2-1.4,4.9-1.4,8.6,0,17.1.5,25.6,1.1,1.8.1,3.6,0,5.3.3,2.1.3,5.6-1.4,4.9,3.2,3.9,2,5.4,6.3,8.6,9,5.3,4.5,11.2,7.5,17.9,9.2,2,.5,4,1.1,6.1,1.6-1.2,2.8-4.5,3.3-5.3,5.8-2,6.5-7.6,11.6-7.2,20.3,2-4,3.3-7,5-10,1.6-3,3.7-5.7,6.1-8.1,2.5-2.5,5.2-4.6,9.5-6.4-1.4,3.7-2.9,6.4-2.9,9.5,1.1.1,1.2-1,2-1.8.6,2.1,0,4.2,1,6,.8,1.5-.8,1.8-1.7,2.4-4.4,3.1-8.5,6.5-11.8,10.7-.6.7-1.3,1.4-1.5,3.3,2.7-2.7,4.9-5,7.3-7.1,2.4-2.1,5-3.9,7.8-5.5-3.1,6.5-7.6,12.3-8.1,20.1,2.6-2.9,2.8-7.1,6.2-10.2,0,3.1-2.6,4.4-2.5,7.3,1.8-1.8,2.6-4.1,5.2-4.3.8,0,1.9-1.3,2.2-2.4,1.3-4.6,5.6-5.4,9.2-7,1.5-.6,2.8.3,4.1,1,3.8,1.9,6.9,4.7,10.7,7.1-2,1.4-3.7-.3-5.3.2-1,.9,1,1.6,0,2.5-2.6.6-4.7-1.6-7.6-1.8,4.1,4.8,8.1,5.6,19.3,4.1-3.1,5.2-8,5.6-13,5.9-4.8.2-9.5,0-13.1-4.1,2.9,7.8,9,9.2,25.3,5.9-.9,2.7-2.5,4.6-3.8,6.6-3.4,5.3-7.4,10.2-11.5,14.9-1,1.2-2.3,2.2-2.1,4.7,8.4-3.4,14-10,20.6-15.5-1.6,5.4-5.2,9.5-8.6,13.9,3.9-2.8,7.1-6.3,10.6-9.7-1.1,6.7-5.2,12-8.7,17.5-3.5,5.6-7.7,10.6-12.2,15.5,3.7-1.3,6.3-4.2,8.5-7.2,4.8-6.5,10.7-12.1,15.8-18.3.6-.7,1.4-1.3,2.8-2.6-2.2,6.8-6.2,11.7-8.8,17.3,4.4-4.3,7.4-9.5,11-14.7,1.3,1.4,2.5,2.8,4,4.4,2.5-5.3,3.6-10.8,6.9-16.3,1.6,4.3,3.2,8,4.2,11.9,2.2,8.4,4.2,16.9,6.3,25.3.4,1.5.7,2.4-1.1,3.5-9.8,5.6-19.2,11.8-28.5,18.2-1.2.8-2.2,1.8-3.7,2.2-2.8.7-3.8,3.5-5.5,5.3-.9.9.3,1.8,1.3,1.9,1.3.2,2,.6,2.1,2.1,3.3,34.2,15.7,65.6,28.4,97,4.7,11.7,8.9,23.5,14.2,34.9,1.8,3.8,3.6,7.6,5.5,11.5-2.1,1-4.3,2.1-6.6,3.3-1.8,1-2.6,2.4-1.7,4.4,2.3,5.3,4.4,10.7,8.3,15.1,1,1.1,2.4,1.9,1.8,4-.4,1.3,1,2.4,2,3.1,3.9,2.8,7.4,6.2,11.7,8.5,3.9,2.1,7.8,2.9,12.1,1.9,12.5-2.8,22.5-9.2,29.6-20,.4-.7.8-1.5,1.8-1.3,1.3.2.5,1.3.6,1.9.1,6.4,0,12.8.2,19.3.3,10,.8,20,2.5,29.8.2,1.1.9,2.6,0,3.3-3,2.5-3.1,6.3-4.8,9.4-5.6,10.3-7.9,21.4-8.7,32.9-.6,9.7,0,19.4,2.8,28.7,2.8,9.3,5.5,11.7,16,6.1,3.4-1.9,6.5-4.2,6.4-8.9,0-2.6-.9-4.8-2.6-6.5-1.9-2-2.3-4.3-2.4-7-.4-10.9,1.5-21.6,3.5-32.2.8-4.1,1-7.7-3.3-10-.8-.4-1.7-1.1-1-2.3,1.7-2.8.4-5.3-.9-7.8,1.4-.5,2.6-.9,3.8-1.4,1.3-.5,2.2-1.4,2.4-2.8,1.2-8.1,4.2-15.8,5-24,.3-3.7.7-7.4,1.4-11,1.1-5.7-.4-10.5-4.5-14.5-1.8-1.8-2.6-3.8-2.1-6.5.3-1.6.6-2.7,2.2-3.3,1.5-.5,2.9-1.4,4.5-1.8,16.3-4.5,32.6-8.9,49-13.3,3.7-1,7.7-.2,11.4,0,3.2.2,3.3,4,4.2,6.5.7,1.8-1.4,2.2-2.5,3-12.1,8.9-24.1,17.9-34.6,28.7-3.4,3.5-4.5,6.6-2.2,11,2.4,4.7,5.7,9,7.1,14.3,0,.4.7.9,1,.9,4.1-.8,6.7,2.7,10.2,3.5,5.5,1.3,8.4,5.3,11.4,9.6,4.9,7.2,10.1,14.2,14.3,21.8,1.1,2,1.5,3.4-.5,4.9-.5.4-.8,1-1.1,1.6-4.2,6-4.2,6.6,1.1,11.8-4.8,3-9.6,5.8-14.3,8.9-14.9,9.9-29.2,20.7-43.5,31.4-2.5,1.9-5,3.2-8.3,3.3-5.7.1-11.1,1.8-16.3,4.1-13.5,5.7-26.5,12.6-39.3,19.7-2.5,1.4-4.1,2.9-4.2,6.1-.1,2.4-.8,4.7-.8,7.2,0,1.3-.3,2.4-1.3,3.5-2.7,3-2.6,3.3.4,5.9,7.9,6.9,15.6,14,22.9,21.6,12.2,12.7,23.6,26.1,34.5,39.9,1,1.2,2.3,2.4,1.5,4.3-2.7,6.2,1.2,10,5,13.8,1.1,1.1,2.8,1.7,3.5,3.6-10.5,8.1-20.5,16.7-31.3,24.3-3.3,2.3-6.4,3-10.3,1.1-3.6-1.8-7.5-2.9-11.3-4.1-3.4-1.1-6.6-.6-9.6,1.5-4,2.8-8,5.5-11.4,9-3.9,4-4.3,6.4-1.5,11.2,5.1,9,10.1,18,16.3,26.3,1.6,2,1.4,3.5.1,5.5-1.9,3-3.7,6.1-5.2,9.3-1,2-2.5,3.8-2.2,6.3,5.3,1,5.2,1,7.1-3.5,1.2-2.8,2.5-5.6,3.8-8.4.7-1.5,1.4-2.3,3.6-2.1,4.8.4,5.8-1.2,4.1-5.8-1.4-3.7-3.2-7.3-4.8-11h.1c-3-3.4-4.7-7.6-7-11.5-2.8-4.9-5.6-9.8-9.9-14.3,4.3-2.9,8.4-5.9,12.6-8.7,1.1-.7,2.2,0,3.2.5,4.2,1.7,8.5,3.1,12.5,5.1,5.2,2.5,9.8,2.3,14.5-1.1,9.7-6.8,19.2-13.7,27.1-22.5,4.7-5.1,4.6-6.9.8-12.6-.6-.9-1.2-1.9-2.1-2.7-2.4-2.1-3.6-4.1-2.1-7.5,1-2.1,1.1-4.8-1.6-6.5-.5-.3-.9-.9-1.1-1.5-6.7-14.9-17.3-27.1-28.1-39.1-8.3-9.2-17.5-17.6-27.7-24.8-1.6-1.1-1.8-2.1-1.6-3.9.5-3.6,2.6-7,1.6-10.9-.2-.8,1-1.1,1.7-1.5,14.7-6.9,29.5-13.8,44.3-20.6,3.1-1.4,6.5-1.9,9.8-2.5,1.4-.2,2.3,1,1.8,2.3-.6,1.3-1.8,1.7-2.9,2.4-8.9,5.2-17.8,10.5-26.7,15.7-3.2,1.9-6.3,3.9-9.2,6.2-2.8,2.2-5.5,3.9-9.1.3.6,3.9,2.6,7.7-2.8,8.8,2.7,1.6,4.1-.6,6.1-1.3,10.1,13.1,21.4,25,32.2,37.4.7.9,1.4,1.8,2.3,2.5,2.6,2.2,4.2,4.5,3.7,8.2-.4,3,1.6,5.4,3.4,7.8,5.3,6.7,10.9,13.2,15.3,20.6,1.6,2.6,3.1,5.3,4.6,8,.8,1.4,2.4,2.7,1.8,4.3-.7,2.1-1.8,4.2-3.3,5.8-4,4.2-4.3,5.2-2.1,10.5.4,1,.9,2,1.3,2.8-11.3,10-22.2,20-31.1,32-1.5,2.1-3.9,4-2.1,7.2.3.5-.2,1.6-.4,2.3-2.4,6.6-2.2,13.2-1,20,.6,3.6,1,7.3,1.2,11,.1,2.3,1.2,3,3.3,3,5,0,10-.1,15,0,2.1,0,3.2-.6,3.8-2.8,3.8-15.5,7.8-30.9,9.6-46.8.1-1.3.3-2.6,0-3.9-.7-3.3.6-5.2,4.2-6.5,2.5,10.6,1.7,21.4,3.2,32.2,2.6.4,3.3-1.3,3.4-3.3.3-3.4.8-6.8.6-10.1-.5-10.9-.3-21.9-2.4-32.7-.3-1.4-.4-2.9-1.5-4-2.2-2-1.5-4.4-.8-6.7.5-1.7,1.5-3.2,2.2-4.8.7-1.7,3.3-3.3,0-5.1-.7-.4,0-1.8.2-2.7,4.1-18.1,2.9-36.2.4-54.3-2-15-5.2-29.8-10.4-44.1-1-2.9.9-2.9,2.6-3.3,11-2.4,21.8-5.7,32.7-8.7,11.3-3.1,22.6-6.3,33.8-10,4-1.3,3.9,2.4,6,3.4,1.6.7,0,2.2-.5,3.3-.8,1.6-1.7,3.1-2.1,4.9-.2.7-.3,1.3.4,1.7.5.4,1.2.6,1.8,0,.9-.7,2-1.2,2.6-2.1,9.6-13.3,23.6-21.3,36.8-30.3,1.8-1.3,3.8-2.4,5.6-3.6.5.2.5.5.3.9-.5,1.2-2.8,1.9-1.5,3.5,1.3,1.6,3.1.2,4.4-.4,3.9-1.9,6.3-5.5,9-8.6,11.7-13.2,23.4-26.3,34.8-39.7,14.1-16.6,28.1-33.3,40.5-51.3.7-1,1.2-2.4,2.9-1.8,2.2.9,4-.3,5.9-1.3,16.2-7.9,32.4-16,48.1-24.8.8-.5,1.8-.8,2.7-1.1,17-5.1,33.8-10.7,51-15,4.1-1,8.2-1.6,12.3-2.5,2.5-.5,5-.8,7.3-2.4,2.2-1.5,5-1.1,7.5-1.2,10-.4,20-1,29.9-1.9,3.5-.3,4.2.4,4.3,4,0,1.1,0,2.3-.3,3.4-1.3,6.4.1,12.8-.5,19.2-1.4,15.9-2.6,31.9-3.3,47.8-.5,11.8-7.5,19.3-16.1,25.6-7.9,5.9-15.2,12.5-22.5,19.1-1.6,1.4-1.9,3.6-3.4,5.5,6.4,1.5,11.3,5.6,17.1,7.9,1.4.6,2.5,1.3,3.2,2.7,4.1,8.2,7.9,16.6,11.1,25.2,0,.3,0,.6,0,.9-1.2,1.3-2.2-1-3.4,0,1.1,1.5,2.7,2.3,4.2,3.1,5.1,2.9,9.2,7,13.7,10.7.6.5,1.1,1.2,1.4,1.9,3.9,8.8,7.8,17.6,11.9,26.9-2-.1-2.9-1-3.9-1.7-11.2-7.2-23.4-12.4-35.7-17.1-14.8-5.7-29.5-11.3-44.8-15.5-3.1-.9-6.2-1.9-9-3.5-2.9-1.6-5.3-1.2-8.2-.3-19.3,6-37.6,14.5-55.5,23.8-17.8,9.1-35.7,18.1-52.9,28.3-2.9,1.7-5.4,4.8-9.5,4-.9-.2-1.6,1-2.2,1.7-12,14.3-26.3,26.1-40.2,38.4-1.3,1.1-2.9,2-3.2,3.9,1.3.8,2-.1,2.7-.6,14.4-10.7,28.9-21.1,41.8-33.6,1.2-1.1,2.2-2.4,4.1-2,1,.2,1.9-.4,2.6-1,12-8.9,25.3-15.5,38.5-22.2,17-8.6,33.5-18.1,50.9-25.7,8.4-3.7,17.1-6.8,25.5-10.4,2-.9,3.4,0,4.9.8,17.7,8.9,35.5,17.8,53.1,26.8,11.1,5.6,22,11.4,33.1,17.2,1.6.8,3.2,1.5,4.2,3.1,5.2,8.7,12.4,15.7,19.3,22.9,2.4,2.5,4.1,5.2,5.2,8.6,3.4,10.6,6,21.4,9,32.1.3,1.1.4,2.2.2,3.3-1.1,5.5-1.4,11.2-1.6,16.8-.4,13.9-.8,27.8-1.2,41.6,0,1.8-.4,3.5-.5,5.3,0,.6,0,1.3.8,1.6.8.3,1.1-.4,1.6-.8,1.1-.9,1.1-2.3,1.3-3.5,1.3-9.9,2.4-19.8,2.9-29.8.3-4.5.7-9,1.1-14.1,3,3.1,4.3,6.6,5.4,10.2,3,9.7,5.9,19.4,8.9,29.1,4.4,14.3,9,28.6,13.3,42.9.7,2.4,1.8,3.4,4.3,3.4,21.2,0,42.3,0,63.5,0h13.7c.7-3-1.1-4.9-1.9-7-2-5.5-5-10.5-8.2-15.3-3.9-5.7-9-8-15.9-6.6-3.5.7-3.2.4-4.8-2.8-2.5-5-2.1-9.2,1.1-13.8,2.5-3.5,3.8-7.8,5.7-11.7.4-.8.4-1.5,0-2.3-.5-1.2-.9-2.6-2.1-3.2-5.2-2.6-4.6-6.7-3.1-11.2.8-2.3.8-4.8,1.4-7.1.4-1.5.4-3.3-.5-4.2-2.9-2.8-2-6.2-2-9.5,0-20.9-6.6-39.4-20.8-54.8-11.1-12-24.1-21.9-38.3-30.1-6.9-3.9-14-7.3-21.6-9.7-4.8-1.5-9.6-2.7-14.7-2.4-1.7.1-2.8-.3-3.1-2.1-.9-6-5.1-8.3-10.4-8.6-4.8-.2-7.4-2-9-6.6-1.4-4.2-4.8-6.9-9-8.8-4.4-1.9-7.6-5-8.5-10.3-1.4-8.1-4.4-15.8-7-23.6-1.3-3.8-3.7-6.1-7.4-7.6-4.6-1.8-9.1-4.1-13.5-6.1-.3-1.8,1-2.1,1.9-2.7,7.6-5.5,14.8-11.5,22.5-16.8,2.7-1.8,5-4,7.5-6.1,6.2-5,9-11.7,9.2-19.5.7-19.7,1.7-39.3,1.3-59,0-1.4,0-3-.3-4.3-1.1-3.5-.1-6.6,1.1-9.8,2-5.6.2-8.3-5.7-8.7-15.6-1.2-31.3-.7-47-.5-15,.2-30,.6-44.8,3.2-8.3,1.5-16.6,2.9-23.4,8.4-1,.8-2,.8-3.2.4-1.7-.6-3.4-1.1-5-1.7-4.2-1.4-7-3.9-7.4-8.8-.5-6.6-2-13-3.6-19.4-.3-1.3-.4-2.5.4-3.7,2.1-3,4.2-6,6.5-9.4,1.6,3.6,1.4,7,2.3,10.2.9,3.5,2.2,6.7,4,9.8,1.1,2,2.3,4.1,4.6,4.7,1.7.5,1.5,2.3,3,3.3.6-7.6-2.1-15.1.5-22.4,1.1.3,1.3,1.3,1.5,2.2.9,3.3,2.2,6.4,3.7,9.4,1.6,3.1,3.3,5.8,7.5,5.7,1.3,0,2.6,1.2,4,1.7,2.2.7,4.4,2,6.9,1.5,0-1.8-1.2-1.5-2-1.9-8.2-4-11.7-11.2-9.6-19.9.4-1.5,1.1-1.7,2.5-1.4,1.7.5,2.6,1.8,3.8,2.9,2.2,2,4.5,4.1,8.5,4.7-2.4-3.6-5.5-5.7-7.7-9.6,5.1,3.2,7.6,8.6,12.6,10.2,4.9,1.6,9.3,4,14.3,5.5-4.7-4.9-11.3-7.3-16.6-13.1,3.7-.3,5,2.7,7.6,2.4-3.8-4.4-9.4-7.1-10.7-13.6,1.9,0,2.9,1.1,4.1,1.8,4.4,2.4,9,3.5,13.9,1.8,1.4-.5,2.8-.4,4.3,0,1.5.4,3.1.9,4.8.4.2-1.3-1.6-.2-1.4-1.9.8-1,3.4-.5,4.1-2.6-10.7,0-18.5-4.6-19.7-12.8,4.4,1.6,8.5,3.3,12.7,4.7,2.4.8,4.7,2,7.4,2.1,2.2,0,3.8-.4,4.3-2.8.5-2.6,2.4-4,4.3-5.6,7.5-6.4,15.4-12.3,21.1-20.5,1.2-1.7,2.3-3.5,3.2-5.4.6-1.1,1.4-2.7,1.1-3.6-1.6-4.7,1.8-6.1,4.7-7.9,3.8-2.4,7.6-4.9,11.5-7.2,10.8-6.6,15.5-16.9,17.7-28.7.6-3,1.3-5.7,3.2-7.9,4.7-5.5,7.1-11.7,7-19,0-3,.8-6.1.6-9.1-.2-3.9-.8-4.2-4.7-4.2-2.4,0-4.8.3-7.3.8.6-3,2.2-5.3,3.3-7.7,4.1-9.2,6.2-18.9,7.2-29,1.1-11.2,2-22.5,2.4-33.7,0-3-.3-5.6-4-6.1.2-.4.3-.8.5-.9,5.5-2.6,6.8-7.7,7.9-13,2.3-12,5.1-23.9,6.3-36.1,1.3-14.1-1-28-4.1-41.7-1-4.2-2.3-8.4-3.3-12.6-.4-1.5-1.8-3.3.5-4.6.6-.3.4-1.4-.3-1.6-2-.6-3.9-1.8-6.3-.9-3.1,1.3-6.4,2.1-9.8,2-4.2,0-5.3,1.2-4.6,5.4,1.3,8.3,3.5,16.4,5.3,24.6,1.1,5.2.5,6.5-4.2,9.2-6,3.4-12,7-18.3,9.8-3.6,1.6-3.8.9-5.3-1.7-2.3-3.9-4.8-7.6-7.8-11.1-3.5-4.1-5.9-4.4-10.1-.7-1,.9-2,1.5-3.2,1.8-18.9,4.8-37.4,10.9-56,16.8-2,.6-4,1-6.1.4h0c0-.1,0-.1,0-.1ZM429.4,434.8c-.6-1.7-.3-3.1,1.5-4.3-.4,1.7-.8,3-1.6,4.2-.6,2.7-1.5,5.3-2.9,7.8-.9,2.7-1.7,5.4-2.6,8-5.4,13.8-9.8,28-14.2,42.1-1,3.2-1.7,6.2.5,9.3.7,1,.5,2.5.7,3.8.5,3.5.7,7.1,1.5,10.5,5.3,22.9,14,44.3,27.8,63.7-4.2,2.8-8.9,5.3-13.7,7.5-2.6,1.2-5,2.8-8.2,2.5-1.3-.1-3.3.5-3.6,2-.7,3.4-3.8,4.6-5.7,6.8-2.2,2.7-6.5,3.1-7.5,7.1-.1.6-1.1.7-1.7.2-2.7-2-3.7-.5-5.1,1.8-1.6,2.6-3.2,5.5-7.5,4.4-1.8-.5-4.2.6-5.6,2.4-1,1.4-2.4,2.1-3.8,2.9-16,9.2-33.1,16-49.9,23.4-1.6.7-3.4,1.2-5.1,1.3-2.1.2-4.1-1.7-3.5-3.5,1.1-3.4-.4-6-1.6-8.7-7.2-16.2-13.9-32.6-20.3-49.2-.4-1.1-1.4-2.2-.8-3.6,3.6-1,7.7,1.5,11.1-1.6-1.6-3.7-4.3-5.2-8.1-4.8-1,0-2,0-2.9.2-2.6.7-3.7-.3-4.5-2.8-2-6.3-4.3-12.5-6.4-18.8-4.2-12.7-8.8-25.3-11.5-38.4-1.3-6.3-2.2-12.7-4-18.9-1.3-4.2-1.3-4.1,2.7-6,8.6-4.1,17-8.5,24.7-14.1,2.5-1.8,3.9-5.3,7.6-5.6.5,0,.3-1,.2-1.7-1.1-5.2-.7-10.6-1.4-15.9-1.4-11.4-3.1-22.7-7-33.5-1.2-3.4-.3-5.5,1.4-8.3,2.9-4.7,6.5-6.7,12.1-7.1,11.4-.8,22.8-2.5,34.2,0,3.8.8,7.5,1.2,11.3.1,1.5-.4,2.2-1,2.8-2.2.6-1.4,0-2.6-1-3.5-1.7-1.5-3.4-3-5.6-3.7-7.7-2.7-15.6-4-23.8-3.1-5.6.6-11.1,1.4-16.9,2.1.5-3.2,2-4.7,5-5.3,18.2-3.6,35.3-10.2,51.2-19.7.9-.5,1.8-1.5,3.3-.4-.3,2.1.6,4.2.7,6.5,1.2,22.4.3,44.5-7.2,65.9-.6,1.7-.9,3.3.6,5.1,4-6.2,5.6-13,8.4-19.3-.4,4-2,7.7-3.1,11.5-.4,1.5-2.2,3.7-.7,4.3,2.2.9,2.8-1.9,3.6-3.5,3-6.6,4.6-13.7,6.3-20.8.9-4.1,1.7-8.2,2.6-12.3,3.5,10.2,4.8,20.6,5.7,31.2,2.2-6.7,4.9-13.2,6.1-20.2,4.4,8.1,7,16.3,7.2,25.4.2,8.7-2,16.9-4.7,25.1-3,9.2-4.1,18.5-2.5,28.1.3,1.6,0,4.2,2.1,4.3,2.8,0,1.4-2.7,1.9-4.1,0-.2.1-.3.4-.8,1.1,1.4,1.5,3.4,3.9,3.5,2-7.7.8-16,4.2-23.8,2.3,2,2.8,4.8,5.7,5.4.4-.9.9-1.8,1.2-2.7,2.7-6.6,5.3-13.2,8-19.7.4-1,.3-2.9,2.3-2.4-.6-3.4.1-5.5,2.7-8-.5-3.1.6-5.7,2.9-7.8h0ZM434.8,418.9c.3,2.7-1,5-2.5,7.1.2-2.6.8-5,2.6-7,1-5.5,2.9-10.7,5.8-15.5-.3-.8,0-1.6.2-2.3,4.2-11.1,8.3-22.3,12.5-33.4.2-.6.5-1.1,1.3-1.2.8,1,0,1.9-.4,2.7-3.8,10.1-7.6,20.2-11.4,30.2-.5,1.4-.5,3.2-2.2,4,.7,1.7-.4,3.2-1,4.5-1.7,3.6-1.9,7.9-4.8,11h0ZM576.2,524.4c1.5-.6,2.8-1.8,5.1-1.2-2,.9-3.4,2.2-5.2,1.1.5,1.5-.8,1.6-1.5,1.9-4,1.6-8,3.1-12.1,4.5-.8.3-1.7,1.2-3.2,0,5.9-2.2,11.4-4.3,16.9-6.3h0ZM712.1,492.6c-.2.7-.8.8-1.4,1-6,1.8-11.9,3.6-17.9,5.5-.8.2-1.5.5-2.3,0,.5-1.2,1.7-1.3,2.7-1.6,4.9-1.4,9.8-2.9,14.7-4.3,1.4-.4,2.8-.8,4.2-.4,1-1.8,3-1.6,4.6-2.1,17.9-5.2,36-9.8,53.6-16,3.3-1.1,6.5-2.2,9.8-3.4-5,3.7-10.7,5.7-16.4,7.6-12.8,4.3-26,7.5-39,10.8-4.2,1.1-8.2,3-12.6,2.8h0ZM432.8,348.6c-.9,1.1-1.9.7-2.8.7-14.4-.4-28.7-.7-43.1-1.2-14-.5-28-1.2-42.1-1.7-17.7-.6-35.5-1-53.2-1.5-22.4-.6-44.8-1.3-67.2-1.8-7.6-.2-15.2-.8-22.7-.7-13.2.3-26.5-.5-39.7-.4-2.7,0-5.4-.5-8.1-.7-.1-3,.9-5.3,2.6-7.3,8.7-10.6,16.2-22.1,23.9-33.4,8.6-12.5,16.3-25.6,23.8-38.7,9.4-16.4,19.7-32.2,29.8-48.1,2.3-3.7,3.5-4.5,7.8-3.9,5.3.7,10.5,1.5,15.8,2.3,21.1,2.9,41.9,7.1,62.6,12.2,26.3,6.5,52.4,13.6,77.8,23.2,18.2,6.9,36.2,14.5,54.6,21,2.2.8,4.6,1,2.9,4.4-.6,1.3.8,1.9,1.7,2.6,2.9,2.2,5.8,4.3,9,6.6-6.5,5.3-11.5,11.4-16,17.9-6.8,10-14.1,19.7-22.5,28.4-2,2.1-3.8,4.4-5.4,6.8-2.8,4.1-2.4,6.1,1.8,8.5,2.9,1.7,5.8,3.2,8.7,4.9h0ZM466.1,793c.8-2.2,2.1-3,3-4,3.4-3.7,4.6-8.1,3.5-13-.6-2.8-.8-5.2,1.1-7.6,1-1.3,1-3.1.7-4.7-1.6-7.6-4-14.9-9.1-21.1-.7-.9-1.3-1.5-.8-2.9,1.4-4.1,1.1-6.6-.7-10.5-.3-.6-.5-1.2-.8-1.8-4.8-9.9-10.1-19.5-16.5-28.4-1-1.4-2-2.9-3.6-3.9-.8-.5-1.8-1.2-2.6,0-1.9,2.8-3.8,1.3-5.8.1-1.5-.9-3-2-4.6-2.7-1.7-.9-2.5-2.1-2.9-4-1.1-5.3-2.5-10.6-4.1-15.8-.5-1.6.3-2.1,1.1-2.7,3.1-2.6,6.2-5.2,9.5-7.5,10.6-7.5,20.4-16.3,32.6-21.3.8-.3,1.6-1.1,2.1-1.9.7-1.2,1.9-1.8,2.9-2.4,23.8-14,48.4-26.4,74.4-35.9,24.3-8.9,49.5-14.5,74.9-19,2.3-.4,4.6-1.6,7.3-.7-.8,5.9,3.6,11.3,1,17.4,3.5.7,4.7-.2,5.4-3.9.3-1.6-.4-3.4.7-4.7,3.4-4,6.5-8.3,11.3-12.3-.7,3.1-.7,5.7-1.9,7.3-1.5,1.9-1.5,3.9-1.5,5.9,0,2.6.5,5.1.9,7.7,1.8,9.4,5.3,18.2,8.8,27.1.8,2,2,3.8.7,6.3-.9,1.7.6,4.1,2.3,4.9,6.5,2.9,12.6,7.1,20.4,5.3,2.5-.6,5-.6,7.6-.8-6,2.8-12.2,5.1-18.3,7.6-2.3.9-5,1.5-6.1,4.2-.3.6-1.2,1-1.9,1.4-11.4,5.6-22.9,11.1-34.4,16.7-1.5.7-2.9,1.3-4.6.4-1.8-1-3.5-.2-4.8,1.1-1.7,1.7-3.5,3.4-5,5.3-10,12.2-19.8,24.6-29.9,36.8-12.5,15-25.5,29.5-37.7,44.7-5.6,6.9-11.5,12.7-19.9,16.1-4.6,1.8-8.7,4.9-13,7.4-1-1.8.3-3.3.3-4.9,0-2.1-1.2-3-2.9-3.2-1.6-.1-1.5,1.3-1.7,2.4-.3,1.4-.8,2.9-.7,4.3.4,5.5-3.1,7.7-7.4,9.4-2.7,1.1-5.1,2.7-7.2,4.8-.8.8-1.2,2.4-2.8,2.2-.4-1.9-.7-3.9-1.3-5.7-1.1-3-3.5-3.9-6.3-2.5-3.7,1.8-7.7,2.2-12,3.3h0ZM720.1,337.1c3.2.3,4.3-1.1,2.9-4.4-.7-1.6-1.7-3.1-2.6-4.6-2.1-3.6-2-4,1-6.9,1-1,2.2-1.4,3.4-1.8,11.2-3.7,22.4-7.3,33.5-11.1,2-.7,3.1-.5,4.4,1.3,5.3,7.5,9.5,15.6,12.5,24.3.8,2.2.6,3.8-.6,5.8-7,11.6-13.6,23.4-19.1,35.8-4.5,10.2-8.5,20.6-13.4,30.6-5.8,11.8-12.2,23.5-13.9,36.9-.2,1.7-1,3.5-2.9,4.7-16.6,10.8-32.6,22.6-48.2,34.9-2.7,2.1-5.2,4.3-7.2,7.1-.5.7-1.6,1.7-.7,2.5,2.1,1.9.4,2.6-.8,3.6-2.2,1.9-4.4,3.7-6.6,5.6-1.9,1.7-3.8,3.6-4.7,5.9-3.6,8.4-6.9,17-10.3,25.5-.7,1.9-1.8,3.2-3.8,4-3.1,1.2-6.1,2.9-9.1,4.4-7.2,3.6-14.1,7.9-21.6,10.8-1.6.6-3.3,1.8-5,1.3-1.6-.4-.7-2.6-1.7-3.7-.4-.5-.9-.9-1.2-1.5-1.2-1.9-2.1-4-2.4-6.3-1-8.7-1.3-17.4,0-26,.5-3,1.1-6.1,3.6-8.2,6-5,13-8.3,20.3-11.1,1.5-.6,2.9-1,4-2.2,6.6-8,12.1-16.7,16.4-26,6.9-15,10.4-31.2,15.3-46.8.5-1.7,1.1-3.7.2-5.2-1.4-2.3-.9-4.6-1-7,0-1.9-.1-3.8-.5-5.8-2.8-16.1-8-31.5-14.1-46.7-.5-1.2-1.2-2.3,0-3.5,3.9-4.1,7.8-8.2,11.7-12.2.9-.9,2.2-2,3.3-.4,3.3,4.7,7.8,4.5,12.6,3.2,2-.6,3.7-.4,5.7,0,2.3.5,4.8,1.3,6.8-.9,1.1-1.1,2.3-.7,3.6-.2,1.5.6,3,1.1,4.6,1.4,1.5.3,3,0,3.3-1.9.2-1.9,1.4-1.6,2.3-.9,2.3,1.8,4.3,3.9,5.7,6.5,1.8,3.4,3.9,6.7,5.9,10,1.4,2.4,3.4,4.3,5.6,6,1.3,1,2.8,1.8,4.5.8,1.7-1,1.5-2.8,1.4-4.3-.1-1.3-.6-2.5-1.1-3.7-1.2-3-2.8-5.8-4.4-8.6-1.3-2.2-2.5-4.5-3.5-6.9-1.8-4.6.2-5.9,3.7-4.8.8.2,1.6.3,2.6.5h0ZM453.7,504.5c-1.3-2.3-2.3-4.7-3.7-6.8-2-3-1.9-5.8-.7-9.1,3.7-10,7.1-20,10.7-30.1,9.7-27.2,21.3-53.6,37.2-77.9,8.5-13,17.7-25.4,28.2-36.8,4.8-5.2,10.6-8.8,17.6-10.3,7.6-1.7,15.3-2.3,22.9-3.2,9.5-1.1,18.9-1.2,28.2,1.6,2.5.7,5,1.2,7.5,1.9,8.4,2.3,16.7,4.8,24.5,8.8,4,2.1,7.1,5,9.2,8.9,7.2,13.2,12.4,27.3,16.7,41.6,2.2,7.1,3.5,14.4,5.8,21.4.7,2,.9,3.4.1,5.3-3.9,9.6-7.5,19.2-10.4,29.1-4,13.5-10.1,26.1-16.9,38.4-1.2,2.1-2.5,3.5-4.9,4.2-6,1.8-11.7,4.6-17.1,7.8-5,2.9-10.1,5.8-13.4,10.8-.8,1.2-2.1,1.4-3.3,1.8-4.3,1.4-8.6,2.8-12.8,4.3-15.9,5.7-31.6,12-47.1,18.8-2.2,1-4,1.2-6.3-.1-3.2-2-6.9-2.6-10.5-3.5-2.6-.6-5.1-.3-7.4,1.3-2.2,1.5-4.5,3-6.8,4.5-.7-.8-1.2-1.4-1.8-1.9-7.2-8.2-14.1-16.8-21.9-24.5-3.1-3.1-6.2-6.1-9.8-8.6-4-2.8-7.2-2.6-11,.3-.8.6-1.2,1.5-2.9,1.8h0ZM509,165.9c-.9,1-1.3,1.5-1.7,2-4.6,5.6-10.6,8.7-17.8,9.3-3.4.3-6.7.4-9.6-2.1-1.4-1.2-3.4-1.7-5.2-2.4-8-3.2-16.3-5-24.7-6.6-21-4.1-42.3-7.2-63.6-9.5-15-1.6-30.1-2.8-45.3-1.6-13.5,1-26.5,3.3-37.8,11.4-1.4,1-2.4,1-3.9.4-2.9-1-4.5-2.6-4.5-5.9,0-1.5-.4-3.2-.9-4.7-2-5.7.3-11.8,5.7-14.6,12.6-6.5,25.4-12.6,38.3-18.5,1.2-.5,2.3-1.1,3.7-.6,4.9,2,10.1,1.8,15.1,2.8,2.9.6,6,.4,8.9,2-1.7,2.7-2.9,5.3-3.5,8.2-.8,4.2.2,5.8,5.3,7.9-3.7-4.4-2.8-8.3-.6-12.2.2-.4.4-.9.5-1.4.2-2.8,2.1-2.8,4.1-2.6,4.6.5,9.3.9,13.9,1.5,2.6.4,5.5,0,8,1.8-10.3.7-17.2,3.9-21.3,9.9.3,0,.7.1.9,0,6.4-4.1,13-7.5,20.9-7.7.9,0,2-.2,2.8-.7,2.2-1.5,4.5-1.3,7-.9,23,3.9,45.9,8.6,68.3,15.5,13.4,4.1,25.1,11.4,37.1,19.2ZM800.2,427.7c-.8,5.4-2.4,10.1-4.3,14.7-1.9,4.8-4.8,9.3-5.3,14.5-.6,5.6-3.6,8.1-8.6,9.1-.3,0-.6.2-.9.3-4.1,1.4-7.4.5-10-2.8-.3-.4-.6-.8-.9-1.1-1-1.2-1.9-3-3.7-2.7-3,.4-5.9,1.2-8.9,2-.4.1-.9,1.1-.9,1.6.3,2.1-.6,2.6-2.4,2.1-.7-.2-1.5,0-1.7.6-1.2,2.9-2.9,1.6-4.5.6-1.9-1.2-3.7-2.6-5.6-3.8-2.7-1.7-4.5-1.2-5.9,1.5-1.7,3.3-1.3,6.6,1,9.5,1,1.3,2.5,2.3,3.1,4.3-23,6.9-45.3,15-68.2,21.9,5.3-5.6,10-11.4,15.1-17,4.6-5.1,9.4-10,15.2-13.9,5.3-3.6,10.5-7.5,15.6-11.4,3.2-2.4,6.4-4.7,10.6-5.3,3-.4,4.9-2.2,5.6-5.6,2.7-14.6,9.9-27.5,15.5-41.1.4-1,.8-2,2.2-2.3,7.7-1.8,14.9-5.3,22.2-8.2,9.4-3.8,18.8-7.7,27.5-13.1,3-1.9,4.1-1.2,4,2.3,0,1.9-.5,3.8-.6,5.7-.2,3-.2,2.9-3.4,3.8-1,.3-2.4.1-2.5,1.7,0,1.4.6,2.5,1.7,3.2.5.3,1.2.4,1.8.4,3.4.3.8,1.7,1.1,2.9-1.3-.5-2-.9-2.8-1.1-3-1-3.6-.7-3.8,2.6,0,1,0,1.9,0,2.9.2,1.4.6,2.9.6,4.3,0,1.3-1.4,2-2.4,1-1.2-1.2-2.2-2.7-3.6-3.9-2-1.7-4.1-2.6-6.6-1.3-2.8,1.4-4.3,4-3.5,7.1.4,1.6-.3,2.3-.8,3.4-1,2-2.7,1.3-4.2,1.6-6.6,1.1-12.3,5.8-7.3,13.7,2.2,3.5,2,3.6,5.1.5,1.7-1.7,3-2.4,5.3-.6,2.8,2.2,4.7,1.9,7.2-.8,1.6-1.7,3-3.8,4.4-5.7,1.6,2.2,4.4,2.7,8.3,1.5h0ZM785.5,230.2c1,1.6,2.5,2.7,1.7,4.8-1.8,4.5-3.8,8.8-7.2,12.5-11.3,12.4-30,13.3-44,8.6-1.5-.5-2.2-1.6-2.5-3.2-2.2-12.3-8-22.7-16.8-31.4-3.3-3.2-6.9-5.9-11.5-6.7-2.2-.4-2.6-1.5-2.5-3.3.5-10.4,4.1-19.4,12.1-26.4,7.7-6.7,17-8.9,26.9-9.1,11.6-.3,11.8,0,18,10,2.6,4.3,4.2,9.1,7.3,13.1,1.3,1.6,2.1,3.1,1.5,5.6-.9,3.7,2.2,7.4,6.2,8.1,1.1.2,1.7.6,2.2,1.5.9,1.7,1.8,3.4,3,5.4-3.2.7-5.6,2.6-8.7,2.9-5.8.5-11.6.7-17.4.2-4.3-.4-8.7-.7-13,.1-4.6.9-7.9,3.5-8.1,6.5-.3,4.2,2.7,6.5,5.9,8.1,5.4,2.7,11.2,4.2,17.3,3.9,5.1-.2,10.2-.9,15.4-1.5,6.3-.7,11.2-3.5,14.3-9.6ZM892,931.4c-2.3-3.8-4.2-7.3-6.4-10.7-8.8-13.4-18.7-25.7-33.2-33.7-6.6-3.7-12.5-8.6-20.7-8.1-1.7,0-2.8-1.6-1.8-3,2.2-2.9,1-5.6,0-8.2-2.6-6.9-6.6-13-11.1-18.6-2.2-2.7-2.7-4.9-1.4-8.2,1.5-3.6,1.2-3.7,5-2.8,6.4,1.6,12.6,3.8,18.7,6.4,13.8,5.9,26.1,14,35.9,25.5,10.5,12.1,16.5,26.2,18.4,42.2.8,6.7,1.3,13-3.5,19.2h0ZM426.2,338.1c1.2-2.6,3-4,4.6-5.5,5.7-5.7,11.1-11.6,15.9-18.1,3.8-5.2,7.7-10.3,11.7-15.4,4.2-5.3,9.1-10,14.5-14.1,2.7-2.1,5.5-2.3,8.5-.4.6.4,1.1,1.7,1.8.8,1.7-2.1,2.9-.3,4.1.4,8.8,5.7,11.8,14.6,11.3,24.3-.8,15.6-8.4,27.8-21.7,36.2-5.4,3.4-11.4,5.2-17.9,4.5-2.1-.2-4.1-.5-5.7-2.2-1.6-1.8-3.3-2-5.4-.2-2.7,2.2-4,2-6.6,0-4.7-3.7-9.6-7-15-10.1ZM666.7,550.5c4.3-1.8,7.9-3.1,11.4-4.7,23.1-10.9,47.5-15,72.9-14.4,3.8,0,5.5,1.2,7,4.7,1.3,3,.8,4.5-.9,6.7-4.8,6.4-10.9,11.4-16.5,16.9-1.5,1.5-2.8,1-4.4.4-8.1-3.2-16.2-6.4-24.3-9.5-1.1-.4-2.2-1.1-4.4-.2,9.5,5.5,19.1,9.1,28.1,13.7-.7,2-2.3,3-3.2,4.5-1.3,2.1-2.8,2.2-4.9,1.5-15.9-5.3-32-10-48.1-14.5-4.1-1.1-8.4-2.2-12.8-4.8h0ZM399.7,193.3c-29.3-9.7-58.2-19.3-88.7-23.8,4.3-2.8,8.8-4.9,12.9-7.6.6-.4,1.5-.1,2.3-.2,5.1-.3,10.3-.2,15.4-1.1,3.6-.6,5.9.7,7.9,3.2,3.7,4.5,7.5,4.7,11.4.6,3.3-3.4,6.4-4.3,10.8-2.4,3.1,1.3,6.3,1.8,9.5,1.1,3.2-.7,6.4-.4,9.6-.3,12.7.5,25.4,1.6,37.8,4.3.8.2,1.7,0,1.8,1.1,0,.1-.1.4-.2.4-8.4,5.2-16.4,10.8-23.3,17.9-.6.6-1.2.9-2.1,1-4.4.7-4.4.8-5.1,5.7h0ZM348.6,118.8c1.4-.7,2.8-1.4,4.3-2,13.9-5.5,27.8-11,41.8-16.5,1.8-.7,3.9-1.3,3.7-3.7-.2-2.5,1.1-2.9,3-3.4,5.9-1.5,11.8-3.1,17.8-4.6,24.1-6.1,48.6-10.2,72.5-16.6,8.1-2.2,15.1-1.4,22.4,1.9.7.3,1.5.5,2.2.9.9.5,2.3.4,2.2,2.1-10.3.7-20.5,2-30.6,3.9-34.3,6.5-66.8,18-96.6,36.6-1.6,1-4.1,1.5-4.9,2.9-1.4,2.8-3.3,2.7-5.8,2.4-2.6-.3-5.1-.3-7.7-.3-8.1,0-15.9-2.4-24.2-3.5h0ZM418.8,633.2c1.5-2.2,3.5-3.1,3.8-5.2.1-.7.9-1.2,1.8-1.5,7.6-2.3,14.2-6.8,22-8.7,2.4-.6,5.1-1.4,6-3.6,1.5-3.4,4.4-4.5,7.2-5.9,2.7-1.4,5.3-3,7.7-5,1-.8,2-1.5,3.4-1.5,6.6.3,12.7-1.8,18.7-4.3,1.8-.8,3.1-.7,4.8.6,2.9,2.2,6.2,3.4,10,2.7,4-.7,8-1.2,11.9-2.1,10.2-2.4,19-7.8,27.4-13.9,3.5-2.5,6.9-5.1,11.7-6.2-1.1,5.4,3.1,5.7,6.2,6.9-.2.9-.6,1.1-1.1,1.2-23.3,8.1-45.6,18.7-67,31-5,2.9-10,5.9-15,8.8-1,.6-1.8,1.3-2.9,0-3.8-4.4-9.4-4.4-13.7-3.1-5.3,1.5-10.6,2.2-15.9,3.6-8.7,2.2-17.5,4.1-26.8,6.3h0ZM296.8,135.4c-1.3,1.4-2.3,2.4-3.3,3.5-4.8,5.3-7.6,11-4.3,18.4,1.9,4.2.9,8.4-2.3,12.1-5.1,6-11.3,10.4-18.7,13.3-4.5,1.7-8.9,2.9-13.3-.6-.8-.7-2-.9-3.1-1.3-.9-.3-1.9-.6-2.3-1.6-1.5-4-4.9-6.7-7.3-10.1-1.5-2.2-1.4-3.3.4-5.2,11.3-11.5,23.5-21.9,37.2-30.7,4.7-3,8.4-3,12.7-.4,1.2.7,2.5,1.5,4.2,2.5h0ZM141.4,338.3c33.1-54.8,66.6-108.5,98.4-163.5,1.3,1,2.5,1.8,3.5,2.9,2.5,2.6,2.5,5.4-.1,7.8-5.8,5.2-10.2,11.7-15.7,17.1-1,1-1.8,1.9-.9,3.3,2.2,3.7,1.1,6.9-1.4,10.1-5.2,6.6-9.9,13.5-14.3,20.6-10.9,17.5-20.3,35.9-31.7,53.1-8.5,12.9-17.6,25.5-26.4,38.1-1.7,2.4-5.3,3.8-4.3,7.8,0,.3-.8,1-1.3,1.3-1.4.7-2.8,1.6-5.8,1.3h0ZM386.5,96.6c-1.4.6-2.5,1.2-3.7,1.6-11,4-21.9,8.4-32.6,13.3-15.7,7.1-31.3,14.5-46.4,22.8-3.1,1.7-3,1.7-4.9-1.5-.6-1.1-1.5-2.1-2.4-3-2.5-2.6-2.3-3.8,1-5.6,4.7-2.6,9.3-5.1,13.9-7.8,15.2-8.8,30.6-17.3,47.4-22.8,1.5-.5,3-1.1,4.7-1,6.3.5,12.5.8,18.8,1.2,1.7,0,3.2.4,4.1,2.7h0ZM587.5,325.5c3.1-2.9,5.5-5.7,8.2-8.2,5.4-5,11.3-6.8,18.6-4.9,7.5,2,14.8,4.4,22.2,6.6,6.2,1.8,12.3,3.9,18.2,6.4,2.2.9,2.4,1.8,1,3.7-1.5,2-3.6,3.3-5.9,4-4.9,1.4-9.2,3.8-13,7.1-1.2,1.1-2.1,1.4-3.8.5-11-6.2-23-9.8-35.3-12.7-3.4-.8-6.8-1.6-10.2-2.4h0ZM458,565c2.6.7,4.4-.2,6.1-.9,11.5-4.6,23.3-8.4,35.3-11.6,1.7-.5,2.9-.5,4.1,1,4.6,5.8,9,11.8,12.7,18.2,1.3,2.2.9,3.5-1.1,5.2-9.5,8-20.2,13.7-31.7,18.1-3.2,1.2-6.5,1.8-9.9,2.3-2.5.4-4.2-.5-5.3-2.5-3.6-6.7-7.6-13.1-10.5-20.1-.4-1-1.2-2.2-.3-3.2,1.8-1.8.8-3.9.5-6.6h0ZM462.9,174.8c-3.4,1.9-6.1,3.4-8.7,4.9-10.5,6.3-20.9,12.7-30.6,20.1-1.2.9-2.4,1.7-3.9,1-5.8-2.3-11.6-4.6-17.4-6.9,3.6-.5,4.9-3.8,7.2-5.6,7.6-6.2,15.6-11.9,23.5-17.6,2.3-1.7,4.5-2.2,7.2-1.4,1.2.4,2.5.5,3.8.8,6,1.6,12.2,2.4,19,4.8ZM661.8,339.6c1.6-1.3,3.2-1.6,4.7-2.1,10.3-3.2,20.6-6.3,31-9.5,5.1-1.6,10.1-3.2,15.2-4.8,1-.3,2.7-.9,2.9.5.6,3.5,3.6,6,4.2,9.5-2.1.9-4-.1-5.9,0-2.9.2-3.7,1-3.5,3.9.2,2.7,1.5,4.9,2.8,7.1,2.3,4.1,4.9,8,6.2,12.5.5,1.7,1.5,4-.1,5-2,1.3-3.4-1.1-4.6-2.5-3.4-3.5-5.7-7.8-8-12.1-1.7-3-3.9-5.5-6.7-7.6-1.6-1.2-3.5-2.9-4.9.5-.3.8-1.1,1-2,.6-1.4-.5-2.7-.9-4.1-1.4-2.3-.9-4.6-1.6-6.6.8-.8.9-2.1,1-3.2.7-3.3-.9-6.4-.3-9.5.5-2.7.7-5.4.8-7.8-1.9h0ZM414.9,496.8c.2-.9.3-1.6.6-2.2,5.5-12.7,10.5-25.7,15.4-38.6,8-21.1,15.7-42.3,22.7-63.8,2.3-7.2,4.4-14.5,6.5-21.8.3-1.1.5-2.2,2.1-1.9,1.8.3,1.2,1.4,1.1,2.5-1,8.5-2.8,16.8-4.9,25.1-.5,1.8-.8,3.3-3,3.8-1.8.4-2.2,2.2-2.7,3.8-1.5,4.9-3,9.9-4.6,14.8-4,12.8-9,25.2-12.3,38.2-1.7,6.9-3.7,13.7-5.7,20.5-.5,1.7-.7,3.8-3.6,3.7-1.7-.1-2.1,1.6-2.5,3.1-.6,2.5-1.3,5-2,7.5-.9,3.4-2.7,5.8-7.2,5.3h0ZM812.4,353.2c0-9.4-.6-18.8-2-28-2-13.7-5.2-27.2-8.6-40.6-.9-3.7-1.5-7.1.9-10.8,1.6-2.4,3.4-1.8,5.3-2,1.9-.2,1.7,1.5,2,2.7.9,4.4,1.9,8.8,2.7,13.3,1.9,10,3.8,19.9,4,30.2.2,12-1.9,23.7-4.3,35.3h0ZM367.7,771.6c-2.5-15,.5-42.6,6.2-52,1.4,1.9,2.9,3.4,4.7,4.7,1.8,1.3,2,2.7,1.4,5-2.9,10.1-4,20.5-3.3,31,.3,4.7-1.7,8-5.9,9.9-.9.4-1.7.8-3,1.4h0ZM537.5,89.9c.1-1.8,1.4-2.2,2-3.1,3.5-5.1,8.2-6.8,14.5-6.1,10.4,1.3,20.8,2.1,31.2,4,1,.2,1.7.5,2.2,1.5,3.1,6,3,7.1-1.7,12.1-.3.4-.7.7-1,1-2.7,2.6-3,2.6-4.5-.9-1.7-3.9-3.7-7.5-6.6-10.6-1-1.1-1.9-2.2-3.6-2-5,.5-10,.8-14.9,1.5-5.7.8-11.4,1.8-17.5,2.8h0ZM443.5,568.8c-4.2-4.4-6.3-9.1-8.4-13.8-6.7-15-13.4-30-17.5-46-.4-1.6-2.3-4.1.8-4.8,2.4-.5,2.3,2.3,2.7,3.8,2.3,9.8,6,19,10.7,27.9,4.7,9,10.2,17.5,16,26.2-3.4.6-4.6,2.8-4.2,6.6ZM405.4,211.5c2.1-1.9,3.7-1.8,5.3-1.5,3.5.6,7,1.3,10.3,2.7,15.5,6.8,30.7,14.4,44.4,24.5.8.6,1.8,1,2,3.1-20.8-9.7-40.7-19.9-61.9-28.8h0ZM436.2,616.1c-3.5,2.6-7.2,4.2-10.6,6.2-1.8,1-2.7.5-3.8-1.2-3.4-5.5-6.1-11.4-8.8-17.2-.5-1-1.5-2.3.2-3.3,1.7-.9,2.4.5,3.1,1.4,2.2,2.7,5,4.5,7.9,6.2,4,2.4,7.8,5.1,11.9,7.8ZM518.9,289.4c1,.3,1.3.3,1.5.5,8.5,7.7,13.5,17.4,17.1,28.1.4,1.1.6,2.3-.6,3.1-2.1,1.3-3.6,3.7-6.5,3.8-1-12.7-5.5-24-11.5-35.5h0ZM407.6,632.6c.4-5-.6-9.4-.9-13.9-.3-4.4-1.7-8.9-.7-13.5,4.3,8,8.2,16.1,14.8,22.7-4.4,1.5-8.2,3.7-13.3,4.7ZM380.2,694c-.8-1-1.1-1.3-1.2-1.5-.2-11.4-.9-22.8-2-34.2-.1-1.1.2-1.8,1.5-1.9,1.7,0,3,0,4.1,1.8,1.6,2.5,2.8,4.9,1.7,8.1-.6,1.6-.7,3.4-1,5.2-1.1,7.3-2.1,14.6-3.2,22.6ZM329.1,186.5c-2.8-.5-5.6-1-8.3-1.5-6.4-1.3-12.7-2-19.2-.8-2.7.5-5.1,1.9-7.7,2.8-2.1.8-2.3-1-2.8-2.3-.5-1.3-.9-2.4.9-3.1,6.6-2.4,13.7-3.4,20.4-2.4,5.9.9,11.6,3.5,16.7,7.3ZM801,816.4c4.8,1.2,9.1,2.4,9.4,8.3,0,1.1.5,2.2.8,3.3,1.2,3.6.5,6.9-1.2,10.6-1.8-1.4-3.4-2.7-5-4-.7-.6-1.7-1.1-1.7-2.2,0-5.3-2.2-10.3-2.3-15.9h0ZM404.7,634.5c-6.3-5.6-12.2-10.9-18.2-16.2-.8-.7-1.5-1.6-.2-2.3,1-.5,2.5-1.5,3.2.4,1.8,5,6.7,6.6,10.4,9.6.7.6,1.6,1.4,2.6.6,1.1-1,.4-2-.3-2.9-1.7-2.4-3.8-4.4-6-6.2-3.2-2.6-3.2-2.7-.5-6.1.3-.4.5-.8.9-1.2,2-2,3.8-1.5,4.4,1.3,1,4.6,2,9.1,2.7,13.7.5,2.9,1.4,5.8,1.1,9.3h0ZM482.8,279.2c-1.6.7-2.7-.4-4-1-2-1-4.2-1.4-6-.2-3,2-4.9,1-6.8-1.5-.8-1-1.8-1.8-2.8-2.7-2.4-2.4.3-4,1.1-5.8.8-2,2.2-1.1,3.5-.4,3.5,1.9,7,3.8,10.9,4.9,3.1.9,4.5,3.1,4,6.6ZM769.9,469.9c-8.1,2.2-15.8,4.4-23.5,6.5-.7.2-1.7.7-2.1-.4-1-2.9-3.9-4.2-5.5-6.6-.7-1.1-1.4-2.4-.2-3.5,1.1-1,2.1,0,3,.6,2.4,1.7,4.6,3.5,7.1,5,3.8,2.3,3.8,2.2,6-1.9.7.2,1.5.5,2.2.7,3.9.7,4.7,0,4.3-3.8,0-.3,0-.6-.2-1-.3-1-.5-1.9.9-2.3,1.2-.3,2.4-1.1,3.4.5,1.3,2,2.8,3.8,4.5,6.2h0ZM559.9,575.9c1.1-.7,1.6-1.1,2.2-1.3,11.6-5.3,23.5-9.6,35.3-14.5,2.1-.9,4.1-.4,6.2,0-4.6,2.5-9.3,4.5-14,6.6-7.2,3.2-14.3,6.7-21.7,9.4-2.4.9-4.8,1.9-8,0h0ZM704.8,219.9c5.3.5,8.8,3.8,11.8,7.6,3.9,4.9,7.1,10.3,9.8,16,.5,1.1,1.6,2.1.7,3.8-8-8.8-14.8-18.3-22.3-27.5h0ZM505.8,154.9c6.3-.1,12.6-.9,18.8.2,2.7.5,3.5,2.2,1.8,4.3-2.1,2.7-5.7,2.9-8.5,4.4-.2.1-.9-.3-1.2-.6-3-3.5-7.3-5.2-10.9-8.3h0ZM571.6,582.9c0-.3-.2-.6-.3-.9,11-4,21.6-9.1,32.8-12.7-.2,1.1-.8,1.7-1,2.4-1.3,3.9-4.3,5-8.1,5.6-4.8.7-9.4,2.1-14.1,3.3-3.1.8-6.2,1.6-9.2,2.4ZM449,611.4c-6.1,4.2-6,4.2-11.2.3-3.6-2.7-7.1-5.6-11-7.8-1.7-1-3.1-2.4-4.9-4.8,8.8,3.9,16.7,7.4,24.6,10.9.7.3,1.4.7,2.5,1.3h0ZM456.2,516.9c3.2-.1,5.9,2.7,6.1,6.2,0,2.9-1.2,5.2-3,5.3-2.9.3-7.6-3.9-7.7-6.9,0-2.1,2.5-4.6,4.7-4.7h0ZM895.7,892.2c-1.5-3.2-2.8-5.9-4.2-8.6-2.3-4.4-2.3-4.4,1.7-7.4.2-.2.5-.2.9-.3,2.2,1.8,2.9,4.5,4.2,6.9,2.3,4.3,2.3,4.3-.8,7.8-.4.5-.9.8-1.8,1.6h0ZM917.2,992c1.8,0,2.9,0,4,0,4,.4,6.2,2.2,7.2,6.4.7,3-2.7,2.9-4,4.5-.6.7-1.5,1.2-2.9,1.2-1.3-3.8-2.6-7.6-4.2-12.1ZM907,923.5c-.6,0-1.1.1-1.5,0q-4.2-.3-4.3-4.4c0-1.6,0-3.2-.2-4.8-.4-4,.8-3.5,4.1-4.4,1-.2,1.6.1,1.7,1.1.2,4.1,1.5,8.2.3,12.4ZM534.3,546.3c1.3-.9,2.2-.6,3.1-.2,4.1,1.7,9.2,10.3,8.8,14.7,0,.9-.3,1.7-1.2,1.9-1.2.2-2.1-.2-2.6-1.5-1.1-3-2.7-5.8-4.5-8.5-1.3-2-3.1-3.7-3.6-6.4ZM413,425.2c2.3-16.8,1.6-33.7,1.9-50.5,2.8,17,1.8,33.8-1.9,50.5ZM370,784.1c-.6-1.6-1-2.9-1.5-4.2-.3-.8-.2-1.7.6-2.1,2.9-1.3,5.4-3.5,8.5-4.4,2-.6,2.4,1,3.2,2.1.8,1.1.8,2-.4,2.8-3.2,2.3-6.5,4.5-10.4,5.8ZM569.5,274.9c-6-1.4-11.3-3-16.7-1.4-.6.2-1.3-.3-1.4-1-.2-.9.2-1.5.8-2.1,5.3-4.8,13.7-3,17.3,4.5ZM792.2,490.5c.6,2.2.6,3.5-1.5,4.3-8.9,3.2-18.3,5-27.1,8.6-.5.2-1,0-1.1-.6,0-.4.2-1,.5-1.2.3-.3.9-.4,1.3-.6,9.5-2.5,18.4-6.5,27.9-10.5h0ZM486.8,529.9c2.8,3,5.5,6.2,8.5,9.1,3.4,3.3,4.5,4.4-1.6,6.4-.3,0-.6.2-.9.3-1.4.6-2.1-.1-2.4-1.4-.8-4.7-2.7-9.1-3.6-14.3h0ZM275.5,190.2c1.7,3.3,2.6,6.2,4.6,8.6,2,2.4,5.3,3.2,7.5,5.8-9.1,1.8-16.5-4-12.1-14.3h0ZM556.7,302.7c2.9,3.3,3.6,7.4,4.4,11.4.9,5.2.9,5.2-4.1,5.1-.6,0-1.2-.1-2.2-.2,2.1-5.3,2.1-10.7,1.9-16.2h0ZM654.6,534c2.2-4.9,4.2-9.6,6.3-14.3.2-.4.4-.9.8-1.2,1-.8,2.2-.8,3.2-.2,1.2.7.4,1.6,0,2.5-1.9,3.9-3.8,7.8-5.5,11.8-.9,2.2-2.2,2.5-4.7,1.5h0ZM818.1,826.3c7.9,1.1,9.9,2.6,9.6,9.2-2.5-.6-4.9-1.1-7.4-1.7-.8-.2-1.6-.6-1.7-1.5,0-2-1.2-4-.6-6.1ZM443.3,537.6c-.7,0-1.1.2-1.3.1-4.8-4.1-7.3-9.5-8.9-15.5-.1-.4,0-1,0-1.4,0-.8.4-1.6,1.3-1.7.7,0,1.2.4,1.6.9,1.1,1.8,1.6,3.8,2.2,5.8,1.2,4.1,3.4,7.8,5.1,11.8h0ZM834.7,832c9.6,2.9,10.4,3.6,11.4,10.2-2.1-.8-4.2-1.6-6.3-2.4-1.8-.7-4-1-5.1-2.4-1-1.3.7-3.4,0-5.4ZM876.3,862.2c-3.2-2.6-6.1-5-9.1-7.4-1.7-1.4-1.8-3.2-.4-5.5,3,1.9,5.7,4.1,8.3,6.4,2,1.7,2.2,3.6,1.1,6.4h0ZM795.7,421.2c-.6-3,.8-4.9,4.3-5.5.1-2.8.3-5.7.4-8.6,0-.9.4-1.5,1.4-1.5,1.1,0,2,.5,1.9,1.7,0,1.3-.4,2.5-.5,3.8-.3,4.9-1.4,9.2-7.6,10.1h0ZM297.7,378.3c1.3,3.9-1.1,6.8-2.6,9.9-1.6,3.2-3.6,6.1-5.5,9.1-1.9,2.8-3.7,5.5-6.5,7.6,5.7-8.4,10.6-17.2,14.7-26.6h0ZM902.7,894.3c1.4,2,1.7,3.9,2.1,5.8.4,1.8-1.5,3.6-3.8,4.1-2.1.5-1.9-1.3-2.2-2.3-1.6-6.1-3.1-4.9,4-7.6h0ZM539.3,576.9c1.6.4,1.5,1.4,1.2,2.3-1.3,3.9-4.3,6.2-7.8,7.8-.9.4-1.9,1-2.5-.2-.4-.9,0-1.9.8-2.6,2.6-1.9,4.7-4.3,7-6.5.4-.4,1-.6,1.4-.9ZM772,428.8c2-4.6,4.5-6,9-5.8,1.4,0,2.9,1,3.2-1.4.1-1.1,1.1-2.3,2.3-1.8,1.3.6.6,2,.4,3-.2.6-.4,1.2-.7,1.8-1.3,2.4-2.2,2.8-4.3,1-1.9-1.5-3.5-1.3-5.3-.2-1.4.9-2.6,1.9-4.5,3.3ZM859.6,849.3c-1.8-1-3.2-1.8-4.6-2.6-2.3-1.4-2.9-3.4-1.7-6.1,2.9,2.2,8,2.5,6.3,8.7h0ZM479.2,372.3c-.7-4.2-.9-7.2-.8-10.4,0-1.5,0-3.1,2.2-2.9,2,.2,2.1,2,1.9,3.3-.5,3.1-1.2,6.1-3.4,9.9h0ZM789.1,417.2c-1.2,0-4.1-2.6-4.2-3.7-.2-1.5,1.6-3.4,3.2-3.5,1.8-.1,4.3,2.3,4.2,4.4-.1,2-2.1,2-3.3,2.7h0ZM541.4,279.9c-3.9-2.3-5.8-5.6-8.7-7.8-.8-.6-1.3-1.5-.3-2.4.8-.7,1.8-1,2.6-.2,2.9,2.7,5.4,5.7,6.4,10.5h0ZM839.7,891.1c4.4-1.7,8.5-1,12.3.9.7.3,1.5.8,1.1,1.8-.4.9-1.3,1-2.1.8-3.8-1.1-7.5-2.3-11.3-3.5ZM579.5,295.8c0,.3-.1.9-.3,1.5-.6,2.1-2.4,3.4-3.8,2.8-2.1-.9-1.5-2.5-1-4.1.2-.6.3-1.2.6-1.8.6-1.2,1.4-2.4,3-2,1.6.4,1.5,1.8,1.5,3.5ZM885,872.5c-1.9-2.3-3.4-4.1-4.9-5.9-.5-.6-.4-1.3.1-1.7.8-.7,1.3-2.3,2.5-1.7,1.4.8,3.6,1.5,3,3.6-.4,1.6-.2,3.2-.8,5.6h0ZM801.1,359.5c-.5-10.8-.5-21.6,0-32.5v32.5ZM683.5,573.6c-.8,7.7-2.8,15.2-2.9,22.9-.6-7.8-.6-15.6,2.9-22.9ZM449.4,568.8c-.1-2.3.5-2.9,3.3-3.4,1.1-.2,1.9,0,2.3,1.1.3.8.4,1.6-.5,2.1-1,.6-2,1.2-2.1,2.5,0,1.2-.3,2.5-1.8,2.2-1.6-.2-.8-1.8-1.1-2.8-.1-.5-.1-1-.2-1.6ZM374.9,415.8c1.4-7.5,2.8-15,4.3-22.5.5,7.9-1.6,15.4-4.3,22.5ZM760.8,227.4c1.8-.9,3.2-.2,4.6-.2,1.4,0,2.1.6,2,2,0,1.3-.8,2.1-2,2.3-3,.5-3.9-1.4-4.6-4h0ZM775.3,521.9c1.8-2.9,4.1-5,6.5-7.2.5-.4,1-.9,1.6-.2.5.6.4,1.2,0,1.7-2.2,2.5-5,4.3-8,5.7h0ZM776.6,225.9c0,2.1,0,3.7-2.1,4.1-1.9.3-3.4-.4-4.1-2.7,1.9-.7,3.8-1.2,6.2-1.4ZM207.7,353.5c-4.1,1.1-4.6.8-6.9-3.6,2.8-.2,4.6,1.5,6.9,3.6ZM453.1,357.2l10.1,4.3c-4.2.4-7.4-1.4-10.1-4.3ZM730.7,512.7c1.4,0,2.7.3,2.8,2,.1,1.2-.3,2.3-1.7,2.3-1.6,0-2.8-.7-3.1-2.4-.3-1.5,1-1.7,2.1-1.9h0ZM393.6,383.6v-13.4c.7,4.4.9,8.9,0,13.4ZM896.4,931.9c.7-2.4.5-4.6,3.2-5.2.3,0,1.2.4,1.2.6-.1,2.3-1.3,3.8-4.3,4.6ZM644.2,340.4c-.6,2.3-2.1,3.2-3.3,4.5-.5.6-1.2,1.1-2,.3-.7-.7-.4-1.4.4-1.9,1.4-1,2.6-2.3,4.9-2.9ZM351.4,160.4c2.4,0,4.3-.7,6.2,0-1.9,2.2-4,2.2-6.2,0ZM513,536.8c-2.6,1.1-3.4,4.1-5.7,5.6.6-3.2,2.1-5.4,5.7-5.6ZM430.3,495.8c1.5,2.2.9,5.1-2.2,8.7,1-3.2.9-6.1,2.2-8.7ZM399.5,876.4c.4-3.2-2.1-5.4-2.9-8.2,2.6,2.2,4.1,4.7,2.9,8.2ZM745.4,508c.3-.9.6-1.8,1.7-1.9,1.1,0,1.8.5,1.9,1.7,0,1.1-.5,1.8-1.6,1.8-1,0-1.9-.3-2-1.6h0ZM469.6,635.1c-2.3-1.2-4.5-2.5-6-4.7,2.8.6,4.6,2.5,6,4.7ZM374.1,840.9c2.1,1.5,4.1,3.1,5.8,4.8-1.9-1.6-3.9-3.2-5.8-4.8ZM145.4,340.3c.5-1,1.4-1.1,2.1-1.3.6-.2,1.4-.4,1.6.3.3.9-.1,1.6-1.1,1.7-.8.1-1.6,0-2.6-.7h0ZM257,428.1c.7-1.7,1.5-3.3,3.2-3.9-.6,1.7-1.5,3.2-3.2,3.9ZM140.7,344.7c.8-.1,1.3-.3,1.7-.2.8.1,2.3,0,1.2,1.4-.8,1-1.9,0-2.9-1.1h0ZM680.9,502.9c.2-1,1-1,1.8-1.1.5,0,.9.1,1,.7.1.9-.7.9-1.3,1-.6.2-1.2.2-1.5-.5h0ZM657.7,575.8c.6-1.8,1.1-2.6,2.4-2.6-.4,1.1-1,1.8-2.4,2.6ZM384.8,376.3c-1-.5-1.2-1.2-.8-2.2.9.5.9,1.3.8,2.2ZM654.4,582.2c-.6-.9-.4-1.5,0-2,.3-.3.4-1.2,1.2-.7,0,1-.5,1.8-1.2,2.7ZM375.9,716.4c.1-.3.3-.8.4-.8.9.2,1.3.8,1.2,1.6,0,.3-.3.8-.3.8-.9-.1-1.2-.9-1.2-1.7h0ZM382.1,373.9c-.9-1.2-.8-2.3,0-3.5.9,1.2.8,2.3,0,3.5Z"/>
  <path d="M593.4,144.5c10.9,7.4,21.4,14.1,29.3,24-2.2,2.2-5.3.6-7.4,2.6.7,2.8,3.1,4.1,5.2,5.5,8.4,5.7,15.7,12.8,23.2,19.6,7.3,6.5,14.5,13.1,21.7,19.6,1.1,1,2.3,1.8,3.5,2.4.6.4,1.6.6,2.2,0,.7-.6.4-1.5,0-2.2-1.7-4.1-3.2-8.4-5-12.4-2.7-5.8-5.6-11.6-8.6-17.3-1.7-3.2-1.5-3.8,2-4.3,3-.4,6.1-.2,9.1-.5,2.5-.2,3.2-1.5,1.8-3.5-6.1-9-12.5-17.9-19.9-26-4.6-5.1-9.5-10-14.2-15-3.5-3.7-4.5-3.7-9.3-2.1-6.2,2-12.6,3.6-18.9,5.4-4.7,1.3-9.4,2.6-14.9,4.2h0Z"/>
  <path d="M626.8,785.7c1.1,2.4,2.7,4.8,3.4,7.4,1.1,4,4.3,6.8,5.6,10.7.4,1.1,1.6,1.6,2.8,1.4,1.1-.1,2.1-.3,3.3-.2-3.5,2.5-7.3,4.3-11.2,6.1-.9.4-1.8.7-2.6,1.2-.8.5-1.7,1.1-1.1,2.3.4.8,1.3.8,2.1.7,1.8-.2,3.4-.9,5-1.6,9-4,17.8-8.4,27.1-11.7,10.8-3.9,21.9-6.7,32.9-9.7,2-.5,4.1-.8,5.2-2.8-.4-1.3-1.3-1.1-2-1.2-1.6-.3-2.1-1.1-1.8-2.7.6-2.9.6-5.8.2-8.7-.2-1.8-.6-3.7-3.2-3.1-1.2.2-2.2-.3-3.1-1-8.7-6.9-18.9-7.7-29.4-6.9-8.9.7-17.3,3.2-25.1,8-5.5,3.4-11,6.6-15,11.8-3.7,4.8-3.9,5.8-.9,11.2,1.8,3.2,3.6,6.5,5.4,9.7.4.7.7,1.4,1.3,2.1.8,1,1.7,2.4,3.1,1.7,1.3-.6.4-2,.1-3-1-4.8-3.1-9.2-6-13.1-1.4-1.9-1.6-3.3,0-4.9,1.2-1.1,1.8-2.7,3.7-3.4h0ZM686.8,789.9c-.3-4.6-1.8-6.5-6.1-7.5-3.5-.8-7-.4-10.5.6-2.4.7-3.9,2-4.8,4.3-.7,1.7-1.5,3.4-.3,5,1.4,2,3.4,1.2,5.3.8,1.8-.3,3.6-1.6,6-.6-8,2.7-15.5,5.2-23.1,7.8-.6-7.8-3.8-9.8-10.6-6.9-2.2.9-4.2,2.2-6.7,3.5-1.1-4.1-2.2-7.9-4-11.5-1.9-3.9-1.3-5.6,2.8-7.1,2.6-.9,5.2-1.7,7.8-2.5,4.8-1.5,6.9-.6,9.3,4,.8,1.4,1.3,3,2.2,4.3.6.9,1.8,1.5,3,.9.9-.5,1.3-1.5,1.2-2.5,0-1.1-.5-2.2-.7-3.3-.5-2.1-2.3-3.8-2.3-6.2,7.5-1.6,14.9-1.5,22.3-1.2,3.2.1,6.4.8,9.4,2.1,1.3.6,2.5,1.2,2.9,3,.7,3.8,1.6,7.5,2.5,11.3-1.8,1.3-3.8,1.1-5.6,1.7h0ZM682.3,786.8c-3.4,1.9-6.6,1.7-9.4,2.8-2.9,1.1-3.4-.6-3.5-3.1,4-.2,8-2.3,12.9.3h0ZM648,797c.1.4.2.7.3,1.1-3,1.8-6.1,3.5-9.1,5.2-.8.4-1.5.5-1.9-.6-.3-.9-.9-2.1.3-2.5,3.4-1.2,6.6-3.2,10.4-3.2Z"/>
  <path d="M448.5,1013.3c1,.9,1.8.9,2.6.9,6.3,0,12.6,0,18.9,0,1.9,0,3.2-.5,3.5-2.5.4-3.2,2.2-3.1,4.4-2,.3.1.6.2.9.3,8.3,3.8,16.9,4.6,25.9,4.2,8.1-.3,16.1,0,24.2,0,1.5,0,3.1.4,5.5-.8-6.1-2-11.6-3.7-17-5.4-17.8-5.7-35.6-11.4-53.4-17-1.8-.6-3.6-1.2-5.6-1.2-2.6,0-4.3,1-5,3.6-1.6,6.7-3.2,13.4-4.8,19.9h0Z"/>
  <path d="M748,861.5c-.5,3,1,5.4,2.2,7.8,5.1,10.5,12.1,19.8,19.1,29,7.1,9.4,14.6,18.5,21.4,28.1,2.5,3.5,4.2,6.9,4,11.5-.3,5.8,2,11.4,3.5,16.9,5.2,19.1,12.7,37.5,18.1,56.6.3,1,.2,2.4,1.6,2.7,1.1.2,2.3.5,3.3-.3.9-.7.4-1.8.2-2.7-3.8-18.1-8-36.1-13.4-53.8-2.9-9.4-6.4-18.6-10.2-27.6-1.8-4.4-4.7-8.1-7.5-11.8-9.7-12.8-19.6-25.6-29.3-38.5-3.6-4.8-6.7-9.9-10.1-14.8-.8-1.1-1.1-2.7-2.9-3.2h0Z"/>
  <path d="M482.2,929.2c-1.2,2.7-2.8,4.6-4.2,6.5-1.6,2.2-3.4,4.3-3.7,7.2-.3,2-1.9,3.3-3.3,4.6-5.3,4.9-10.3,10.1-14.8,15.9-1.2,1.5-2.5,2.9-3.2,4.8-.4,1.1-.7,2.3.5,3,.9.6,1.8.1,2.6-.5,4-2.8,7.7-5.9,11.1-9.3,15.8-15.4,31.6-30.8,47.3-46.3,1.3-1.2,2.4-2.6,3.3-4.1.6-1,.6-2.3-.2-3.2-1.1-1.2-2,0-2.9.6-2.4,1.6-4.8,3.3-7.3,4.7-2.4,1.4-4.7,2.8-8,2.4-2.2-.2-4.6,1.3-6.8,2.2-4.2,1.7-8.1,4.1-12.5,5.1-1.8.4-3,1.3-3.1,3.1,0,2,1.7,2,3.1,2.4.6.2,1.2.4,2.1.7ZM476.7,944.2c0-2.2,1.4-3.1,2.3-4.4,1.6-2.2,3.3-4.4,4.8-6.7.8-1.2,1.8-2.5,1.1-4-1-2.4.6-3.2,2.2-4,3-1.5,5.9-3.3,8.4-5.5,2.9-2.6,3-2.6,6-.4-8.2,8.2-16.4,16.5-24.9,25h0Z"/>
  <path d="M561.4,930.1c.8,21.6,3.6,43.1,6.8,64.4.8,5.1,1.6,10.2,2.5,15.3.2,1.1.4,2.2.7,3.3.2.7.7,1.1,1.4,1,1-.1,1.2-.7,1.1-1.7-.6-5.1-1.1-10.2-1.7-15.4-1.2-10.6-2.1-21.2-2.8-31.8-1.1-16.3-1.1-32.6-1.8-48.8,0-2.1-.3-4.2-1.4-6.1-.5-.9-1.3-1.4-2.4-1.3-1,0-1.3,1-1.5,1.7-.4,2.2-.8,4.5-.9,6.7-.1,4.2,0,8.4,0,12.6h0Z"/>
  <path d="M480.8,812.9c.7,1.8,1.9,1.1,2.9,1,16.9-2.2,33.7-5.5,50.5-8.7,13-2.5,25.9-5.1,38.5-9.2,2.9-.9,5.7-2.2,8.5-3.3,1-.4,2.1-1,2.6-2,.8-1.3,0-2.6-1.5-2.5-1.1,0-2.2.4-3.3.6-31.6,7.8-63.1,15.8-94.9,22.8-1.2.3-2.4.5-3.3,1.4h0Z"/>
  <path d="M733,913.3c-2.1,1.9-1,4-.4,5.9,1.3,4.3,2.8,8.6,4.5,12.8,10.6,26.3,21.7,52.4,31.9,78.9.2.5.3.9.5,1.4.4,1.1.9,2.3,2.4,1.7,1.7-.7.5-2,.2-2.9-6.5-18.4-13-36.8-19.6-55.1-4.5-12.4-9-24.9-14.7-36.8-1.1-2.3-2-4.8-4.6-5.9h0Z"/>
  <path d="M630.3,754.1c28-2.5,54.8,1.4,81.4,6.5,1.9.4,3.8.7,5.7.9,1,0,1.9-.4,2.1-1.6.1-.9-.6-1.4-1.3-1.8-4.5-1.9-9.2-2.9-13.9-3.8-8.9-1.8-17.8-2.8-26.8-3.3-2.4-.1-3.4-.7-3.3-3.4.4-9.7.5-19.4.7-29,0-3.8-.2-7.6-1-12.1-2.1,2.3-2.1,4.5-2.2,6.5-.6,9.2-.4,18.4-.2,27.6,0,3,1.3,6.8-.4,8.9-1.8,2.3-5.8.8-8.7.8-9,0-18,.5-27,1.9-1.6.2-3.2.5-5,1.8h0Z"/>
  <path d="M293.1,444.9c-2.9,4.5-5,8.7-9.1,11.6-2-3.9-2-8.1-3.9-11.9-2.3,1.2-3.4,3-3.3,5.6.2,2.6.2,5.1.4,7.7.2,2.7-.9,4.2-3.3,5.1-2.5,1-5,2.3-7.4,3.5-1.4.6-1.9,2-1.7,3.2.3,1.5,1.8,1.6,3.2,1.3,9.1-1.7,17.2-5.1,23.2-12.6,3.2-3.9,2.7-8.2,2-13.5h0Z"/>
  <path d="M685.9,683.1c1.2,1.7,2.8,2.4,4.3,3.2,9.2,5.3,18.8,9.8,28.3,14.6,7,3.6,14,7.2,21,10.8.9.4,1.7.9,2.6,1.3.5.2,1,0,1.1-.6,0-.2,0-.7,0-.8-.8-.8-1.6-1.6-2.5-2.3-9.1-7.2-19.2-12.9-29.5-18.3-5.4-2.9-11-5.4-16.7-7.6-2.7-1.1-5.4-1.8-8.6-.4h0Z"/>
  <path d="M433.1,1013.6c5.8,1.2,5.8,1.3,7.5-3.7,3.2-9.3,6.7-18.4,9.2-27.9.6-2.1,1-4.1-1.4-5.5-1.3-.8-2.4-.8-3.2.6-.3.6-.6,1.1-.9,1.7-5.1,11.1-8.4,22.8-11.3,34.7Z"/>
  <path d="M441.5,824.9c-2.7.6-5.3,1-8,1.8-2.3.6-2.7,2.6-2.6,4.6.3,2.9.7,5.7,1.2,8.6,2,12.1,2.9,24.2,3.9,36.4.3,3.7,1.1,7.3.9,11,0,1.2.4,2.7,1.4,3.7,1.5-.5,1.3-1.6,1.2-2.5-1.2-7.2-.5-14.5-.8-21.7-.5-12.4-.5-24.8-4.4-36.7-.6-1.8.5-2.3,1.6-2.9,1.7-1,4.2-.4,5.4-2.5h0Z"/>
  <path d="M711.4,768.1c2.7,2.9,5.3,4.4,8,5.7,14,6.8,28.4,13,42.2,20.3,2.9,1.5,5.6,3.1,8.5,4.6,1.4.7,2.6,1.7,5.3,2-4.9-4-9.4-6.6-13.9-9.3-12.8-7.8-25.5-15.8-39.5-21.2-3.1-1.2-6.3-2.5-10.6-2Z"/>
  <path d="M682.2,670.6c.9,2.1,2.9,2.6,4.6,3.2,8,2.9,16.3,5,24.5,7.3,17.5,5,35,9.9,52.5,14.9.4.1,1,.3,1.3-.2-12.8-6.5-76.7-26-83.1-25.2h0Z"/>
  <path d="M623.9,679.6c4.4,2,9,2.6,13.5,3.4,9.5,1.6,19.1,3,28.8,3.1,1.8,0,3.6,0,5.1-1.1,2.7-1.8,3-3.7.6-6.8,2.3-.4,4.4-.7,6.6-1.2.8-.2,1.5-.8,1.5-1.7,0-1-.7-1.4-1.5-1.7-1.3-.5-2.6-1.1-3.9-1.6-.9,1.9,1.3,2,1.5,3.4,0,0-.3.3-.5.3-1.6.3-3.2.5-4.7,1-2,.6-2.8,1.6-1,3.4.7.7,1.5,1.4.7,2.4-.9,1.3-2.1,1.2-3.5,1-4.9-.8-9.9-1.6-14.8-2.4-6.4-1-12.8-1.9-19.1-3-3.3-.6-6.4,0-9.4,1.4h0Z"/>
  <path d="M483.7,875.2c-1.3,1.3-2.9,2.4-4.6,2.2-1.9-.2-2.9,1-4.3,1.8-1.4.8-1.6,1.6-.6,3,.9,1.4.4,3.1.4,4.7.2,5.4.6,5.8,6,4.4,1.1-.3,2.1-.7,3.2-1.1.6-.2,1.3-.5,1.6.4.3.6.6,2,1.2.4,1.8-4.7,4.7-8.3,8.6-11.4,1.2-.9.7-2.4,1-3.6.3-1.5,0-3.2,1.7-4.2.5-.3.9-1,.3-1.6-.5-.6-1.2-.4-1.8-.2-2.8,1.3-5.5,2.6-8.3,3.9-1.4.6-2.7,1.8-4.5,1.5h.2c0-.1,0-.1,0-.1ZM493.8,874.7c.2.3.4.6.6.9-5.3,1.9-9,5-8.7,11.1,0,.6-.7,1-1.4,1.1-1.5.1-3.1.6-4.6.1,0-1.9,0-3.5,0-5.1,0-1.5.4-2.4,1.8-3,4.1-1.6,8.2-3.4,12.3-5.1h0Z"/>
  <path d="M697.3,657.2c7.7-.7,14.9-2.2,22.1-3.6,13.1-2.7,26.1-5.7,38.5-10.9,2.9-1.2,6-2.1,8.2-4.8-2.1-1.5-3.7-.3-5.3.2-13.6,4.9-27.4,9.5-41.4,13.1-6.1,1.5-12.2,2.9-18.3,4.3-1.3.3-2.5.3-3.8,1.7h0Z"/>
  <path d="M589,983c12.8-12.4,26.1-24.3,35.3-40.2-2.1-1.1-3.4-.7-4.5.8-8.3,11.5-18.6,21.4-27.3,32.5-1.6,2-3.1,4.1-3.4,6.9h0Z"/>
  <path d="M667.5,659.2c24.5-8.8,50.1-13.5,74.8-21.4-8.4-1.7-62.6,13.8-74.8,21.4Z"/>
  <path d="M703.5,883c-2.8-2.8-6.5-4-9.9-5.9-1.3-.7-2.5-.7-3.6.2-9.6,7.8-20.9,12.7-31,19.6-9.3,6.3-17.7,13.5-25,22-.5.6-1,1.3-1.4,1.9-.1.2,0,.5-.2,1.2,5.1-4.9,9.7-9.8,14.9-14.1,10.9-9,23.3-15.6,35.4-22.8,2.2-1.3,4.8-2.3,6.5-4.1,2.9-3.2,5.5-2,8.5-.4,1.8,1,3.4,2.5,5.6,2.7l.3-.3Z"/>
  <path d="M448.6,933.9c6.4-.5,12.2-1,17.9-1.5,1.4-.1,2.9-.4,4.3-.8,1.3-.4,2.6-1.1,2.4-2.6-.2-1.4-1.8-1.2-2.8-1.4-3.1-.5-6.1.1-9.2.3-7.4.5-14.7,1.5-22,2.8-1.2.2-2.4.3-2.2,1.9.1,1.7,1.5,1.3,2.6,1.4,3.2,0,6.5,0,9.1,0h0Z"/>
  <path d="M480,840.7c2.2.2,4.3-.6,5.9-2.4,1.2-1.3,3.5-2.1,3.8-3.2.6-2.1.8-4.7-.3-7-.2-.4-.6-.9-1-1-2.5-.3-5.1-1-7.5-.7-2.5.3-4.8,1.8-6.4,4-1.6,2.2-2.4,4.6-1.1,7.3,1.3,2.7,3.9,3.1,6.7,3.1h0ZM482,829.2c2.1,0,3.5,1.4,3.4,3.2-.2,2.4-2.1,4.3-3.9,4.2-1.9-.2-3.6-2.1-3.4-3.9.2-2.1,1.8-3.5,3.9-3.5Z"/>
  <path d="M701.4,813.7c3.7,2.3,5,5.1,6.3,7.9,1.6,3.4,2.9,6.9,4.8,10,2.3,3.8,2.4,7.5,1.2,11.5-1.6,5.4-3.2,10.8-4.8,16.2-.3.9-.9,1.7-.5,2.8.5.5.8,0,1-.4,2.6-5.7,5.3-11.3,7-17.4,1.2-4.4,1.2-8.3-.8-12.6-2.2-4.8-4.6-9.6-7.1-14.2-1.3-2.3-2.8-4.3-7.1-3.7Z"/>
  <path d="M703.3,883.3c4.7,4.2,10.3,7,15.4,10.7,10.9,8,21.6,16.3,31.2,25.8.4.4,1,.8,1.5,1.2,1-1.5-.3-2.1-1-2.8-9.6-10.4-20.7-18.8-32.4-26.6-4.7-3.1-9.1-6.6-14.5-8.6l-.3.3h0Z"/>
  <path d="M425.6,986.7c4.4-8.3,4.8-34.2.6-40.5-1.8,1.1-1.1,2.9-1,4.2,1.2,9.6.8,19.2.9,28.9,0,2.4-.9,4.7-.6,7.3h0Z"/>
  <path d="M685.4,132.4c15,10.7,29.2,22.4,43.4,34.2-12.3-14.2-27.9-24.1-43.4-34.2Z"/>
  <path d="M477.7,921.3c-9.2-.6-18.3-1-27.5-1.7-5.3-.4-10.6-.6-15.9-.5-1.1,0-2.2.1-3.3.4-.3,0-.7.7-.7,1.1,0,.4.4.9.7,1.1.4.3.9.4,1.4.4,15.1,0,30.3,0,45.4,0,0-.3,0-.5,0-.8h0Z"/>
  <path d="M545.1,781.6c-.9-.6-1.8,0-2.7.3-6.1,2.4-12,5.4-17.7,8.5-.6.3-1.1.7-1.6,1.1-.7.5-1.2,1.2-.8,2,.3.6,1.1.6,1.7.4,7.5-2.4,14.8-5.3,20.8-10.5.3-.3.7-.7.4-1.7Z"/>
  <path d="M564.4,839c-14.4,3.7-27.8,10-42.4,15.5,5.7.2,37.4-11.4,42.4-15.5Z"/>
  <path d="M516.3,203c1,9.1-.8,18-2.3,26.9-.9,5,1.2,8.2,6.1,8.9,4.5.7,4.6.9,3.7,5.2-.3,1.4-.6,2.8-.1,4.6,2.1-2.5,1.5-5.5,2.1-8.1.3-1.2-.7-2.5-2.1-2.9-.6-.2-1.2-.5-1.9-.5-8.5-1-6.6-3-5.7-8.9.9-5.6,1.5-11.2,2-16.8.3-2.9.6-6-1.9-8.3h.1Z"/>
  <path d="M569.3,760.7c10.1-8.3,14.5-19.7,17-32.1-2.4,3.2-3.2,7.2-4.9,10.7-1.7,3.6-3.4,7.3-5.3,10.9-2,3.7-4.9,6.8-6.9,10.5h0Z"/>
  <path d="M516.2,203.1c.4-2.6-1.5-2.9-3.2-3.1-3.6-.5-6.7.9-9.1,3.4-2.1,2.2-4,4.6-6,6.9-1.8,2.1-3.6,4.1-5.6,6-2.4,2.4-5.2,4.2-8.8,4.4,3.3,1.5,6.1.3,8.5-1.9,2.9-2.5,5.6-5.4,7.8-8.6,1.8-2.7,4-5,6.7-6.8,3.2-2.2,6.4-2.9,9.8-.5h-.1c0,.1,0,0,0,0Z"/>
  <path d="M484.2,849.3c-2.9,0-5.4,2.1-5.4,4.4,0,2,2.1,3.7,4.4,3.6,2.5-.1,5.2-2.7,5.1-4.9,0-1.9-1.7-3.1-4.1-3.1h0Z"/>
  <path d="M777.4,679.7c3.1-11.8,1.2-23.7,0-35.6-1.3,11.8.5,23.7,0,35.6Z"/>
  <path d="M820.2,895.2c.3-1,.6-1.3.5-1.6-1.7-6.6-5.2-12.4-8.5-18.2-.4-.7-1.2-1.2-2-.6-.6.4-.5,1.1-.4,1.8.1.5.2,1,.4,1.4,3,5.6,5.9,11.3,9.9,17.2Z"/>
  <path d="M584.1,1000.3c2.1-5.2,2.1-9.4,1.9-13.7,0-1.1-.6-1.8-1.8-1.8-1.2,0-1.7.9-1.8,1.8,0,4.2-.7,8.5,1.6,13.6h0Z"/>
  <path d="M776.7,949.4c-4.9-5.8-9.4-11.9-15.2-16.9.2,3.9,3.8,7.9,15.2,16.9Z"/>
  <path d="M538.5,953.4c0-2.9-.9-4.2-2.8-4.2-2.2,0-4.1,2.4-4,5.2,0,2.2,1.7,4.1,3.4,4,2-.1,3.5-2.3,3.4-5h0ZM534.9,952.5c1.2.2,2.4.6,2.5,2.2,0,1.1-.8,1.8-1.8,1.9-1.8.2-1.9-1.3-2.2-2.5-.3-1.1.6-1.2,1.5-1.6h0Z"/>
  <path d="M348.1,983s-.1-.1-.1-.1c.7-1.5.9-3.1.4-4.7-2.3-6.9-6.3-12.9-10.6-18.6.3,3,2.2,5.1,3.4,7.6,2.6,5.1,6,9.9,6.9,15.8h0Z"/>
  <path d="M710,900.2c-3.5-3.4-7.4-6.2-11.5-8.7-.7-.4-1.6-.5-2.2.2-.7.9,0,1.5.6,2,4,2.9,8.1,5.4,13,6.5h0Z"/>
  <path d="M564.5,812.7c-3.4,5.6-2.4,11.9-3.2,18,.3,0,.6.1.9.2,1.2-5.9,2.3-11.9,3.5-17.8-.4,0-.9-.2-1.3-.3Z"/>
  <path d="M527.1,949.1c-1.4-1.6-2.8-2.9-4.6-.7-1.6,1.9-1.4,3.8.6,5.5,1.8,1.5,3,1.4,4.5-.4,1.4-1.7,2.1-3.3-.6-4.5-.2,1.7-.6,3.2-2.4,3.8-.1-1.7.7-2.9,2.6-3.7h0Z"/>
  <path d="M541.4,956c0,2.5,1.4,4.5,3.3,4.6,2,0,3.5-1.9,3.4-4.3,0-2.6-1.4-4.5-3.3-4.5-2,0-3.4,1.7-3.4,4.3h0ZM544.6,959.3c-1.2-.3-1.9-1.3-1.9-2.4,0-1.4,1.1-2.3,2.5-2.1,1.3.2,1.8,1.4,1.6,2.5-.2,1.2-1.1,1.9-2.3,2.1Z"/>
  <path d="M441.4,824.8c2.3.9,4.4-.2,6.6-.6,5.3-1,10.6-2.1,15.8-3.6-7.6.6-15.1,1.7-22.3,4.3h-.1c0-.1,0-.1,0-.1Z"/>
  <path d="M344.7,1013.6c1.4.8,2,.2,2.4-.4,1.4-2.5,2.9-4.9,4.2-7.5.4-.7.8-1.6,0-2.2-1.1-.7-1.8.2-2.3,1-1.9,2.8-3,5.9-4.4,9.1h0Z"/>
  <path d="M448.3,835.7c-.1-2-1.1-2.7-2.8-2.7-2.3,0-2.7,1.5-2.5,3.2.1,1.6.5,3.6,2.7,3.2,2-.3,2.7-2.1,2.7-3.8h0ZM444.6,835.5c.2-.7.2-1.6,1.3-1.4.7.2,1.1.8,1.1,1.3,0,.8-.6,1.4-1.5,1.4-.9,0-.8-.7-.9-1.3h0Z"/>
  <path d="M606.3,250.6c.5,7,2.3,13.8,2.4,20.8,0,.7.5,1.1,1.1,1.4h0c-.7-6.1-1.4-12.2-2.1-18.4-.2-1.4,0-2.9-1.4-3.8h.1c0-.1,0-.1,0-.1Z"/>
  <path d="M505.9,930.3c4-2.5,5.8-6.8,8.8-10.1-4.6,2-6.9,5.9-8.8,10.1Z"/>
  <path d="M483.5,875.4c.5-3.4,2.5-6.6,1.6-10.1-1.5-.5-1.8.6-2.2,1.4-.9,2.4-.7,5-1,7.6,0,.9.7,1.3,1.7,1h-.2c0,.1,0,.1,0,.1Z"/>
  <path d="M405.1,1012.2c2.2-3.1,4.7-6.1,3.6-10.4-2.7,2.9-2.6,6.9-3.6,10.4Z"/>
  <path d="M394.9,941.3c-3.8,2.9-8.1,5.3-11,9.4,4.2-2.5,8.1-5.3,11-9.4Z"/>
  <path d="M609.7,272.9v15.9c.3-5.3.6-10.6,0-15.9h0Z"/>
  <path d="M625.2,269.5c1.7,1.5-1.2,3.3,0,4.3,2,1.7,1.4,4.1,2.2,6.5.9-3.6-.4-6.6-.8-9.7-.1-.8-1-.7-1.5-1.1h0Z"/>
  <path d="M663.5,119.5c-2.5-2.1-5.2-3.3-8.5-3.7,1,1.8,2.8,1.7,4.2,2.3,1.4.6,2.9,1,4.3,1.5Z"/>
  <path d="M625.1,269.5c1.2-4.4.5-7.5-2-9.6h0c1.7,3,1.7,6.3,2.1,9.6,0,0-.1,0-.1,0Z"/>
  <path d="M693.4,699.6c1,2,2.8,2.7,5.6,3.5-2-2.2-3.5-3.4-5.6-3.5Z"/>
  <path d="M629.3,298.1v-4.1h0v4.3c0,0,0-.1,0-.2Z"/>
  <path d="M683.3,321.8c.2-3.1-2.5-3.2-4.3-4.2.9,2,3.5,2.2,4.3,4.2h0s0,0,0,0Z"/>
  <path d="M475.2,220c1.4-.2,2.8-.5,4.3-.8-1.5-.3-3,0-4.3.8Z"/>
  <path d="M623,864.8c.2,1.6.7,3,2.5,3.5.6-2.3-.5-3.3-2.6-3.4h.1Z"/>
  <path d="M688.8,324.1c-1.3-2-2.9-3.3-5.5-2.3h0c2.2-.2,3.3,2.6,5.6,2.2h0Z"/>
  <path d="M690.2,617.7c-.5-1.2-1.7-1.1-2.3-1.6.2,1.1.8,1.6,2.3,1.6Z"/>
  <path d="M622.9,864.9c.3-2-1.2-2.9-2.5-3.8.4,1.5,1,3,2.6,3.7h-.1Z"/>
  <path d="M623.1,259.9c.4-1.9,2-3.8-.3-5.5h.1c0,1.8.1,3.7.2,5.5h0Z"/>
  <path d="M636.4,268.5c.3.3.6.6,1,.8,0-.1,0-.2,0-.3-.2-.4-.3-.9-.9-.9s0,.2-.2.4h0Z"/>
  <path d="M617.5,235c0-.2.4-.6.3-.7-.2-.6-.8-.9-1.4-.9s-.5.2-.2.6c.3.5.7,1,1.4,1h0Z"/>
  <path d="M606.2,250.7c.3-1.2.4-2.3-.2-3.7-.5,1.4-.4,2.5.3,3.6,0,0-.1.1-.1.1Z"/>
  <path d="M622.8,254.3c.4-.6.1-1.2,0-1.8,0-.4-.2-1.1-.8-.9-.6.2-1,.8-.5,1.5.3.5.6,1.1,1.4,1.1h-.1Z"/>
  <path d="M629.9,107.2c.2.6.5,1.2,1.2,1.2.5,0,.7-.5.6-1,0-.6-.4-1.2-1.1-1.2-.5,0-.8.3-.7.9Z"/>
  <path d="M288,336.6c3.2-1.7,6.1-3.8,8.8-6.2,8.7-7.9,15.6-17.2,20.4-27.9.8-1.8,1.7-3.5,2.8-5.1,1.4-2.1,3.4-3,5.9-2,2.1.8,4.2,1.7,6.2,2.7,4,1.9,5,1.7,6.6-2.4,2.7-6.7,5.1-13.6,7.6-20.4,2.9-7.9,5.8-15.7,8.5-23.6.7-2.1,2.1-4.3.8-7.8-9.1,16.4-13.6,33.7-20.8,50-3-1.3-5.6-2.6-8.3-3.5-5.4-1.7-8.1-.5-10.8,4.4-.5.8-1,1.7-1.4,2.6-6.1,13.7-14.6,25.7-25.3,36.2-.7.7-2,1.3-1,3.1h0Z"/>
  <path d="M250.6,289.1c-5.2,3.8-11.2,5.2-17.2,6.8-8.4,2.2-16.9,3.7-25.7,2.7-3.9-.4-5.3,1.8-3.8,5.4,1.3,3,3.7,5.2,5.9,7.6,1.1,1.2,1.8,1.9.2,3.4-1.5,1.4-.6,3.3.5,4.8,2.5,3.4,5.3,6.5,7.3,10.2.8,1.6,2.7,3,1.2,5.2-.2.3,0,.9.6,1.1.7.2,1.3,0,1.6-.6,1-2.3.9-4.7,0-7-1.3-3.2-3.4-5.9-5.5-8.5-.8-1-.9-1.4.2-2.5,2.7-2.5,2.6-3.5.3-6.5-.9-1.1-1.3-1.5.5-2.2.9-.3-.6-.6-.9-.9-.6-.7-1.7-1.1-1.4-2.3.3-1.5,1.7-1.2,2.7-1.3,8.3-.4,16.2-2.5,23.9-5.7,2.8-1.2,5.6-2.6,7.7-4.8,1.4-1.4,2.7-2.8,1.9-5.1h0Z"/>
  <path d="M370.2,320.1c3-.7,4.4-2.9,5.9-5,5.8-7.6,10-16.2,13.9-24.8,3.9-8.6,7.8-17.3,10.5-26.4.5-1.6.9-3.1.6-4.7,0-.4-.5-.8-.8-1-.6-.4-1.4,0-1.7.5-.8,1.6-1.4,3.2-2,4.9-5.4,14.5-11.1,28.8-18,42.6-2,4.1-3.5,8.6-7.6,11.4-.6.4-1,1.2-.7,2.6h0Z"/>
  <path d="M262.1,241.1c-3.1-2.4-4.6-4.9-6.5-7.1-3.5-4.3-5.3-4.4-8.8-.4-1.8,2.2-3,4.4-6.9,3.7-2.4-.4-4,2.7-5.1,5.8,5.8-2.7,12-3.3,15.2-9.3,4.2,3.7,7.8,7.4,10.8,11.5.8,1.1,1.4,2.7,3.3,2.1,2-.6,2-2.3,2-3.9,0-6,.7-11.8,1.8-17.7.1-.8.3-1.7-.7-2-.7-.2-1.2.3-1.6.7-1.4,1.2-1.8,2.9-2.3,4.7-1.1,3.6-.8,7.3-1.1,11.8h0Z"/>
  <path d="M242.1,267.2c1.9,2.2,3.1,3.8,4.5,5.2,1.8,1.9,4.1,3.1,6.7,3.7,1.2.2,2.9.8,3.5-.7.6-1.4-.8-2.2-2-2.8-.1,0-.3-.1-.4-.2-4-1.8-7.5-4.4-10.4-7.7-2.4-2.8-3.8-2.5-5.1,1-1.7,4.7-3.8,8.9-8.7,11.1-3.3,1.5-6.9,1.6-10.4,1.6-1.6,0-3.2-.4-5.3.5,5.7,2.4,11,4.2,16.8,2.6,6.5-1.8,8.4-7.4,10.8-14.2Z"/>
  <path d="M399.9,326.4c3.1.7,5.9,1.2,7.7-2.2,1-1.9,3-1.7,4.7-1.9,9.6-1.3,15.1-7.3,18.3-15.9.6-1.5.8-3.1.5-4.8-.1-.9-.6-1.5-1.4-1.7-.9-.2-1.5.4-1.8,1.2-.9,1.9-1.7,3.8-2.6,5.7-3.5,6.8-8.4,11.8-16.4,12.8-2.5.3-4.7,1.2-5.3,4.1-.4,1.7-1.9,2.3-3.6,2.6h0Z"/>
  <path d="M349,315.9c4.5-13.8,12.1-26.1,18.7-39,1.1-2.1,2.1-4.3,1.7-6.9-9.9,13.9-17.4,28.9-20.4,45.9h0Z"/>
  <path d="M308.6,247.7c-.9-1.8-2.8-1.5-4.5-1.6-5.9-.3-11.5,1.4-16.9,3.5-8.7,3.3-16,8.6-21.8,16.1,12.6-10.4,26.9-16.6,43.1-18h0Z"/>
  <path d="M327.2,253.9c-1.6.7-2.2,2.3-3,3.6-1.2,1.8-2.4,3.3-4.6,4.1-1.8.6-3.4,1.8-4.6,3.4-6.2,8.1-12.8,15.7-20.6,22.4-.6.5-1.3,1-1.3,1.8,7.7-4.4,14.2-10.2,19.6-17.2,2.6-3.4,5.3-6.8,9-9.3,2.9-2,4-5.6,5.4-8.7h0Z"/>
  <path d="M389.4,332.2c3.2-1.9,3.4-5.9,7.4-6.5-2.7-.4-5.2,1.8-7.4,6.5Z"/>
  <path d="M331.5,244.4c-1.1,2-2.2,4.1-3.2,6.1,2.2-1.4,2.9-3.6,3.2-6.1Z"/>
  <path d="M341.9,443.5c3.4.7,6.6,2.1,9.8,3.4,1.4.6,3.1,1.3,4.2-.6,1.1-2,.7-4.1-1.4-5.5-2.3-1.6-5-2.3-7.6-3.1-6.6-2.1-13.3-3.8-20.1-5.1-3.3-.6-6.1-2-7.5-5.3-.9-2-3-2.6-4.5-4.1-1.1-1.1-3.2.4-2.7,1.9.7,2.1,1.1,3.8-1.1,5.4-.8.6.3,1.8,1.2,2.1,2.2,1,4.3,2,6,3.8.7.7,1.6.4,2.6.1,2.3-.7,4.3.8,6.4,1.6,1.1.4,1,1.5,1.1,2.5.6,4.6,1.1,9.3,1.8,13.9.5,3.2,1.3,6.3,3.4,8.9,3.1,3.7,6.1,3.3,8.1-.9,2.5-5.4,2.5-10.9.5-16.4-.3-.7-.8-1.4-.4-2.5h0Z"/>
  <path d="M307.5,468.3c.5-1.1.9-2.1,0-3.4-.8,1.3-.8,2.3,0,3.4Z"/>
  <path d="M508,760.2c-.5-3.8,0-7.6-1-11.3,0,5.7,0,11.3-.4,16.9,0,.8,0,1.7.9,2,.9.3,1.5-.2,2-.9,1.5-2,2.2-4.3,3-6.6,3.2-10.3,3.4-21,2.6-31.6-.8-11.2-2.1-22.5-4.5-33.5-2.9-13.3-6.2-26.4-12.9-38.3-3-5.4-6.8-10.2-11.4-14.3-2.4-2.1-2.8-2-5.6,1.2,3-.4,4.5,1.2,6,3.1,4.1,5.3,6.9,11.3,9.3,17.4,7.3,19.2,11.8,39.1,13.8,59.6.7,7.6,1,15.1.9,22.7,0,4.7-.5,9.3-2.6,13.6h0Z"/>
  <path d="M565.6,715.2c-2-15.7-4.6-30.6-8.8-45.2-4.9-17.1-11.2-33.7-18.1-50-.7-1.8-1.7-3.5-2.6-5.2-.6-1-1.6-1.7-2.9-1-1.3.7-1.8,1.9-1.1,3.3.4.9.9,1.7,1.2,2.6,7.5,20.4,15.6,40.7,21.1,61.8,3,11.2,5.1,22.6,6.2,34.2.3,2.9,1.1,6-1.5,8.6-.4.4-.9,1.9,0,2.6,1,.8,2.1.2,3-.6,1.1-1,2-2.2,2.3-3.6.5-2.7.8-5.4,1.1-7.4h0Z"/>
  <path d="M597.3,673.5c.8-.9,1-2,1-3.1-.3-15.5-3.7-30.3-11.2-44-2.7-5-5.2-10-7.7-15.1-1.3-2.7-2.7-5.4-2.8-8.8,2.5.7,3.1,2.9,4.4,4.4,1.9-1.3,1-2.9.4-4.3-.8-1.8-2-3.4-4-4-1.6-.5-2.3.6-3,1.8-1.6,3.3-1.2,6.6-.4,9.9,1.4,5.2,3.5,10,5.8,14.8,4.8,10.2,8.6,20.8,11.3,31.8,1.2,5,3.1,9.8,4.8,14.7.3.8.6,1.5,1.4,1.8h0Z"/>
  <path d="M484.9,736.2c-.2-10.8-1.9-21.3-6.5-31.2-6.1-13.2-13.8-25.4-22.5-37-1.5-2.1-3.1-4.4-6.3-4.9-.3,2.3,1,3.7,1.9,5.1,6.4,10.6,13.1,21,18.9,32,6.1,11.5,11.1,23.5,14.5,36.1h0Z"/>
  <path d="M629.9,651.9c-9.7-18.1-11.7-37.6-11.8-58,2.6,1,2.2,4.1,4.6,5.2-.2-3.5-1.7-6.5-2.9-9.5-.4-.9-1.2-1.7-2.2-1.7-1.3,0-1.9,1.1-2.2,2.2-.4,1.4-.8,2.8-.9,4.2-.3,16.2.7,32.3,7.5,47.3,1.8,3.9,3.4,8,7.9,10.2h0Z"/>
  <path d="M662.1,648.6c-1.9-3.6-8.4-8.1-13.1-9.6,0,3.9,4.3,7.1,13.1,9.6Z"/>
  <path d="M464.3,661.1c3.2-1.7,6.1-3.5,8.4-6.1.4-.5.6-1.1.1-1.7-.5-.7-1.1-.4-1.7,0-3.1,1.9-4.9,5-6.9,7.9Z"/>
  <path d="M597.6,678.1c-1.4,3.3-1.9,6.7-1.4,10.3,1.7-3.2,3-6.5,1.4-10.3Z"/>
  <path d="M526.5,622.1c-3.4,1.9-7.1,3.3-10.2,5.9,3.8-1.1,7.4-2.6,10.6-5.1.3-.2.1-.6-.4-.8Z"/>
  <path d="M471.3,722c-.6,0-1.3.2-1.4,1-.1,1.1,2,4.1,2.9,3.9.9-.2,1.4-.8,1.4-1.7-.1-1.8-1-3-2.9-3.3Z"/>
  <path d="M485.1,780.3c1.3.1,1.6-.6,1.7-1.4.2-.8.2-1.7-.7-2-1.2-.3-1.6.6-1.8,1.6-.1.8,0,1.6.8,1.8h0Z"/>
  <path d="M560.3,612.7c2,0,2.8-.6,3.8-1.4-1.4-.6-2.3.3-3.8,1.4Z"/>
  <path d="M645.6,647.2c.2.7.8.9,1.4,1,.2,0,.7-.2.7-.4.1-.8-.5-1-1.1-1.1-.4,0-.9,0-1,.5h0Z"/>
  <path d="M633.5,656.7c0,.6.5.7.9.9.4.2,1,.4,1.2-.2.2-.6-.4-.8-.8-.9-.5-.2-.9-.2-1.3.3Z"/>
  <path d="M631.1,522.3c-3.2,0-6,.6-8.7,1.6-3.5,1.2-6.9,2.6-10.5,3.5-4.3,1.1-6.2,4.4-7,8.4-.5,2.6.6,4.7,2.7,6.3,3.6,2.9,7.7,3.4,11.8,1.6,5.8-2.5,10.9-6.2,15.8-10.1.1,0,.2-.2.3-.3,2.1-2.2,3.6-4.7,2.3-7.8-1.3-3-4.1-3.3-6.7-3.2ZM634.4,528.4c-3.7,3.2-7.2,4.9-10.9,6.8-.5-1.6-.9-2.9-1.4-4.2-.5-1.2,0-2,1.1-2.2,3.4-.8,6.7-2.1,11.2-.4ZM614.2,538.2c-1.4,0-3.6.1-4.7-2.2-.5-1.1,2.5-3.4,4.9-3.9.3,0,.6-.1,1-.1,1.7,0,4.5,2.4,4.2,3.9-.4,1.9-2,2.2-3.7,2.2h-1.7Z"/>
  <path d="M694.5,438.2c.3,3.9,1.9,7.8,5.7,10.6,1.5,1.1,3.1,1.7,4.9,1.7,6.4.1,13.9-7,14.2-13.4.4-7.8-9.5-14.2-16.4-10.8-6,3-8.3,6.1-8.4,11.8h0ZM709.8,430.2c4.4-.3,7.3,3.5,5.8,7.6-1.8,4.7-5.3,7.5-10.2,8.7-2.7.7-4.8-.6-6.4-2.4-1.5-1.8-1.8-4-.6-6.3,2.4-4.7,6.2-7.2,11.4-7.6h0Z"/>
  <path d="M708.1,418.4c5.2-1.6,9.4.3,13.5,3.2-.9-3.7-4.2-4.9-7-6.3-2.4-1.3-5-1.1-7.4.2-1,.5-1.9,1.3-1.9,2.6,0,1.5,1.1,1.8,2.3,2,4.3.6,8.1,2.5,11.7,5-2.3-4.8-6.5-6.1-11.2-6.7h0Z"/>
  <path d="M724.4,414.3c-.9-6.5-5.1-8.4-11.4-5.1,5-.5,8.9.3,11.4,5.1Z"/>
  <path d="M727,406.3c-1.4-3.5-2.6-4.3-4.7-3.2-.5.2-1.3.6-.9,1.4.2.6.8,1.2,1.4.6,2-1.9,2.4,1,4.2,1.3Z"/>
  <path d="M721.7,370.8c0,1.2.5,1.9,1.4,1.8,1.4-.2,1.5-1.3,1.5-2.5,0-.9-.6-1.8-1.3-1.6-1.1.3-1.6,1.4-1.6,2.3h0Z"/>
  <path d="M760.2,325.2c.4-2.4-.8-3.9-1.1-5.7-.7,1.9-1.4,3.8,1.1,5.7Z"/>
  <path d="M731.5,353.2c.2.8.6,1.5,1.5,1.4.5,0,.8-.5.8-1,0-1-.6-1.4-1.6-1.3-.5,0-1,.2-.8.9h0Z"/>
  <path d="M636.4,425c.2-24.1-6.9-44.2-18.5-62.9-5-8-12.5-12.3-21.7-12.7-20.6-.8-39.2,4.5-54.5,19.1-4.9,4.7-10,9.1-14.8,13.7-6.1,5.9-11.4,12.7-16.9,19.2-4.9,5.8-9.1,12.1-11.9,19.3-.2.6-.4,1.6-.7,1.7-3.9,1.3-1.6,3.3-.6,5.1.4.7,1.1,1.3,1.3,2,.9,2.5,1.5,4.8-.4,7.5-4.6,6.4-8.3,13.4-11.7,20.6-1.5,3.2-3.8,6.4-1.8,10.4.3.7,0,1.9-.1,2.8-1.7,9.8,1.3,18.8,3.9,28,1.4,4.9,4.8,7.8,9.4,9.7,7.5,3.1,15.2,3.7,23.2,3.3,22.2-1.2,43.3-6.5,63.1-16.5,9.2-4.7,18.3-9.4,26.7-15.6,15.2-11.2,23.2-26.3,25.5-44.8.5-3.9.7-7.7.6-9.7h0ZM576.3,378c2.2-2,2.2-2,2.2-4.7,0-3.4-.4-6.8-.2-10.1.2-4.3,1.9-6.2,6-6.9,2.2-.4,4.5-.6,6.7-.6,14.5-.3,17.7.4,25,15.6,5.8,11.9,10.1,24.4,11.2,37.8.9,10.8.6,21.6-2.3,32.1-4.3,15.4-14.1,26.6-27.2,35.1-24.7,16-51.9,25.5-80.8,30.7-6.2,1.1-11.8-.1-17.5-2.1-3.1-1.1-4.9-3-5.9-6.4-2.9-9.8-4.8-19.7-4.3-30,.1-2.2.3-4.1,1.2-6,4-7.9,8.1-15.8,11.9-23.8,1.1-2.3,2.2-2.3,4-1.1,1.6,1,3.4,1.9,5.1,2.8,3.7,2.2,3.8,2.2,7.2-.4,12.9-10.2,22.9-23,33.3-35.6.7-.8.9-1.6,0-2.6-4.9-5.1-8.9-11-14.3-15.6-2.6-2.2-2.6-2.4.1-4.6,4.6-3.8,9.2-7.6,13.9-11.3,6.6-5.3,13.8-9.4,22-11.8,1.2-.3,2.4-1,4.2-.1-3.7,6.1,1.3,13.1-1.7,19.6h0ZM528.2,387.1c3.7,3.8,7.3,7.5,10.8,11.2,1.9,2,4.7,3.7,5,6.2.3,2.5-2.8,4-4.3,6.1-6.4,8.5-13.8,16.1-20.9,24-1.7,1.9-3.1,2.3-5.3.7-3.3-2.3-6.7-4.4-10.2-6.4-2.6-1.5-3.7-3.6-2.3-6.2,1-2,2.1-4,3.3-5.9,6.8-10.8,15.7-19.9,23.9-29.8h0Z"/>
  <path d="M478.7,172c3.2,2.2,7,3.2,10.4,2.7,4.1-.6,8.2-2.2,11.9-4.6.9-.6,1.3-1.5,1.4-2.4.2-1.3-.2-2.4-1.8-1.9-4.1,1.3-8.4,2.3-12.3,4.1-3.1,1.4-6,2.9-9.7,2.1Z"/>
  <path d="M320.6,150.6c-3.5-.6-6.6.9-9.8,1.4-3.4.5-6.7,1.6-9.2-1.8-.3-.4-1.1-.6-1.7-.7-.8-.2-1.7,0-2.1.8-.2.5,0,1.3.2,1.8.9,1.8,4.6,3.9,6.6,3.2,4.7-1.8,9.8-1.8,14.5-3.4.6-.2,1.3-.3,1.6-1.3Z"/>
  <path d="M334.6,132.2c-.2-2.2-1.9-2.3-3.5-2.2-1.7,0-2.1,1.2-1.9,2.7.2,1.4,1.2,2.2,2.6,2.4,1.4.2,2.9.2,3.8-1.3.6-1.1-.6-1.2-1.1-1.7-.6,2.6-2.1,1.6-3.5.9-.2,0-.4-.6-.3-.8.9-1.6,2.1-.7,3.2-.4.3,0,.5.3.8.5h0Z"/>
  <path d="M383.3,143.8c1.3,0,2.7-.3,2.7-1.9,0-1.5-1.4-1.9-2.7-2.1-1.2-.2-2.3.4-2.4,1.6,0,1.4.7,2.4,2.3,2.3Z"/>
  <path d="M776,405.3c0,2.5,2.5,4.3,4.5,2.8,3.5-2.5,7.3-2.9,11.4-2.7,1.1,0,2.4.1,3-1.1.7-1.3,0-2.6-1-3.4-1.4-1.3-2.8-2.9-5-1.8-1.4.7-2.8.1-4.2.1-2.9,0-5.3.9-7.3,3.1-.7.8-1.4,1.8-1.4,3h0Z"/>
  <path d="M771.9,418c1.8,0,3.3-1.7,3.2-3.5,0-1.9-1.9-4.1-3.4-4.1-1.6,0-3.2,1.9-3.2,3.6,0,2.3,1.5,4.1,3.3,4h0Z"/>
  <path d="M733.5,210.1c.7,2.7.4,5.4,1.6,7.8.9,1.8,1.8,2,3.3.7,3.4-2.9,3.4-11.2-.2-13.9-1.4-1-2.9-.3-3.3.8-.6,1.5-2,3-1.4,4.7Z"/>
  <path d="M474.2,302.8c-3-.2-5.9.5-8.6,2.2-6.4,4-7.4,11.4-1.7,16.2,6.3,5.4,13.9,7.2,22.1,4.7.9-.3,1.8-.8,2.6-1.3,5.9-3.6,6.7-8.8,2.3-14.1-3.3-4-11.3-7.8-16.7-7.8h0ZM479.6,318.8c-1-.3-2.1-.5-3.2-.9-1.6-.6-2.6-1.9-2.7-3.7,0-1.7,1.4-2.4,2.7-3.1,1.6-1,3.5-.2,5.2-.8,2.7-1,3.5.9,4.2,2.6.8,1.8.3,3.4-1.5,4.5-1.4.9-3,1-4.7,1.4h0ZM474.1,307.5c-4.7,8.4-4.6,9.2.9,15.3-5.1,0-8.4-2.8-8.9-7.4-.4-3.7,2.5-6.8,7.9-8h0Z"/>
  <path d="M693,547.5c.1,2.8,2.1,5,4.4,4.7,1.5-.2,2.3-1,2.2-2.6,0-2.2-2.1-4.1-4.5-4-1.2,0-2.2.3-2.1,1.9h0Z"/>
  <path d="M687.1,549.8c.7,0,1.5,0,1.6-.8,0-1.3-1-.9-1.7-1-.6,0-1.4,0-1.5.8,0,1.3,1.1.7,1.6,1h0Z"/>
  <path d="M263.6,176.8c8-.1,18-7.5,20.4-15,.4-1.1.8-2.2-.2-3.1-1.4-1.1-2.5,0-3.4.8-1,.9-1.8,1.9-2.5,2.9-3.3,4.6-8,7.4-13.1,9.6-.7.3-1.5.5-2.2.9-1.3.7-1.8,2-1.4,3.2.4,1.2,1.6.7,2.5.8h0Z"/>
  <path d="M621.3,323.8c-2.4,0-4.8,2.2-4.8,4.4,0,2.2,1.5,3.7,3.6,3.6,2.6,0,4.6-2.3,4.6-5.1,0-2.2-.9-3-3.4-2.9h0Z"/>
  <path d="M632.3,334.6c2.4,0,3.3-1.4,4.2-3,1-1.7,1.1-3.3,0-4.9-.5-.8-1.3-1.1-2-.6-1.8,1.3-3.9,2.3-4.6,4.6-.7,2.2.5,3.9,2.4,3.9h0ZM633,330.2c.2-.5.5-1,1-.8.2,0,.4.7.4,1.2s0,1-.8.8c-.5-.2-.6-.6-.6-1.1h0Z"/>
  <path d="M603.7,325.3c0,1.8.8,2.7,2.6,2.7,2.5,0,4.8-2.1,4.9-4.4,0-2.4-1.4-2.3-3.2-2.1-3,.3-4.3,1.2-4.2,3.8h0Z"/>
  <path d="M477.3,577.1c-2.7,1.8-4.6,2.9-6.4,4.2-1.5,1.1-1.6,2.2.1,3.4,1.5,1,3.6,1.3,4.3,3.5.4,1.1,1.9.7,3.1.5,3.2-.5,6.1-2,9-3.3,4.7-2.2,9.2-4.5,13.8-6.9,2.4-1.2,4.4-2.5,7.5-1.8,3,.7,4.6-1.6,3.4-4.5-2-5.2-5.6-9.4-9.2-13.4-2.2-2.4-5.1-2-6.7.8-.9,1.6-2,1.7-3.5,1.9-8.5,1.2-16.6,3.7-24.6,6.8-2.1.8-3,1.7-1.6,3.9,1.2,1.9,2.2,3.9,3.4,5.8.5.8,1.5,1.3,2.2,0,1-1.9,2.4-1.6,5-.8h0ZM502.6,565.3c-1.7-1.3-2.8-2.1-3.9-3-.5-.4-.9-.9-.2-1.5.5-.5,1.3-.6,1.7,0,1,1.1,2,2.4,2.4,4.5ZM507.5,574.3c-1.5-1.7-2.3-3.7-2.5-6,.8,1.9,2.7,3.3,2.5,6Z"/>
  <path d="M605.5,441.3c-1.8,0-2.4.8-1.5,2.4,1.8,3.1,4.9,5.1,6.8,8.1.6,1,1.8.5,2.1-.7.9-3.3-4-9.7-7.4-9.7h0Z"/>
  <path d="M527.8,473.5c4.7,3.5,8.8,2.6,11.1-2.6,1.6-3.5,1.2-6.5-1.5-9.7-1,1.1.2,2,.3,2.9.1,1.6.2,3.2-.3,4.8-1.5,5.2-4.2,6.4-9.2,4.1-.2.2-.3.3-.5.5Z"/>
  <path d="M607.1,455.9c-.5-4.3-2.2-7.1-5.1-9.4-.6-.5-1.5-.8-2.1,0-.4.6-.4,1.3,0,1.8,1.7,3,3.9,5.4,7.3,7.6h0Z"/>
  <path d="M595.1,463.9c.9,0,1.4-.4,1.4-1.4-.1-2.7-2.6-5.3-5.1-5.4-.8,0-1.6.2-2.1.9-.6.8,0,1.5.5,2.1,1.6,1.5,2.7,3.6,5.3,3.9Z"/>
  <path d="M602.8,460.5c-1-4-2.3-6.7-4.9-8.8-.9-.7-2-1.4-2.9-.3-.7.8-.3,1.8.5,2.6,2,2.1,4.1,4.3,7.3,6.6Z"/>
  <path d="M528.2,473.1c-2-4.1-2.4-8,2.2-11.1-4.8.2-7.3,3.5-5.8,7.5.6,1.6,1.3,3.3,3.2,4l.5-.5h0Z"/>
  <path d="M547.9,375.7c2.5,2.2,4.6,3.2,6.8,1.1,1.7-1.7,3.2-1.9,5-.3.5.4,1.3.5,1.7-.1.7-1-.1-1.3-.9-1.7-1.4-.8-3-2.4-4.3-1-2.2,2.5-5,2.2-8.4,2.1Z"/>
  <path d="M515.8,485.5c.3-3.5,1.7-5.1,4.3-5-2.2-1.7-4.5-2.8-6.1-.9-1.9,2.3.3,4.2,1.8,5.9Z"/>
  <path d="M545.3,476.6c-2.3.4-4.3.9-3.8,3.5.2.8.9,1.5,1.7,1.3,2.6-.5,2.4-2.4,2.1-4.8h0Z"/>
  <path d="M541,472.2c-1,1.1-.3,2.8-1.5,3.9,2-.7,2.4-2,1.5-3.9Z"/>
  <path d="M567.7,374.2c-1.4-2.1-2.7-2.2-4.7-1.3,1.6.4,2.9.8,4.7,1.3Z"/>
  <path d="M520.9,407c-2.4,0-5.4,2.9-5.4,5.1,0,1.7,2.7,3.8,4.9,3.8,2.6,0,5.3-2.3,5.3-4.6s-2.1-4.3-4.8-4.3Z"/>
  <path d="M533.9,401.4c0-2.6-1.4-4.4-3.4-4.5-3.1,0-5.5,2-5.6,4.8-.1,2.9,2,5.2,4.6,5.1,2.4-.1,4.4-2.6,4.4-5.5Z"/>
  <path d="M515.2,420.3c0-3.1-1-4.5-3.2-4.4-1.7,0-2.8.9-2.8,2.6,0,2.3,2.4,5.4,4.1,5.1,1.9-.3,1.8-1.9,1.8-3.4h0Z"/>
</svg>